<mxfile host="app.diagrams.net" modified="2021-05-12T11:02:34.621Z" agent="5.0 (Macintosh; Intel Mac OS X 10_15_7) AppleWebKit/537.36 (KHTML, like Gecko) Chrome/90.0.4430.93 Safari/537.36" etag="LFwwmrVAkqHVDcwAP09l" version="14.6.12" type="github">
  <diagram id="ihvXJpPM5LNeGCaqP89Z" name="Page-1">
    <mxGraphModel dx="1426" dy="737" grid="1" gridSize="10" guides="1" tooltips="1" connect="1" arrows="1" fold="1" page="1" pageScale="1" pageWidth="827" pageHeight="1169" math="0" shadow="0">
      <root>
        <mxCell id="0" />
        <mxCell id="1" parent="0" />
        <mxCell id="0Ep_V3U1J2-gXRXQqFik-311" value="" style="ellipse;whiteSpace=wrap;html=1;strokeWidth=1;flipH=0;flipV=1;strokeColor=#004C99;" vertex="1" parent="1">
          <mxGeometry x="20" y="300" width="20" height="20" as="geometry" />
        </mxCell>
        <mxCell id="0Ep_V3U1J2-gXRXQqFik-319" value="cat" style="ellipse;whiteSpace=wrap;html=1;strokeWidth=1;flipH=0;flipV=1;strokeColor=#004C99;" vertex="1" parent="1">
          <mxGeometry x="95" y="370" width="20" height="20" as="geometry" />
        </mxCell>
        <mxCell id="0Ep_V3U1J2-gXRXQqFik-320" value="dog" style="ellipse;whiteSpace=wrap;html=1;strokeWidth=1;flipH=0;flipV=1;strokeColor=#004C99;" vertex="1" parent="1">
          <mxGeometry x="120" y="370" width="20" height="20" as="geometry" />
        </mxCell>
        <mxCell id="0Ep_V3U1J2-gXRXQqFik-321" value="" style="endArrow=none;html=1;entryX=0.5;entryY=1;entryDx=0;entryDy=0;exitX=0.5;exitY=0;exitDx=0;exitDy=0;strokeColor=#004C99;" edge="1" parent="1" source="0Ep_V3U1J2-gXRXQqFik-319" target="0Ep_V3U1J2-gXRXQqFik-311">
          <mxGeometry width="50" height="50" relative="1" as="geometry">
            <mxPoint x="370" y="600" as="sourcePoint" />
            <mxPoint x="420" y="550" as="targetPoint" />
          </mxGeometry>
        </mxCell>
        <mxCell id="0Ep_V3U1J2-gXRXQqFik-322" value="" style="endArrow=none;html=1;strokeColor=#004C99;exitX=0.5;exitY=1;exitDx=0;exitDy=0;entryX=0.5;entryY=0;entryDx=0;entryDy=0;" edge="1" parent="1" target="0Ep_V3U1J2-gXRXQqFik-319">
          <mxGeometry width="50" height="50" relative="1" as="geometry">
            <mxPoint x="55" y="320" as="sourcePoint" />
            <mxPoint x="280" y="460" as="targetPoint" />
          </mxGeometry>
        </mxCell>
        <mxCell id="0Ep_V3U1J2-gXRXQqFik-323" value="" style="endArrow=none;html=1;strokeColor=#004C99;exitX=0.5;exitY=0;exitDx=0;exitDy=0;entryX=0.5;entryY=1;entryDx=0;entryDy=0;" edge="1" parent="1" source="0Ep_V3U1J2-gXRXQqFik-319">
          <mxGeometry width="50" height="50" relative="1" as="geometry">
            <mxPoint x="130" y="410" as="sourcePoint" />
            <mxPoint x="130" y="320" as="targetPoint" />
          </mxGeometry>
        </mxCell>
        <mxCell id="0Ep_V3U1J2-gXRXQqFik-324" value="" style="endArrow=none;html=1;strokeColor=#004C99;exitX=0.5;exitY=0;exitDx=0;exitDy=0;entryX=0.5;entryY=1;entryDx=0;entryDy=0;" edge="1" parent="1" source="0Ep_V3U1J2-gXRXQqFik-319">
          <mxGeometry width="50" height="50" relative="1" as="geometry">
            <mxPoint x="165" y="390" as="sourcePoint" />
            <mxPoint x="105" y="320" as="targetPoint" />
          </mxGeometry>
        </mxCell>
        <mxCell id="0Ep_V3U1J2-gXRXQqFik-325" value="" style="endArrow=none;html=1;strokeColor=#004C99;exitX=0.5;exitY=0;exitDx=0;exitDy=0;entryX=0.5;entryY=1;entryDx=0;entryDy=0;" edge="1" parent="1" source="0Ep_V3U1J2-gXRXQqFik-319">
          <mxGeometry width="50" height="50" relative="1" as="geometry">
            <mxPoint x="155" y="405" as="sourcePoint" />
            <mxPoint x="155" y="320" as="targetPoint" />
          </mxGeometry>
        </mxCell>
        <mxCell id="0Ep_V3U1J2-gXRXQqFik-326" value="" style="endArrow=none;html=1;strokeColor=#004C99;exitX=0.5;exitY=0;exitDx=0;exitDy=0;entryX=0.5;entryY=1;entryDx=0;entryDy=0;" edge="1" parent="1" source="0Ep_V3U1J2-gXRXQqFik-319">
          <mxGeometry width="50" height="50" relative="1" as="geometry">
            <mxPoint x="155" y="370" as="sourcePoint" />
            <mxPoint x="180" y="320" as="targetPoint" />
          </mxGeometry>
        </mxCell>
        <mxCell id="0Ep_V3U1J2-gXRXQqFik-327" value="" style="endArrow=none;html=1;strokeColor=#004C99;exitX=0.5;exitY=0;exitDx=0;exitDy=0;entryX=0.5;entryY=1;entryDx=0;entryDy=0;" edge="1" parent="1" source="0Ep_V3U1J2-gXRXQqFik-319">
          <mxGeometry width="50" height="50" relative="1" as="geometry">
            <mxPoint x="170" y="450" as="sourcePoint" />
            <mxPoint x="205" y="320" as="targetPoint" />
          </mxGeometry>
        </mxCell>
        <mxCell id="0Ep_V3U1J2-gXRXQqFik-328" value="" style="endArrow=none;html=1;strokeColor=#004C99;exitX=0.5;exitY=0;exitDx=0;exitDy=0;entryX=0.5;entryY=1;entryDx=0;entryDy=0;" edge="1" parent="1" source="0Ep_V3U1J2-gXRXQqFik-319">
          <mxGeometry width="50" height="50" relative="1" as="geometry">
            <mxPoint x="80" y="510" as="sourcePoint" />
            <mxPoint x="80" y="320" as="targetPoint" />
          </mxGeometry>
        </mxCell>
        <mxCell id="0Ep_V3U1J2-gXRXQqFik-329" value="" style="endArrow=none;html=1;entryX=0.5;entryY=1;entryDx=0;entryDy=0;exitX=0.5;exitY=0;exitDx=0;exitDy=0;strokeColor=#004C99;startFill=1;fixDash=0;" edge="1" parent="1" source="0Ep_V3U1J2-gXRXQqFik-320" target="0Ep_V3U1J2-gXRXQqFik-311">
          <mxGeometry width="50" height="50" relative="1" as="geometry">
            <mxPoint x="155" y="460" as="sourcePoint" />
            <mxPoint x="80" y="410" as="targetPoint" />
          </mxGeometry>
        </mxCell>
        <mxCell id="0Ep_V3U1J2-gXRXQqFik-330" value="" style="endArrow=none;html=1;strokeColor=#004C99;exitX=0.5;exitY=1;exitDx=0;exitDy=0;startFill=1;fixDash=0;" edge="1" parent="1">
          <mxGeometry width="50" height="50" relative="1" as="geometry">
            <mxPoint x="55" y="320" as="sourcePoint" />
            <mxPoint x="130" y="370" as="targetPoint" />
          </mxGeometry>
        </mxCell>
        <mxCell id="0Ep_V3U1J2-gXRXQqFik-331" value="" style="endArrow=none;html=1;strokeColor=#004C99;exitX=0.5;exitY=0;exitDx=0;exitDy=0;entryX=0.5;entryY=1;entryDx=0;entryDy=0;startFill=1;fixDash=0;" edge="1" parent="1" source="0Ep_V3U1J2-gXRXQqFik-320">
          <mxGeometry width="50" height="50" relative="1" as="geometry">
            <mxPoint x="155" y="460" as="sourcePoint" />
            <mxPoint x="130" y="320" as="targetPoint" />
          </mxGeometry>
        </mxCell>
        <mxCell id="0Ep_V3U1J2-gXRXQqFik-332" value="" style="endArrow=none;html=1;strokeColor=#004C99;exitX=0.5;exitY=0;exitDx=0;exitDy=0;entryX=0.5;entryY=1;entryDx=0;entryDy=0;startFill=1;fixDash=0;" edge="1" parent="1" source="0Ep_V3U1J2-gXRXQqFik-320">
          <mxGeometry width="50" height="50" relative="1" as="geometry">
            <mxPoint x="155" y="460" as="sourcePoint" />
            <mxPoint x="105" y="320" as="targetPoint" />
          </mxGeometry>
        </mxCell>
        <mxCell id="0Ep_V3U1J2-gXRXQqFik-333" value="" style="endArrow=none;html=1;strokeColor=#004C99;exitX=0.5;exitY=0;exitDx=0;exitDy=0;entryX=0.5;entryY=1;entryDx=0;entryDy=0;startFill=1;fixDash=0;" edge="1" parent="1" source="0Ep_V3U1J2-gXRXQqFik-320">
          <mxGeometry width="50" height="50" relative="1" as="geometry">
            <mxPoint x="155" y="460" as="sourcePoint" />
            <mxPoint x="155" y="320" as="targetPoint" />
          </mxGeometry>
        </mxCell>
        <mxCell id="0Ep_V3U1J2-gXRXQqFik-334" value="" style="endArrow=none;html=1;strokeColor=#004C99;exitX=0.5;exitY=0;exitDx=0;exitDy=0;entryX=0.5;entryY=1;entryDx=0;entryDy=0;startFill=1;fixDash=0;" edge="1" parent="1" source="0Ep_V3U1J2-gXRXQqFik-320">
          <mxGeometry width="50" height="50" relative="1" as="geometry">
            <mxPoint x="155" y="460" as="sourcePoint" />
            <mxPoint x="180" y="320" as="targetPoint" />
          </mxGeometry>
        </mxCell>
        <mxCell id="0Ep_V3U1J2-gXRXQqFik-335" value="" style="endArrow=none;html=1;strokeColor=#004C99;exitX=0.5;exitY=0;exitDx=0;exitDy=0;entryX=0.5;entryY=1;entryDx=0;entryDy=0;startFill=1;fixDash=0;" edge="1" parent="1" source="0Ep_V3U1J2-gXRXQqFik-320">
          <mxGeometry width="50" height="50" relative="1" as="geometry">
            <mxPoint x="155" y="460" as="sourcePoint" />
            <mxPoint x="205" y="320" as="targetPoint" />
          </mxGeometry>
        </mxCell>
        <mxCell id="0Ep_V3U1J2-gXRXQqFik-336" value="" style="endArrow=none;html=1;strokeColor=#004C99;exitX=0.5;exitY=0;exitDx=0;exitDy=0;entryX=0.5;entryY=1;entryDx=0;entryDy=0;startFill=1;fixDash=0;" edge="1" parent="1" source="0Ep_V3U1J2-gXRXQqFik-320">
          <mxGeometry width="50" height="50" relative="1" as="geometry">
            <mxPoint x="155" y="460" as="sourcePoint" />
            <mxPoint x="80" y="320" as="targetPoint" />
          </mxGeometry>
        </mxCell>
        <mxCell id="0Ep_V3U1J2-gXRXQqFik-337" value="" style="ellipse;whiteSpace=wrap;html=1;strokeWidth=1;flipH=0;flipV=0;strokeColor=#004C99;" vertex="1" parent="1">
          <mxGeometry x="20" y="230" width="20" height="20" as="geometry" />
        </mxCell>
        <mxCell id="0Ep_V3U1J2-gXRXQqFik-338" value="" style="endArrow=none;html=1;strokeColor=#004C99;entryX=0.5;entryY=1;entryDx=0;entryDy=0;exitX=0.5;exitY=0;exitDx=0;exitDy=0;" edge="1" parent="1" source="0Ep_V3U1J2-gXRXQqFik-311" target="0Ep_V3U1J2-gXRXQqFik-337">
          <mxGeometry width="50" height="50" relative="1" as="geometry">
            <mxPoint x="370" y="330" as="sourcePoint" />
            <mxPoint x="420" y="280" as="targetPoint" />
          </mxGeometry>
        </mxCell>
        <mxCell id="0Ep_V3U1J2-gXRXQqFik-339" value="" style="ellipse;whiteSpace=wrap;html=1;strokeWidth=1;flipH=0;flipV=0;strokeColor=#004C99;" vertex="1" parent="1">
          <mxGeometry x="45" y="230" width="20" height="20" as="geometry" />
        </mxCell>
        <mxCell id="0Ep_V3U1J2-gXRXQqFik-340" value="" style="ellipse;whiteSpace=wrap;html=1;strokeWidth=1;flipH=0;flipV=0;strokeColor=#004C99;" vertex="1" parent="1">
          <mxGeometry x="70" y="230" width="20" height="20" as="geometry" />
        </mxCell>
        <mxCell id="0Ep_V3U1J2-gXRXQqFik-341" value="" style="ellipse;whiteSpace=wrap;html=1;strokeWidth=1;flipH=0;flipV=0;strokeColor=#004C99;" vertex="1" parent="1">
          <mxGeometry x="95" y="230" width="20" height="20" as="geometry" />
        </mxCell>
        <mxCell id="0Ep_V3U1J2-gXRXQqFik-342" value="" style="ellipse;whiteSpace=wrap;html=1;strokeWidth=1;flipH=0;flipV=0;strokeColor=#004C99;" vertex="1" parent="1">
          <mxGeometry x="120" y="230" width="20" height="20" as="geometry" />
        </mxCell>
        <mxCell id="0Ep_V3U1J2-gXRXQqFik-343" value="" style="ellipse;whiteSpace=wrap;html=1;strokeWidth=1;flipH=0;flipV=0;strokeColor=#004C99;" vertex="1" parent="1">
          <mxGeometry x="145" y="230" width="20" height="20" as="geometry" />
        </mxCell>
        <mxCell id="0Ep_V3U1J2-gXRXQqFik-344" value="" style="ellipse;whiteSpace=wrap;html=1;strokeWidth=1;flipH=0;flipV=0;strokeColor=#004C99;" vertex="1" parent="1">
          <mxGeometry x="170" y="230" width="20" height="20" as="geometry" />
        </mxCell>
        <mxCell id="0Ep_V3U1J2-gXRXQqFik-346" value="" style="endArrow=none;html=1;strokeColor=#004C99;exitX=0.5;exitY=0;exitDx=0;exitDy=0;entryX=0.5;entryY=1;entryDx=0;entryDy=0;" edge="1" parent="1" source="0Ep_V3U1J2-gXRXQqFik-311" target="0Ep_V3U1J2-gXRXQqFik-339">
          <mxGeometry width="50" height="50" relative="1" as="geometry">
            <mxPoint x="370" y="330" as="sourcePoint" />
            <mxPoint x="420" y="280" as="targetPoint" />
          </mxGeometry>
        </mxCell>
        <mxCell id="0Ep_V3U1J2-gXRXQqFik-347" value="" style="endArrow=none;html=1;strokeColor=#004C99;exitX=0.5;exitY=0;exitDx=0;exitDy=0;entryX=0.5;entryY=1;entryDx=0;entryDy=0;" edge="1" parent="1" source="0Ep_V3U1J2-gXRXQqFik-311" target="0Ep_V3U1J2-gXRXQqFik-340">
          <mxGeometry width="50" height="50" relative="1" as="geometry">
            <mxPoint x="380" y="340" as="sourcePoint" />
            <mxPoint x="430" y="290" as="targetPoint" />
          </mxGeometry>
        </mxCell>
        <mxCell id="0Ep_V3U1J2-gXRXQqFik-348" value="" style="endArrow=none;html=1;strokeColor=#004C99;exitX=0.5;exitY=0;exitDx=0;exitDy=0;entryX=0.5;entryY=1;entryDx=0;entryDy=0;" edge="1" parent="1" source="0Ep_V3U1J2-gXRXQqFik-311" target="0Ep_V3U1J2-gXRXQqFik-341">
          <mxGeometry width="50" height="50" relative="1" as="geometry">
            <mxPoint x="390" y="350" as="sourcePoint" />
            <mxPoint x="440" y="300" as="targetPoint" />
          </mxGeometry>
        </mxCell>
        <mxCell id="0Ep_V3U1J2-gXRXQqFik-349" value="" style="endArrow=none;html=1;strokeColor=#004C99;exitX=0.5;exitY=0;exitDx=0;exitDy=0;entryX=0.5;entryY=1;entryDx=0;entryDy=0;" edge="1" parent="1" source="0Ep_V3U1J2-gXRXQqFik-311" target="0Ep_V3U1J2-gXRXQqFik-342">
          <mxGeometry width="50" height="50" relative="1" as="geometry">
            <mxPoint x="10" y="290" as="sourcePoint" />
            <mxPoint x="450" y="310" as="targetPoint" />
          </mxGeometry>
        </mxCell>
        <mxCell id="0Ep_V3U1J2-gXRXQqFik-350" value="" style="endArrow=none;html=1;strokeColor=#004C99;exitX=0.5;exitY=0;exitDx=0;exitDy=0;entryX=0.5;entryY=1;entryDx=0;entryDy=0;" edge="1" parent="1" source="0Ep_V3U1J2-gXRXQqFik-311" target="0Ep_V3U1J2-gXRXQqFik-343">
          <mxGeometry width="50" height="50" relative="1" as="geometry">
            <mxPoint x="410" y="370" as="sourcePoint" />
            <mxPoint x="460" y="320" as="targetPoint" />
          </mxGeometry>
        </mxCell>
        <mxCell id="0Ep_V3U1J2-gXRXQqFik-351" value="" style="endArrow=none;html=1;strokeColor=#004C99;exitX=0.5;exitY=0;exitDx=0;exitDy=0;entryX=0.5;entryY=1;entryDx=0;entryDy=0;" edge="1" parent="1" source="0Ep_V3U1J2-gXRXQqFik-311" target="0Ep_V3U1J2-gXRXQqFik-344">
          <mxGeometry width="50" height="50" relative="1" as="geometry">
            <mxPoint x="420" y="380" as="sourcePoint" />
            <mxPoint x="470" y="330" as="targetPoint" />
          </mxGeometry>
        </mxCell>
        <mxCell id="0Ep_V3U1J2-gXRXQqFik-370" value="" style="ellipse;whiteSpace=wrap;html=1;strokeWidth=1;flipH=0;flipV=1;strokeColor=#004C99;" vertex="1" parent="1">
          <mxGeometry x="20" y="300" width="20" height="20" as="geometry" />
        </mxCell>
        <mxCell id="0Ep_V3U1J2-gXRXQqFik-371" value="" style="ellipse;whiteSpace=wrap;html=1;strokeWidth=1;flipH=0;flipV=0;strokeColor=#004C99;" vertex="1" parent="1">
          <mxGeometry x="20" y="230" width="20" height="20" as="geometry" />
        </mxCell>
        <mxCell id="0Ep_V3U1J2-gXRXQqFik-372" value="" style="endArrow=none;html=1;strokeColor=#004C99;entryX=0.5;entryY=1;entryDx=0;entryDy=0;exitX=0.5;exitY=0;exitDx=0;exitDy=0;" edge="1" parent="1" source="0Ep_V3U1J2-gXRXQqFik-370" target="0Ep_V3U1J2-gXRXQqFik-371">
          <mxGeometry width="50" height="50" relative="1" as="geometry">
            <mxPoint x="370" y="330" as="sourcePoint" />
            <mxPoint x="420" y="280" as="targetPoint" />
          </mxGeometry>
        </mxCell>
        <mxCell id="0Ep_V3U1J2-gXRXQqFik-373" value="" style="ellipse;whiteSpace=wrap;html=1;strokeWidth=1;flipH=0;flipV=0;strokeColor=#004C99;" vertex="1" parent="1">
          <mxGeometry x="45" y="230" width="20" height="20" as="geometry" />
        </mxCell>
        <mxCell id="0Ep_V3U1J2-gXRXQqFik-374" value="" style="ellipse;whiteSpace=wrap;html=1;strokeWidth=1;flipH=0;flipV=0;strokeColor=#004C99;" vertex="1" parent="1">
          <mxGeometry x="70" y="230" width="20" height="20" as="geometry" />
        </mxCell>
        <mxCell id="0Ep_V3U1J2-gXRXQqFik-375" value="" style="ellipse;whiteSpace=wrap;html=1;strokeWidth=1;flipH=0;flipV=0;strokeColor=#004C99;" vertex="1" parent="1">
          <mxGeometry x="95" y="230" width="20" height="20" as="geometry" />
        </mxCell>
        <mxCell id="0Ep_V3U1J2-gXRXQqFik-376" value="" style="ellipse;whiteSpace=wrap;html=1;strokeWidth=1;flipH=0;flipV=0;strokeColor=#004C99;" vertex="1" parent="1">
          <mxGeometry x="120" y="230" width="20" height="20" as="geometry" />
        </mxCell>
        <mxCell id="0Ep_V3U1J2-gXRXQqFik-377" value="" style="ellipse;whiteSpace=wrap;html=1;strokeWidth=1;flipH=0;flipV=0;strokeColor=#004C99;" vertex="1" parent="1">
          <mxGeometry x="145" y="230" width="20" height="20" as="geometry" />
        </mxCell>
        <mxCell id="0Ep_V3U1J2-gXRXQqFik-378" value="" style="ellipse;whiteSpace=wrap;html=1;strokeWidth=1;flipH=0;flipV=0;strokeColor=#004C99;" vertex="1" parent="1">
          <mxGeometry x="195" y="230" width="20" height="20" as="geometry" />
        </mxCell>
        <mxCell id="0Ep_V3U1J2-gXRXQqFik-441" value="" style="ellipse;whiteSpace=wrap;html=1;strokeWidth=1;flipH=0;flipV=1;strokeColor=#004C99;" vertex="1" parent="1">
          <mxGeometry x="20" y="300" width="20" height="20" as="geometry" />
        </mxCell>
        <mxCell id="0Ep_V3U1J2-gXRXQqFik-442" value="" style="endArrow=none;html=1;strokeColor=#004C99;entryX=0.5;entryY=1;entryDx=0;entryDy=0;exitX=0.5;exitY=0;exitDx=0;exitDy=0;" edge="1" parent="1" source="0Ep_V3U1J2-gXRXQqFik-441">
          <mxGeometry width="50" height="50" relative="1" as="geometry">
            <mxPoint x="370" y="330" as="sourcePoint" />
            <mxPoint x="30" y="250" as="targetPoint" />
          </mxGeometry>
        </mxCell>
        <mxCell id="0Ep_V3U1J2-gXRXQqFik-450" value="" style="ellipse;whiteSpace=wrap;html=1;strokeWidth=1;flipH=0;flipV=1;strokeColor=#004C99;" vertex="1" parent="1">
          <mxGeometry x="20" y="300" width="20" height="20" as="geometry" />
        </mxCell>
        <mxCell id="0Ep_V3U1J2-gXRXQqFik-451" value="" style="endArrow=none;html=1;strokeColor=#004C99;entryX=0.5;entryY=1;entryDx=0;entryDy=0;exitX=0.5;exitY=0;exitDx=0;exitDy=0;" edge="1" parent="1" source="0Ep_V3U1J2-gXRXQqFik-450">
          <mxGeometry width="50" height="50" relative="1" as="geometry">
            <mxPoint x="370" y="330" as="sourcePoint" />
            <mxPoint x="30" y="250" as="targetPoint" />
          </mxGeometry>
        </mxCell>
        <mxCell id="0Ep_V3U1J2-gXRXQqFik-483" value="" style="ellipse;whiteSpace=wrap;html=1;strokeWidth=1;flipH=0;flipV=1;strokeColor=#004C99;" vertex="1" parent="1">
          <mxGeometry x="20" y="300" width="20" height="20" as="geometry" />
        </mxCell>
        <mxCell id="0Ep_V3U1J2-gXRXQqFik-484" value="" style="endArrow=none;html=1;strokeColor=#004C99;entryX=0.5;entryY=1;entryDx=0;entryDy=0;exitX=0.5;exitY=0;exitDx=0;exitDy=0;" edge="1" parent="1" source="0Ep_V3U1J2-gXRXQqFik-483">
          <mxGeometry width="50" height="50" relative="1" as="geometry">
            <mxPoint x="370" y="330" as="sourcePoint" />
            <mxPoint x="30" y="250" as="targetPoint" />
          </mxGeometry>
        </mxCell>
        <mxCell id="0Ep_V3U1J2-gXRXQqFik-492" value="" style="ellipse;whiteSpace=wrap;html=1;strokeWidth=1;flipH=0;flipV=1;strokeColor=#004C99;" vertex="1" parent="1">
          <mxGeometry x="20" y="300" width="20" height="20" as="geometry" />
        </mxCell>
        <mxCell id="0Ep_V3U1J2-gXRXQqFik-493" value="" style="endArrow=none;html=1;strokeColor=#004C99;entryX=0.5;entryY=1;entryDx=0;entryDy=0;exitX=0.5;exitY=0;exitDx=0;exitDy=0;" edge="1" parent="1" source="0Ep_V3U1J2-gXRXQqFik-492">
          <mxGeometry width="50" height="50" relative="1" as="geometry">
            <mxPoint x="370" y="330" as="sourcePoint" />
            <mxPoint x="30" y="250" as="targetPoint" />
          </mxGeometry>
        </mxCell>
        <mxCell id="0Ep_V3U1J2-gXRXQqFik-501" value="" style="ellipse;whiteSpace=wrap;html=1;strokeWidth=1;flipH=0;flipV=1;strokeColor=#004C99;" vertex="1" parent="1">
          <mxGeometry x="20" y="300" width="20" height="20" as="geometry" />
        </mxCell>
        <mxCell id="0Ep_V3U1J2-gXRXQqFik-502" value="" style="endArrow=none;html=1;strokeColor=#004C99;entryX=0.5;entryY=1;entryDx=0;entryDy=0;exitX=0.5;exitY=0;exitDx=0;exitDy=0;" edge="1" parent="1" source="0Ep_V3U1J2-gXRXQqFik-501">
          <mxGeometry width="50" height="50" relative="1" as="geometry">
            <mxPoint x="370" y="330" as="sourcePoint" />
            <mxPoint x="30" y="250" as="targetPoint" />
          </mxGeometry>
        </mxCell>
        <mxCell id="0Ep_V3U1J2-gXRXQqFik-510" value="" style="ellipse;whiteSpace=wrap;html=1;strokeWidth=1;flipH=0;flipV=1;strokeColor=#004C99;" vertex="1" parent="1">
          <mxGeometry x="20" y="300" width="20" height="20" as="geometry" />
        </mxCell>
        <mxCell id="0Ep_V3U1J2-gXRXQqFik-511" value="" style="endArrow=none;html=1;strokeColor=#004C99;entryX=0.5;entryY=1;entryDx=0;entryDy=0;exitX=0.5;exitY=0;exitDx=0;exitDy=0;" edge="1" parent="1" source="0Ep_V3U1J2-gXRXQqFik-510">
          <mxGeometry width="50" height="50" relative="1" as="geometry">
            <mxPoint x="370" y="330" as="sourcePoint" />
            <mxPoint x="30" y="250" as="targetPoint" />
          </mxGeometry>
        </mxCell>
        <mxCell id="0Ep_V3U1J2-gXRXQqFik-660" value="" style="ellipse;whiteSpace=wrap;html=1;strokeWidth=1;flipH=0;flipV=1;strokeColor=#004C99;" vertex="1" parent="1">
          <mxGeometry x="20" y="300" width="20" height="20" as="geometry" />
        </mxCell>
        <mxCell id="0Ep_V3U1J2-gXRXQqFik-661" value="" style="endArrow=none;html=1;strokeColor=#004C99;entryX=0.5;entryY=1;entryDx=0;entryDy=0;exitX=0.5;exitY=0;exitDx=0;exitDy=0;" edge="1" parent="1" source="0Ep_V3U1J2-gXRXQqFik-660">
          <mxGeometry width="50" height="50" relative="1" as="geometry">
            <mxPoint x="370" y="330" as="sourcePoint" />
            <mxPoint x="30" y="250" as="targetPoint" />
          </mxGeometry>
        </mxCell>
        <mxCell id="0Ep_V3U1J2-gXRXQqFik-668" value="" style="ellipse;whiteSpace=wrap;html=1;strokeWidth=1;flipH=0;flipV=1;strokeColor=#004C99;" vertex="1" parent="1">
          <mxGeometry x="195" y="300" width="20" height="20" as="geometry" />
        </mxCell>
        <mxCell id="0Ep_V3U1J2-gXRXQqFik-669" value="" style="endArrow=none;html=1;strokeColor=#004C99;entryX=0.5;entryY=1;entryDx=0;entryDy=0;exitX=0.5;exitY=0;exitDx=0;exitDy=0;" edge="1" parent="1" source="0Ep_V3U1J2-gXRXQqFik-668">
          <mxGeometry width="50" height="50" relative="1" as="geometry">
            <mxPoint x="370" y="330" as="sourcePoint" />
            <mxPoint x="30" y="250" as="targetPoint" />
          </mxGeometry>
        </mxCell>
        <mxCell id="0Ep_V3U1J2-gXRXQqFik-670" value="" style="endArrow=none;html=1;strokeColor=#004C99;exitX=0.5;exitY=0;exitDx=0;exitDy=0;entryX=0.5;entryY=1;entryDx=0;entryDy=0;" edge="1" parent="1" source="0Ep_V3U1J2-gXRXQqFik-668">
          <mxGeometry width="50" height="50" relative="1" as="geometry">
            <mxPoint x="370" y="330" as="sourcePoint" />
            <mxPoint x="55" y="250" as="targetPoint" />
          </mxGeometry>
        </mxCell>
        <mxCell id="0Ep_V3U1J2-gXRXQqFik-671" value="" style="endArrow=none;html=1;strokeColor=#004C99;exitX=0.5;exitY=0;exitDx=0;exitDy=0;entryX=0.5;entryY=1;entryDx=0;entryDy=0;" edge="1" parent="1" source="0Ep_V3U1J2-gXRXQqFik-668">
          <mxGeometry width="50" height="50" relative="1" as="geometry">
            <mxPoint x="380" y="340" as="sourcePoint" />
            <mxPoint x="80" y="250" as="targetPoint" />
          </mxGeometry>
        </mxCell>
        <mxCell id="0Ep_V3U1J2-gXRXQqFik-672" value="" style="endArrow=none;html=1;strokeColor=#004C99;exitX=0.5;exitY=0;exitDx=0;exitDy=0;entryX=0.5;entryY=1;entryDx=0;entryDy=0;" edge="1" parent="1" source="0Ep_V3U1J2-gXRXQqFik-668">
          <mxGeometry width="50" height="50" relative="1" as="geometry">
            <mxPoint x="390" y="350" as="sourcePoint" />
            <mxPoint x="105" y="250" as="targetPoint" />
          </mxGeometry>
        </mxCell>
        <mxCell id="0Ep_V3U1J2-gXRXQqFik-673" value="" style="endArrow=none;html=1;strokeColor=#004C99;exitX=0.5;exitY=0;exitDx=0;exitDy=0;entryX=0.5;entryY=1;entryDx=0;entryDy=0;" edge="1" parent="1" source="0Ep_V3U1J2-gXRXQqFik-668">
          <mxGeometry width="50" height="50" relative="1" as="geometry">
            <mxPoint x="10" y="290" as="sourcePoint" />
            <mxPoint x="130" y="250" as="targetPoint" />
          </mxGeometry>
        </mxCell>
        <mxCell id="0Ep_V3U1J2-gXRXQqFik-674" value="" style="endArrow=none;html=1;strokeColor=#004C99;exitX=0.5;exitY=0;exitDx=0;exitDy=0;entryX=0.5;entryY=1;entryDx=0;entryDy=0;" edge="1" parent="1" source="0Ep_V3U1J2-gXRXQqFik-668">
          <mxGeometry width="50" height="50" relative="1" as="geometry">
            <mxPoint x="410" y="370" as="sourcePoint" />
            <mxPoint x="155" y="250" as="targetPoint" />
          </mxGeometry>
        </mxCell>
        <mxCell id="0Ep_V3U1J2-gXRXQqFik-675" value="" style="endArrow=none;html=1;strokeColor=#004C99;exitX=0.5;exitY=0;exitDx=0;exitDy=0;entryX=0.5;entryY=1;entryDx=0;entryDy=0;" edge="1" parent="1" source="0Ep_V3U1J2-gXRXQqFik-668">
          <mxGeometry width="50" height="50" relative="1" as="geometry">
            <mxPoint x="420" y="380" as="sourcePoint" />
            <mxPoint x="205" y="250" as="targetPoint" />
          </mxGeometry>
        </mxCell>
        <mxCell id="0Ep_V3U1J2-gXRXQqFik-676" value="" style="ellipse;whiteSpace=wrap;html=1;strokeWidth=1;flipH=0;flipV=1;strokeColor=#004C99;" vertex="1" parent="1">
          <mxGeometry x="170" y="300" width="20" height="20" as="geometry" />
        </mxCell>
        <mxCell id="0Ep_V3U1J2-gXRXQqFik-677" value="" style="endArrow=none;html=1;strokeColor=#004C99;entryX=0.5;entryY=1;entryDx=0;entryDy=0;exitX=0.5;exitY=0;exitDx=0;exitDy=0;" edge="1" parent="1" source="0Ep_V3U1J2-gXRXQqFik-676">
          <mxGeometry width="50" height="50" relative="1" as="geometry">
            <mxPoint x="370" y="330" as="sourcePoint" />
            <mxPoint x="30" y="250" as="targetPoint" />
          </mxGeometry>
        </mxCell>
        <mxCell id="0Ep_V3U1J2-gXRXQqFik-678" value="" style="endArrow=none;html=1;strokeColor=#004C99;exitX=0.5;exitY=0;exitDx=0;exitDy=0;entryX=0.5;entryY=1;entryDx=0;entryDy=0;" edge="1" parent="1" source="0Ep_V3U1J2-gXRXQqFik-676">
          <mxGeometry width="50" height="50" relative="1" as="geometry">
            <mxPoint x="370" y="330" as="sourcePoint" />
            <mxPoint x="55" y="250" as="targetPoint" />
          </mxGeometry>
        </mxCell>
        <mxCell id="0Ep_V3U1J2-gXRXQqFik-679" value="" style="endArrow=none;html=1;strokeColor=#004C99;exitX=0.5;exitY=0;exitDx=0;exitDy=0;entryX=0.5;entryY=1;entryDx=0;entryDy=0;" edge="1" parent="1" source="0Ep_V3U1J2-gXRXQqFik-676">
          <mxGeometry width="50" height="50" relative="1" as="geometry">
            <mxPoint x="380" y="340" as="sourcePoint" />
            <mxPoint x="80" y="250" as="targetPoint" />
          </mxGeometry>
        </mxCell>
        <mxCell id="0Ep_V3U1J2-gXRXQqFik-680" value="" style="endArrow=none;html=1;strokeColor=#004C99;exitX=0.5;exitY=0;exitDx=0;exitDy=0;entryX=0.5;entryY=1;entryDx=0;entryDy=0;" edge="1" parent="1" source="0Ep_V3U1J2-gXRXQqFik-676">
          <mxGeometry width="50" height="50" relative="1" as="geometry">
            <mxPoint x="390" y="350" as="sourcePoint" />
            <mxPoint x="105" y="250" as="targetPoint" />
          </mxGeometry>
        </mxCell>
        <mxCell id="0Ep_V3U1J2-gXRXQqFik-681" value="" style="endArrow=none;html=1;strokeColor=#004C99;exitX=0.5;exitY=0;exitDx=0;exitDy=0;entryX=0.5;entryY=1;entryDx=0;entryDy=0;" edge="1" parent="1" source="0Ep_V3U1J2-gXRXQqFik-676">
          <mxGeometry width="50" height="50" relative="1" as="geometry">
            <mxPoint x="10" y="290" as="sourcePoint" />
            <mxPoint x="130" y="250" as="targetPoint" />
          </mxGeometry>
        </mxCell>
        <mxCell id="0Ep_V3U1J2-gXRXQqFik-682" value="" style="endArrow=none;html=1;strokeColor=#004C99;exitX=0.5;exitY=0;exitDx=0;exitDy=0;entryX=0.5;entryY=1;entryDx=0;entryDy=0;" edge="1" parent="1" source="0Ep_V3U1J2-gXRXQqFik-676">
          <mxGeometry width="50" height="50" relative="1" as="geometry">
            <mxPoint x="410" y="370" as="sourcePoint" />
            <mxPoint x="155" y="250" as="targetPoint" />
          </mxGeometry>
        </mxCell>
        <mxCell id="0Ep_V3U1J2-gXRXQqFik-683" value="" style="endArrow=none;html=1;strokeColor=#004C99;exitX=0.5;exitY=0;exitDx=0;exitDy=0;entryX=0.5;entryY=1;entryDx=0;entryDy=0;" edge="1" parent="1" source="0Ep_V3U1J2-gXRXQqFik-676">
          <mxGeometry width="50" height="50" relative="1" as="geometry">
            <mxPoint x="420" y="380" as="sourcePoint" />
            <mxPoint x="180" y="250" as="targetPoint" />
          </mxGeometry>
        </mxCell>
        <mxCell id="0Ep_V3U1J2-gXRXQqFik-684" value="" style="ellipse;whiteSpace=wrap;html=1;strokeWidth=1;flipH=0;flipV=1;strokeColor=#004C99;" vertex="1" parent="1">
          <mxGeometry x="145" y="300" width="20" height="20" as="geometry" />
        </mxCell>
        <mxCell id="0Ep_V3U1J2-gXRXQqFik-685" value="" style="endArrow=none;html=1;strokeColor=#004C99;entryX=0.5;entryY=1;entryDx=0;entryDy=0;exitX=0.5;exitY=0;exitDx=0;exitDy=0;" edge="1" parent="1" source="0Ep_V3U1J2-gXRXQqFik-684">
          <mxGeometry width="50" height="50" relative="1" as="geometry">
            <mxPoint x="370" y="330" as="sourcePoint" />
            <mxPoint x="30" y="250" as="targetPoint" />
          </mxGeometry>
        </mxCell>
        <mxCell id="0Ep_V3U1J2-gXRXQqFik-686" value="" style="endArrow=none;html=1;strokeColor=#004C99;exitX=0.5;exitY=0;exitDx=0;exitDy=0;entryX=0.5;entryY=1;entryDx=0;entryDy=0;" edge="1" parent="1" source="0Ep_V3U1J2-gXRXQqFik-684">
          <mxGeometry width="50" height="50" relative="1" as="geometry">
            <mxPoint x="370" y="330" as="sourcePoint" />
            <mxPoint x="55" y="250" as="targetPoint" />
          </mxGeometry>
        </mxCell>
        <mxCell id="0Ep_V3U1J2-gXRXQqFik-687" value="" style="endArrow=none;html=1;strokeColor=#004C99;exitX=0.5;exitY=0;exitDx=0;exitDy=0;entryX=0.5;entryY=1;entryDx=0;entryDy=0;" edge="1" parent="1" source="0Ep_V3U1J2-gXRXQqFik-684">
          <mxGeometry width="50" height="50" relative="1" as="geometry">
            <mxPoint x="380" y="340" as="sourcePoint" />
            <mxPoint x="80" y="250" as="targetPoint" />
          </mxGeometry>
        </mxCell>
        <mxCell id="0Ep_V3U1J2-gXRXQqFik-688" value="" style="endArrow=none;html=1;strokeColor=#004C99;exitX=0.5;exitY=0;exitDx=0;exitDy=0;entryX=0.5;entryY=1;entryDx=0;entryDy=0;" edge="1" parent="1" source="0Ep_V3U1J2-gXRXQqFik-684">
          <mxGeometry width="50" height="50" relative="1" as="geometry">
            <mxPoint x="390" y="350" as="sourcePoint" />
            <mxPoint x="105" y="250" as="targetPoint" />
          </mxGeometry>
        </mxCell>
        <mxCell id="0Ep_V3U1J2-gXRXQqFik-689" value="" style="endArrow=none;html=1;strokeColor=#004C99;exitX=0.5;exitY=0;exitDx=0;exitDy=0;entryX=0.5;entryY=1;entryDx=0;entryDy=0;" edge="1" parent="1" source="0Ep_V3U1J2-gXRXQqFik-684">
          <mxGeometry width="50" height="50" relative="1" as="geometry">
            <mxPoint x="10" y="290" as="sourcePoint" />
            <mxPoint x="130" y="250" as="targetPoint" />
          </mxGeometry>
        </mxCell>
        <mxCell id="0Ep_V3U1J2-gXRXQqFik-690" value="" style="endArrow=none;html=1;strokeColor=#004C99;exitX=0.5;exitY=0;exitDx=0;exitDy=0;entryX=0.5;entryY=1;entryDx=0;entryDy=0;" edge="1" parent="1" source="0Ep_V3U1J2-gXRXQqFik-684">
          <mxGeometry width="50" height="50" relative="1" as="geometry">
            <mxPoint x="410" y="370" as="sourcePoint" />
            <mxPoint x="155" y="250" as="targetPoint" />
          </mxGeometry>
        </mxCell>
        <mxCell id="0Ep_V3U1J2-gXRXQqFik-691" value="" style="endArrow=none;html=1;strokeColor=#004C99;exitX=0.5;exitY=0;exitDx=0;exitDy=0;entryX=0.5;entryY=1;entryDx=0;entryDy=0;" edge="1" parent="1" source="0Ep_V3U1J2-gXRXQqFik-684">
          <mxGeometry width="50" height="50" relative="1" as="geometry">
            <mxPoint x="420" y="380" as="sourcePoint" />
            <mxPoint x="180" y="250" as="targetPoint" />
          </mxGeometry>
        </mxCell>
        <mxCell id="0Ep_V3U1J2-gXRXQqFik-692" value="" style="ellipse;whiteSpace=wrap;html=1;strokeWidth=1;flipH=0;flipV=1;strokeColor=#004C99;" vertex="1" parent="1">
          <mxGeometry x="120" y="300" width="20" height="20" as="geometry" />
        </mxCell>
        <mxCell id="0Ep_V3U1J2-gXRXQqFik-693" value="" style="endArrow=none;html=1;strokeColor=#004C99;entryX=0.5;entryY=1;entryDx=0;entryDy=0;exitX=0.5;exitY=0;exitDx=0;exitDy=0;" edge="1" parent="1" source="0Ep_V3U1J2-gXRXQqFik-692">
          <mxGeometry width="50" height="50" relative="1" as="geometry">
            <mxPoint x="370" y="330" as="sourcePoint" />
            <mxPoint x="30" y="250" as="targetPoint" />
          </mxGeometry>
        </mxCell>
        <mxCell id="0Ep_V3U1J2-gXRXQqFik-694" value="" style="endArrow=none;html=1;strokeColor=#004C99;exitX=0.5;exitY=0;exitDx=0;exitDy=0;entryX=0.5;entryY=1;entryDx=0;entryDy=0;" edge="1" parent="1" source="0Ep_V3U1J2-gXRXQqFik-692">
          <mxGeometry width="50" height="50" relative="1" as="geometry">
            <mxPoint x="370" y="330" as="sourcePoint" />
            <mxPoint x="55" y="250" as="targetPoint" />
          </mxGeometry>
        </mxCell>
        <mxCell id="0Ep_V3U1J2-gXRXQqFik-695" value="" style="endArrow=none;html=1;strokeColor=#004C99;exitX=0.5;exitY=0;exitDx=0;exitDy=0;entryX=0.5;entryY=1;entryDx=0;entryDy=0;" edge="1" parent="1" source="0Ep_V3U1J2-gXRXQqFik-692">
          <mxGeometry width="50" height="50" relative="1" as="geometry">
            <mxPoint x="380" y="340" as="sourcePoint" />
            <mxPoint x="80" y="250" as="targetPoint" />
          </mxGeometry>
        </mxCell>
        <mxCell id="0Ep_V3U1J2-gXRXQqFik-696" value="" style="endArrow=none;html=1;strokeColor=#004C99;exitX=0.5;exitY=0;exitDx=0;exitDy=0;entryX=0.5;entryY=1;entryDx=0;entryDy=0;" edge="1" parent="1" source="0Ep_V3U1J2-gXRXQqFik-692">
          <mxGeometry width="50" height="50" relative="1" as="geometry">
            <mxPoint x="390" y="350" as="sourcePoint" />
            <mxPoint x="105" y="250" as="targetPoint" />
          </mxGeometry>
        </mxCell>
        <mxCell id="0Ep_V3U1J2-gXRXQqFik-697" value="" style="endArrow=none;html=1;strokeColor=#004C99;exitX=0.5;exitY=0;exitDx=0;exitDy=0;entryX=0.5;entryY=1;entryDx=0;entryDy=0;" edge="1" parent="1" source="0Ep_V3U1J2-gXRXQqFik-692">
          <mxGeometry width="50" height="50" relative="1" as="geometry">
            <mxPoint x="10" y="290" as="sourcePoint" />
            <mxPoint x="130" y="250" as="targetPoint" />
          </mxGeometry>
        </mxCell>
        <mxCell id="0Ep_V3U1J2-gXRXQqFik-698" value="" style="endArrow=none;html=1;strokeColor=#004C99;exitX=0.5;exitY=0;exitDx=0;exitDy=0;entryX=0.5;entryY=1;entryDx=0;entryDy=0;" edge="1" parent="1" source="0Ep_V3U1J2-gXRXQqFik-692">
          <mxGeometry width="50" height="50" relative="1" as="geometry">
            <mxPoint x="410" y="370" as="sourcePoint" />
            <mxPoint x="155" y="250" as="targetPoint" />
          </mxGeometry>
        </mxCell>
        <mxCell id="0Ep_V3U1J2-gXRXQqFik-699" value="" style="endArrow=none;html=1;strokeColor=#004C99;exitX=0.5;exitY=0;exitDx=0;exitDy=0;entryX=0.5;entryY=1;entryDx=0;entryDy=0;" edge="1" parent="1" source="0Ep_V3U1J2-gXRXQqFik-692">
          <mxGeometry width="50" height="50" relative="1" as="geometry">
            <mxPoint x="420" y="380" as="sourcePoint" />
            <mxPoint x="180" y="250" as="targetPoint" />
          </mxGeometry>
        </mxCell>
        <mxCell id="0Ep_V3U1J2-gXRXQqFik-700" value="" style="ellipse;whiteSpace=wrap;html=1;strokeWidth=1;flipH=0;flipV=1;strokeColor=#004C99;" vertex="1" parent="1">
          <mxGeometry x="95" y="300" width="20" height="20" as="geometry" />
        </mxCell>
        <mxCell id="0Ep_V3U1J2-gXRXQqFik-701" value="" style="endArrow=none;html=1;strokeColor=#004C99;entryX=0.5;entryY=1;entryDx=0;entryDy=0;exitX=0.5;exitY=0;exitDx=0;exitDy=0;" edge="1" parent="1" source="0Ep_V3U1J2-gXRXQqFik-700">
          <mxGeometry width="50" height="50" relative="1" as="geometry">
            <mxPoint x="370" y="330" as="sourcePoint" />
            <mxPoint x="30" y="250" as="targetPoint" />
          </mxGeometry>
        </mxCell>
        <mxCell id="0Ep_V3U1J2-gXRXQqFik-702" value="" style="endArrow=none;html=1;strokeColor=#004C99;exitX=0.5;exitY=0;exitDx=0;exitDy=0;entryX=0.5;entryY=1;entryDx=0;entryDy=0;" edge="1" parent="1" source="0Ep_V3U1J2-gXRXQqFik-700">
          <mxGeometry width="50" height="50" relative="1" as="geometry">
            <mxPoint x="370" y="330" as="sourcePoint" />
            <mxPoint x="55" y="250" as="targetPoint" />
          </mxGeometry>
        </mxCell>
        <mxCell id="0Ep_V3U1J2-gXRXQqFik-703" value="" style="endArrow=none;html=1;strokeColor=#004C99;exitX=0.5;exitY=0;exitDx=0;exitDy=0;entryX=0.5;entryY=1;entryDx=0;entryDy=0;" edge="1" parent="1" source="0Ep_V3U1J2-gXRXQqFik-700">
          <mxGeometry width="50" height="50" relative="1" as="geometry">
            <mxPoint x="380" y="340" as="sourcePoint" />
            <mxPoint x="80" y="250" as="targetPoint" />
          </mxGeometry>
        </mxCell>
        <mxCell id="0Ep_V3U1J2-gXRXQqFik-704" value="" style="endArrow=none;html=1;strokeColor=#004C99;exitX=0.5;exitY=0;exitDx=0;exitDy=0;entryX=0.5;entryY=1;entryDx=0;entryDy=0;" edge="1" parent="1" source="0Ep_V3U1J2-gXRXQqFik-700">
          <mxGeometry width="50" height="50" relative="1" as="geometry">
            <mxPoint x="390" y="350" as="sourcePoint" />
            <mxPoint x="105" y="250" as="targetPoint" />
          </mxGeometry>
        </mxCell>
        <mxCell id="0Ep_V3U1J2-gXRXQqFik-705" value="" style="endArrow=none;html=1;strokeColor=#004C99;exitX=0.5;exitY=0;exitDx=0;exitDy=0;entryX=0.5;entryY=1;entryDx=0;entryDy=0;" edge="1" parent="1" source="0Ep_V3U1J2-gXRXQqFik-700">
          <mxGeometry width="50" height="50" relative="1" as="geometry">
            <mxPoint x="10" y="290" as="sourcePoint" />
            <mxPoint x="130" y="250" as="targetPoint" />
          </mxGeometry>
        </mxCell>
        <mxCell id="0Ep_V3U1J2-gXRXQqFik-706" value="" style="endArrow=none;html=1;strokeColor=#004C99;exitX=0.5;exitY=0;exitDx=0;exitDy=0;entryX=0.5;entryY=1;entryDx=0;entryDy=0;" edge="1" parent="1" source="0Ep_V3U1J2-gXRXQqFik-700">
          <mxGeometry width="50" height="50" relative="1" as="geometry">
            <mxPoint x="410" y="370" as="sourcePoint" />
            <mxPoint x="155" y="250" as="targetPoint" />
          </mxGeometry>
        </mxCell>
        <mxCell id="0Ep_V3U1J2-gXRXQqFik-707" value="" style="endArrow=none;html=1;strokeColor=#004C99;exitX=0.5;exitY=0;exitDx=0;exitDy=0;entryX=0.5;entryY=1;entryDx=0;entryDy=0;" edge="1" parent="1" source="0Ep_V3U1J2-gXRXQqFik-700">
          <mxGeometry width="50" height="50" relative="1" as="geometry">
            <mxPoint x="420" y="380" as="sourcePoint" />
            <mxPoint x="180" y="250" as="targetPoint" />
          </mxGeometry>
        </mxCell>
        <mxCell id="0Ep_V3U1J2-gXRXQqFik-708" value="" style="ellipse;whiteSpace=wrap;html=1;strokeWidth=1;flipH=0;flipV=1;strokeColor=#004C99;" vertex="1" parent="1">
          <mxGeometry x="70" y="300" width="20" height="20" as="geometry" />
        </mxCell>
        <mxCell id="0Ep_V3U1J2-gXRXQqFik-709" value="" style="endArrow=none;html=1;strokeColor=#004C99;entryX=0.5;entryY=1;entryDx=0;entryDy=0;exitX=0.5;exitY=0;exitDx=0;exitDy=0;" edge="1" parent="1" source="0Ep_V3U1J2-gXRXQqFik-708">
          <mxGeometry width="50" height="50" relative="1" as="geometry">
            <mxPoint x="370" y="330" as="sourcePoint" />
            <mxPoint x="30" y="250" as="targetPoint" />
          </mxGeometry>
        </mxCell>
        <mxCell id="0Ep_V3U1J2-gXRXQqFik-710" value="" style="endArrow=none;html=1;strokeColor=#004C99;exitX=0.5;exitY=0;exitDx=0;exitDy=0;entryX=0.5;entryY=1;entryDx=0;entryDy=0;" edge="1" parent="1" source="0Ep_V3U1J2-gXRXQqFik-708">
          <mxGeometry width="50" height="50" relative="1" as="geometry">
            <mxPoint x="370" y="330" as="sourcePoint" />
            <mxPoint x="55" y="250" as="targetPoint" />
          </mxGeometry>
        </mxCell>
        <mxCell id="0Ep_V3U1J2-gXRXQqFik-711" value="" style="endArrow=none;html=1;strokeColor=#004C99;exitX=0.5;exitY=0;exitDx=0;exitDy=0;entryX=0.5;entryY=1;entryDx=0;entryDy=0;" edge="1" parent="1" source="0Ep_V3U1J2-gXRXQqFik-708">
          <mxGeometry width="50" height="50" relative="1" as="geometry">
            <mxPoint x="380" y="340" as="sourcePoint" />
            <mxPoint x="80" y="250" as="targetPoint" />
          </mxGeometry>
        </mxCell>
        <mxCell id="0Ep_V3U1J2-gXRXQqFik-712" value="" style="endArrow=none;html=1;strokeColor=#004C99;exitX=0.5;exitY=0;exitDx=0;exitDy=0;entryX=0.5;entryY=1;entryDx=0;entryDy=0;" edge="1" parent="1" source="0Ep_V3U1J2-gXRXQqFik-708">
          <mxGeometry width="50" height="50" relative="1" as="geometry">
            <mxPoint x="390" y="350" as="sourcePoint" />
            <mxPoint x="105" y="250" as="targetPoint" />
          </mxGeometry>
        </mxCell>
        <mxCell id="0Ep_V3U1J2-gXRXQqFik-713" value="" style="endArrow=none;html=1;strokeColor=#004C99;exitX=0.5;exitY=0;exitDx=0;exitDy=0;entryX=0.5;entryY=1;entryDx=0;entryDy=0;" edge="1" parent="1" source="0Ep_V3U1J2-gXRXQqFik-708">
          <mxGeometry width="50" height="50" relative="1" as="geometry">
            <mxPoint x="10" y="290" as="sourcePoint" />
            <mxPoint x="130" y="250" as="targetPoint" />
          </mxGeometry>
        </mxCell>
        <mxCell id="0Ep_V3U1J2-gXRXQqFik-714" value="" style="endArrow=none;html=1;strokeColor=#004C99;exitX=0.5;exitY=0;exitDx=0;exitDy=0;entryX=0.5;entryY=1;entryDx=0;entryDy=0;" edge="1" parent="1" source="0Ep_V3U1J2-gXRXQqFik-708">
          <mxGeometry width="50" height="50" relative="1" as="geometry">
            <mxPoint x="410" y="370" as="sourcePoint" />
            <mxPoint x="155" y="250" as="targetPoint" />
          </mxGeometry>
        </mxCell>
        <mxCell id="0Ep_V3U1J2-gXRXQqFik-715" value="" style="endArrow=none;html=1;strokeColor=#004C99;exitX=0.5;exitY=0;exitDx=0;exitDy=0;entryX=0.5;entryY=1;entryDx=0;entryDy=0;" edge="1" parent="1" source="0Ep_V3U1J2-gXRXQqFik-708">
          <mxGeometry width="50" height="50" relative="1" as="geometry">
            <mxPoint x="420" y="380" as="sourcePoint" />
            <mxPoint x="180" y="250" as="targetPoint" />
          </mxGeometry>
        </mxCell>
        <mxCell id="0Ep_V3U1J2-gXRXQqFik-716" value="" style="ellipse;whiteSpace=wrap;html=1;strokeWidth=1;flipH=0;flipV=1;strokeColor=#004C99;" vertex="1" parent="1">
          <mxGeometry x="45" y="300" width="20" height="20" as="geometry" />
        </mxCell>
        <mxCell id="0Ep_V3U1J2-gXRXQqFik-717" value="" style="endArrow=none;html=1;strokeColor=#004C99;entryX=0.5;entryY=1;entryDx=0;entryDy=0;exitX=0.5;exitY=0;exitDx=0;exitDy=0;" edge="1" parent="1" source="0Ep_V3U1J2-gXRXQqFik-716">
          <mxGeometry width="50" height="50" relative="1" as="geometry">
            <mxPoint x="370" y="330" as="sourcePoint" />
            <mxPoint x="30" y="250" as="targetPoint" />
          </mxGeometry>
        </mxCell>
        <mxCell id="0Ep_V3U1J2-gXRXQqFik-718" value="" style="endArrow=none;html=1;strokeColor=#004C99;exitX=0.5;exitY=0;exitDx=0;exitDy=0;entryX=0.5;entryY=1;entryDx=0;entryDy=0;" edge="1" parent="1" source="0Ep_V3U1J2-gXRXQqFik-716">
          <mxGeometry width="50" height="50" relative="1" as="geometry">
            <mxPoint x="370" y="330" as="sourcePoint" />
            <mxPoint x="55" y="250" as="targetPoint" />
          </mxGeometry>
        </mxCell>
        <mxCell id="0Ep_V3U1J2-gXRXQqFik-719" value="" style="endArrow=none;html=1;strokeColor=#004C99;exitX=0.5;exitY=0;exitDx=0;exitDy=0;" edge="1" parent="1" source="0Ep_V3U1J2-gXRXQqFik-716">
          <mxGeometry width="50" height="50" relative="1" as="geometry">
            <mxPoint x="380" y="340" as="sourcePoint" />
            <mxPoint x="80" y="260" as="targetPoint" />
          </mxGeometry>
        </mxCell>
        <mxCell id="0Ep_V3U1J2-gXRXQqFik-720" value="" style="endArrow=none;html=1;strokeColor=#004C99;exitX=0.5;exitY=0;exitDx=0;exitDy=0;entryX=0.5;entryY=1;entryDx=0;entryDy=0;" edge="1" parent="1" source="0Ep_V3U1J2-gXRXQqFik-716">
          <mxGeometry width="50" height="50" relative="1" as="geometry">
            <mxPoint x="390" y="350" as="sourcePoint" />
            <mxPoint x="105" y="250" as="targetPoint" />
          </mxGeometry>
        </mxCell>
        <mxCell id="0Ep_V3U1J2-gXRXQqFik-721" value="" style="endArrow=none;html=1;strokeColor=#004C99;exitX=0.5;exitY=0;exitDx=0;exitDy=0;entryX=0.5;entryY=1;entryDx=0;entryDy=0;" edge="1" parent="1" source="0Ep_V3U1J2-gXRXQqFik-716">
          <mxGeometry width="50" height="50" relative="1" as="geometry">
            <mxPoint x="10" y="290" as="sourcePoint" />
            <mxPoint x="130" y="250" as="targetPoint" />
          </mxGeometry>
        </mxCell>
        <mxCell id="0Ep_V3U1J2-gXRXQqFik-722" value="" style="endArrow=none;html=1;strokeColor=#004C99;exitX=0.5;exitY=0;exitDx=0;exitDy=0;entryX=0.5;entryY=1;entryDx=0;entryDy=0;" edge="1" parent="1" source="0Ep_V3U1J2-gXRXQqFik-716">
          <mxGeometry width="50" height="50" relative="1" as="geometry">
            <mxPoint x="410" y="370" as="sourcePoint" />
            <mxPoint x="155" y="250" as="targetPoint" />
          </mxGeometry>
        </mxCell>
        <mxCell id="0Ep_V3U1J2-gXRXQqFik-723" value="" style="endArrow=none;html=1;strokeColor=#004C99;exitX=0.5;exitY=0;exitDx=0;exitDy=0;entryX=0.5;entryY=1;entryDx=0;entryDy=0;" edge="1" parent="1" source="0Ep_V3U1J2-gXRXQqFik-716">
          <mxGeometry width="50" height="50" relative="1" as="geometry">
            <mxPoint x="420" y="380" as="sourcePoint" />
            <mxPoint x="180" y="250" as="targetPoint" />
          </mxGeometry>
        </mxCell>
        <mxCell id="0Ep_V3U1J2-gXRXQqFik-725" value="" style="endArrow=none;html=1;strokeColor=#004C99;entryX=0.5;entryY=1;entryDx=0;entryDy=0;exitX=0.5;exitY=0;exitDx=0;exitDy=0;" edge="1" parent="1" source="0Ep_V3U1J2-gXRXQqFik-716" target="0Ep_V3U1J2-gXRXQqFik-378">
          <mxGeometry width="50" height="50" relative="1" as="geometry">
            <mxPoint x="240" y="310" as="sourcePoint" />
            <mxPoint x="450" y="260" as="targetPoint" />
          </mxGeometry>
        </mxCell>
        <mxCell id="0Ep_V3U1J2-gXRXQqFik-726" value="" style="endArrow=none;html=1;strokeColor=#004C99;entryX=0.5;entryY=1;entryDx=0;entryDy=0;exitX=0.5;exitY=0;exitDx=0;exitDy=0;" edge="1" parent="1" source="0Ep_V3U1J2-gXRXQqFik-708" target="0Ep_V3U1J2-gXRXQqFik-378">
          <mxGeometry width="50" height="50" relative="1" as="geometry">
            <mxPoint x="250" y="320" as="sourcePoint" />
            <mxPoint x="460" y="270" as="targetPoint" />
          </mxGeometry>
        </mxCell>
        <mxCell id="0Ep_V3U1J2-gXRXQqFik-727" value="" style="endArrow=none;html=1;strokeColor=#004C99;entryX=0.5;entryY=1;entryDx=0;entryDy=0;exitX=0.5;exitY=0;exitDx=0;exitDy=0;" edge="1" parent="1" source="0Ep_V3U1J2-gXRXQqFik-700" target="0Ep_V3U1J2-gXRXQqFik-378">
          <mxGeometry width="50" height="50" relative="1" as="geometry">
            <mxPoint x="260" y="330" as="sourcePoint" />
            <mxPoint x="470" y="280" as="targetPoint" />
          </mxGeometry>
        </mxCell>
        <mxCell id="0Ep_V3U1J2-gXRXQqFik-728" value="" style="endArrow=none;html=1;strokeColor=#004C99;entryX=0.5;entryY=1;entryDx=0;entryDy=0;exitX=0.5;exitY=0;exitDx=0;exitDy=0;" edge="1" parent="1" source="0Ep_V3U1J2-gXRXQqFik-692" target="0Ep_V3U1J2-gXRXQqFik-378">
          <mxGeometry width="50" height="50" relative="1" as="geometry">
            <mxPoint x="270" y="340" as="sourcePoint" />
            <mxPoint x="480" y="290" as="targetPoint" />
          </mxGeometry>
        </mxCell>
        <mxCell id="0Ep_V3U1J2-gXRXQqFik-729" value="" style="endArrow=none;html=1;strokeColor=#004C99;entryX=0.5;entryY=1;entryDx=0;entryDy=0;exitX=0.5;exitY=0;exitDx=0;exitDy=0;" edge="1" parent="1" source="0Ep_V3U1J2-gXRXQqFik-684" target="0Ep_V3U1J2-gXRXQqFik-378">
          <mxGeometry width="50" height="50" relative="1" as="geometry">
            <mxPoint x="280" y="350" as="sourcePoint" />
            <mxPoint x="490" y="300" as="targetPoint" />
          </mxGeometry>
        </mxCell>
        <mxCell id="0Ep_V3U1J2-gXRXQqFik-730" value="" style="endArrow=none;html=1;strokeColor=#004C99;entryX=0.5;entryY=1;entryDx=0;entryDy=0;exitX=0.5;exitY=0;exitDx=0;exitDy=0;" edge="1" parent="1" source="0Ep_V3U1J2-gXRXQqFik-676" target="0Ep_V3U1J2-gXRXQqFik-378">
          <mxGeometry width="50" height="50" relative="1" as="geometry">
            <mxPoint x="290" y="360" as="sourcePoint" />
            <mxPoint x="500" y="310" as="targetPoint" />
          </mxGeometry>
        </mxCell>
        <mxCell id="0Ep_V3U1J2-gXRXQqFik-899" value="" style="ellipse;whiteSpace=wrap;html=1;strokeWidth=1;flipH=0;flipV=1;strokeColor=#004C99;" vertex="1" parent="1">
          <mxGeometry x="240" y="300" width="20" height="20" as="geometry" />
        </mxCell>
        <mxCell id="0Ep_V3U1J2-gXRXQqFik-900" value="cat" style="ellipse;whiteSpace=wrap;html=1;strokeWidth=1;flipH=0;flipV=1;strokeColor=#004C99;" vertex="1" parent="1">
          <mxGeometry x="315" y="370" width="20" height="20" as="geometry" />
        </mxCell>
        <mxCell id="0Ep_V3U1J2-gXRXQqFik-901" value="dog" style="ellipse;whiteSpace=wrap;html=1;strokeWidth=1;flipH=0;flipV=1;strokeColor=#004C99;" vertex="1" parent="1">
          <mxGeometry x="340" y="370" width="20" height="20" as="geometry" />
        </mxCell>
        <mxCell id="0Ep_V3U1J2-gXRXQqFik-902" value="" style="endArrow=none;html=1;entryX=0.5;entryY=1;entryDx=0;entryDy=0;exitX=0.5;exitY=0;exitDx=0;exitDy=0;strokeColor=#004C99;" edge="1" parent="1" source="0Ep_V3U1J2-gXRXQqFik-900" target="0Ep_V3U1J2-gXRXQqFik-899">
          <mxGeometry width="50" height="50" relative="1" as="geometry">
            <mxPoint x="590" y="600" as="sourcePoint" />
            <mxPoint x="640" y="550" as="targetPoint" />
          </mxGeometry>
        </mxCell>
        <mxCell id="0Ep_V3U1J2-gXRXQqFik-903" value="" style="endArrow=none;html=1;strokeColor=#004C99;exitX=0.5;exitY=1;exitDx=0;exitDy=0;entryX=0.5;entryY=0;entryDx=0;entryDy=0;" edge="1" parent="1" target="0Ep_V3U1J2-gXRXQqFik-900">
          <mxGeometry width="50" height="50" relative="1" as="geometry">
            <mxPoint x="275" y="320" as="sourcePoint" />
            <mxPoint x="500" y="460" as="targetPoint" />
          </mxGeometry>
        </mxCell>
        <mxCell id="0Ep_V3U1J2-gXRXQqFik-904" value="" style="endArrow=none;html=1;strokeColor=#004C99;exitX=0.5;exitY=0;exitDx=0;exitDy=0;entryX=0.5;entryY=1;entryDx=0;entryDy=0;" edge="1" parent="1" source="0Ep_V3U1J2-gXRXQqFik-900">
          <mxGeometry width="50" height="50" relative="1" as="geometry">
            <mxPoint x="350" y="410" as="sourcePoint" />
            <mxPoint x="350" y="320" as="targetPoint" />
          </mxGeometry>
        </mxCell>
        <mxCell id="0Ep_V3U1J2-gXRXQqFik-905" value="" style="endArrow=none;html=1;strokeColor=#004C99;exitX=0.5;exitY=0;exitDx=0;exitDy=0;entryX=0.5;entryY=1;entryDx=0;entryDy=0;" edge="1" parent="1" source="0Ep_V3U1J2-gXRXQqFik-900">
          <mxGeometry width="50" height="50" relative="1" as="geometry">
            <mxPoint x="385" y="390" as="sourcePoint" />
            <mxPoint x="325" y="320" as="targetPoint" />
          </mxGeometry>
        </mxCell>
        <mxCell id="0Ep_V3U1J2-gXRXQqFik-906" value="" style="endArrow=none;html=1;strokeColor=#004C99;exitX=0.5;exitY=0;exitDx=0;exitDy=0;entryX=0.5;entryY=1;entryDx=0;entryDy=0;" edge="1" parent="1" source="0Ep_V3U1J2-gXRXQqFik-900">
          <mxGeometry width="50" height="50" relative="1" as="geometry">
            <mxPoint x="375" y="405" as="sourcePoint" />
            <mxPoint x="375" y="320" as="targetPoint" />
          </mxGeometry>
        </mxCell>
        <mxCell id="0Ep_V3U1J2-gXRXQqFik-909" value="" style="endArrow=none;html=1;strokeColor=#004C99;exitX=0.5;exitY=0;exitDx=0;exitDy=0;entryX=0.5;entryY=1;entryDx=0;entryDy=0;" edge="1" parent="1" source="0Ep_V3U1J2-gXRXQqFik-900">
          <mxGeometry width="50" height="50" relative="1" as="geometry">
            <mxPoint x="300" y="510" as="sourcePoint" />
            <mxPoint x="300" y="320" as="targetPoint" />
          </mxGeometry>
        </mxCell>
        <mxCell id="0Ep_V3U1J2-gXRXQqFik-910" value="" style="endArrow=none;html=1;entryX=0.5;entryY=1;entryDx=0;entryDy=0;exitX=0.5;exitY=0;exitDx=0;exitDy=0;strokeColor=#004C99;startFill=1;fixDash=0;" edge="1" parent="1" source="0Ep_V3U1J2-gXRXQqFik-901" target="0Ep_V3U1J2-gXRXQqFik-899">
          <mxGeometry width="50" height="50" relative="1" as="geometry">
            <mxPoint x="375" y="460" as="sourcePoint" />
            <mxPoint x="300" y="410" as="targetPoint" />
          </mxGeometry>
        </mxCell>
        <mxCell id="0Ep_V3U1J2-gXRXQqFik-911" value="" style="endArrow=none;html=1;strokeColor=#004C99;exitX=0.5;exitY=1;exitDx=0;exitDy=0;startFill=1;fixDash=0;" edge="1" parent="1">
          <mxGeometry width="50" height="50" relative="1" as="geometry">
            <mxPoint x="275" y="320" as="sourcePoint" />
            <mxPoint x="350" y="370" as="targetPoint" />
          </mxGeometry>
        </mxCell>
        <mxCell id="0Ep_V3U1J2-gXRXQqFik-912" value="" style="endArrow=none;html=1;strokeColor=#004C99;exitX=0.5;exitY=0;exitDx=0;exitDy=0;entryX=0.5;entryY=1;entryDx=0;entryDy=0;startFill=1;fixDash=0;" edge="1" parent="1" source="0Ep_V3U1J2-gXRXQqFik-901">
          <mxGeometry width="50" height="50" relative="1" as="geometry">
            <mxPoint x="375" y="460" as="sourcePoint" />
            <mxPoint x="350" y="320" as="targetPoint" />
          </mxGeometry>
        </mxCell>
        <mxCell id="0Ep_V3U1J2-gXRXQqFik-913" value="" style="endArrow=none;html=1;strokeColor=#004C99;exitX=0.5;exitY=0;exitDx=0;exitDy=0;entryX=0.5;entryY=1;entryDx=0;entryDy=0;startFill=1;fixDash=0;" edge="1" parent="1" source="0Ep_V3U1J2-gXRXQqFik-901">
          <mxGeometry width="50" height="50" relative="1" as="geometry">
            <mxPoint x="375" y="460" as="sourcePoint" />
            <mxPoint x="325" y="320" as="targetPoint" />
          </mxGeometry>
        </mxCell>
        <mxCell id="0Ep_V3U1J2-gXRXQqFik-914" value="" style="endArrow=none;html=1;strokeColor=#004C99;exitX=0.5;exitY=0;exitDx=0;exitDy=0;entryX=0.5;entryY=1;entryDx=0;entryDy=0;startFill=1;fixDash=0;" edge="1" parent="1" source="0Ep_V3U1J2-gXRXQqFik-901">
          <mxGeometry width="50" height="50" relative="1" as="geometry">
            <mxPoint x="375" y="460" as="sourcePoint" />
            <mxPoint x="375" y="320" as="targetPoint" />
          </mxGeometry>
        </mxCell>
        <mxCell id="0Ep_V3U1J2-gXRXQqFik-917" value="" style="endArrow=none;html=1;strokeColor=#004C99;exitX=0.5;exitY=0;exitDx=0;exitDy=0;entryX=0.5;entryY=1;entryDx=0;entryDy=0;startFill=1;fixDash=0;" edge="1" parent="1" source="0Ep_V3U1J2-gXRXQqFik-901">
          <mxGeometry width="50" height="50" relative="1" as="geometry">
            <mxPoint x="375" y="460" as="sourcePoint" />
            <mxPoint x="300" y="320" as="targetPoint" />
          </mxGeometry>
        </mxCell>
        <mxCell id="0Ep_V3U1J2-gXRXQqFik-918" value="" style="ellipse;whiteSpace=wrap;html=1;strokeWidth=1;flipH=0;flipV=0;strokeColor=#004C99;" vertex="1" parent="1">
          <mxGeometry x="240" y="230" width="20" height="20" as="geometry" />
        </mxCell>
        <mxCell id="0Ep_V3U1J2-gXRXQqFik-919" value="" style="endArrow=none;html=1;strokeColor=#004C99;entryX=0.5;entryY=1;entryDx=0;entryDy=0;exitX=0.5;exitY=0;exitDx=0;exitDy=0;" edge="1" parent="1" source="0Ep_V3U1J2-gXRXQqFik-899" target="0Ep_V3U1J2-gXRXQqFik-918">
          <mxGeometry width="50" height="50" relative="1" as="geometry">
            <mxPoint x="590" y="330" as="sourcePoint" />
            <mxPoint x="640" y="280" as="targetPoint" />
          </mxGeometry>
        </mxCell>
        <mxCell id="0Ep_V3U1J2-gXRXQqFik-920" value="" style="ellipse;whiteSpace=wrap;html=1;strokeWidth=1;flipH=0;flipV=0;strokeColor=#004C99;" vertex="1" parent="1">
          <mxGeometry x="265" y="230" width="20" height="20" as="geometry" />
        </mxCell>
        <mxCell id="0Ep_V3U1J2-gXRXQqFik-921" value="" style="ellipse;whiteSpace=wrap;html=1;strokeWidth=1;flipH=0;flipV=0;strokeColor=#004C99;" vertex="1" parent="1">
          <mxGeometry x="290" y="230" width="20" height="20" as="geometry" />
        </mxCell>
        <mxCell id="0Ep_V3U1J2-gXRXQqFik-922" value="" style="ellipse;whiteSpace=wrap;html=1;strokeWidth=1;flipH=0;flipV=0;strokeColor=#004C99;" vertex="1" parent="1">
          <mxGeometry x="315" y="230" width="20" height="20" as="geometry" />
        </mxCell>
        <mxCell id="0Ep_V3U1J2-gXRXQqFik-923" value="" style="ellipse;whiteSpace=wrap;html=1;strokeWidth=1;flipH=0;flipV=0;strokeColor=#004C99;" vertex="1" parent="1">
          <mxGeometry x="340" y="230" width="20" height="20" as="geometry" />
        </mxCell>
        <mxCell id="0Ep_V3U1J2-gXRXQqFik-924" value="" style="ellipse;whiteSpace=wrap;html=1;strokeWidth=1;flipH=0;flipV=0;strokeColor=#004C99;" vertex="1" parent="1">
          <mxGeometry x="365" y="230" width="20" height="20" as="geometry" />
        </mxCell>
        <mxCell id="0Ep_V3U1J2-gXRXQqFik-925" value="" style="ellipse;whiteSpace=wrap;html=1;strokeWidth=1;flipH=0;flipV=0;dashed=1;dashPattern=1 1;strokeColor=#66B2FF;" vertex="1" parent="1">
          <mxGeometry x="390" y="230" width="20" height="20" as="geometry" />
        </mxCell>
        <mxCell id="0Ep_V3U1J2-gXRXQqFik-926" value="" style="endArrow=none;html=1;strokeColor=#004C99;exitX=0.5;exitY=0;exitDx=0;exitDy=0;entryX=0.5;entryY=1;entryDx=0;entryDy=0;" edge="1" parent="1" source="0Ep_V3U1J2-gXRXQqFik-899" target="0Ep_V3U1J2-gXRXQqFik-920">
          <mxGeometry width="50" height="50" relative="1" as="geometry">
            <mxPoint x="590" y="330" as="sourcePoint" />
            <mxPoint x="640" y="280" as="targetPoint" />
          </mxGeometry>
        </mxCell>
        <mxCell id="0Ep_V3U1J2-gXRXQqFik-927" value="" style="endArrow=none;html=1;strokeColor=#004C99;exitX=0.5;exitY=0;exitDx=0;exitDy=0;entryX=0.5;entryY=1;entryDx=0;entryDy=0;" edge="1" parent="1" source="0Ep_V3U1J2-gXRXQqFik-899" target="0Ep_V3U1J2-gXRXQqFik-921">
          <mxGeometry width="50" height="50" relative="1" as="geometry">
            <mxPoint x="600" y="340" as="sourcePoint" />
            <mxPoint x="650" y="290" as="targetPoint" />
          </mxGeometry>
        </mxCell>
        <mxCell id="0Ep_V3U1J2-gXRXQqFik-928" value="" style="endArrow=none;html=1;strokeColor=#004C99;exitX=0.5;exitY=0;exitDx=0;exitDy=0;entryX=0.5;entryY=1;entryDx=0;entryDy=0;" edge="1" parent="1" source="0Ep_V3U1J2-gXRXQqFik-899" target="0Ep_V3U1J2-gXRXQqFik-922">
          <mxGeometry width="50" height="50" relative="1" as="geometry">
            <mxPoint x="610" y="350" as="sourcePoint" />
            <mxPoint x="660" y="300" as="targetPoint" />
          </mxGeometry>
        </mxCell>
        <mxCell id="0Ep_V3U1J2-gXRXQqFik-929" value="" style="endArrow=none;html=1;strokeColor=#004C99;exitX=0.5;exitY=0;exitDx=0;exitDy=0;entryX=0.5;entryY=1;entryDx=0;entryDy=0;" edge="1" parent="1" source="0Ep_V3U1J2-gXRXQqFik-899" target="0Ep_V3U1J2-gXRXQqFik-923">
          <mxGeometry width="50" height="50" relative="1" as="geometry">
            <mxPoint x="230" y="290" as="sourcePoint" />
            <mxPoint x="670" y="310" as="targetPoint" />
          </mxGeometry>
        </mxCell>
        <mxCell id="0Ep_V3U1J2-gXRXQqFik-930" value="" style="endArrow=none;html=1;strokeColor=#004C99;exitX=0.5;exitY=0;exitDx=0;exitDy=0;entryX=0.5;entryY=1;entryDx=0;entryDy=0;" edge="1" parent="1" source="0Ep_V3U1J2-gXRXQqFik-899" target="0Ep_V3U1J2-gXRXQqFik-924">
          <mxGeometry width="50" height="50" relative="1" as="geometry">
            <mxPoint x="630" y="370" as="sourcePoint" />
            <mxPoint x="680" y="320" as="targetPoint" />
          </mxGeometry>
        </mxCell>
        <mxCell id="0Ep_V3U1J2-gXRXQqFik-932" value="" style="ellipse;whiteSpace=wrap;html=1;strokeWidth=1;flipH=0;flipV=1;strokeColor=#004C99;" vertex="1" parent="1">
          <mxGeometry x="240" y="300" width="20" height="20" as="geometry" />
        </mxCell>
        <mxCell id="0Ep_V3U1J2-gXRXQqFik-933" value="" style="ellipse;whiteSpace=wrap;html=1;strokeWidth=1;flipH=0;flipV=0;strokeColor=#004C99;" vertex="1" parent="1">
          <mxGeometry x="240" y="230" width="20" height="20" as="geometry" />
        </mxCell>
        <mxCell id="0Ep_V3U1J2-gXRXQqFik-934" value="" style="endArrow=none;html=1;strokeColor=#004C99;entryX=0.5;entryY=1;entryDx=0;entryDy=0;exitX=0.5;exitY=0;exitDx=0;exitDy=0;" edge="1" parent="1" source="0Ep_V3U1J2-gXRXQqFik-932" target="0Ep_V3U1J2-gXRXQqFik-933">
          <mxGeometry width="50" height="50" relative="1" as="geometry">
            <mxPoint x="590" y="330" as="sourcePoint" />
            <mxPoint x="640" y="280" as="targetPoint" />
          </mxGeometry>
        </mxCell>
        <mxCell id="0Ep_V3U1J2-gXRXQqFik-935" value="" style="ellipse;whiteSpace=wrap;html=1;strokeWidth=1;flipH=0;flipV=0;strokeColor=#004C99;" vertex="1" parent="1">
          <mxGeometry x="265" y="230" width="20" height="20" as="geometry" />
        </mxCell>
        <mxCell id="0Ep_V3U1J2-gXRXQqFik-936" value="" style="ellipse;whiteSpace=wrap;html=1;strokeWidth=1;flipH=0;flipV=0;strokeColor=#004C99;" vertex="1" parent="1">
          <mxGeometry x="290" y="230" width="20" height="20" as="geometry" />
        </mxCell>
        <mxCell id="0Ep_V3U1J2-gXRXQqFik-937" value="" style="ellipse;whiteSpace=wrap;html=1;strokeWidth=1;flipH=0;flipV=0;strokeColor=#004C99;" vertex="1" parent="1">
          <mxGeometry x="315" y="230" width="20" height="20" as="geometry" />
        </mxCell>
        <mxCell id="0Ep_V3U1J2-gXRXQqFik-938" value="" style="ellipse;whiteSpace=wrap;html=1;strokeWidth=1;flipH=0;flipV=0;strokeColor=#004C99;" vertex="1" parent="1">
          <mxGeometry x="340" y="230" width="20" height="20" as="geometry" />
        </mxCell>
        <mxCell id="0Ep_V3U1J2-gXRXQqFik-939" value="" style="ellipse;whiteSpace=wrap;html=1;strokeWidth=1;flipH=0;flipV=0;strokeColor=#004C99;" vertex="1" parent="1">
          <mxGeometry x="365" y="230" width="20" height="20" as="geometry" />
        </mxCell>
        <mxCell id="0Ep_V3U1J2-gXRXQqFik-940" value="" style="ellipse;whiteSpace=wrap;html=1;strokeWidth=1;flipH=0;flipV=0;dashed=1;dashPattern=1 1;strokeColor=#66B2FF;" vertex="1" parent="1">
          <mxGeometry x="415" y="230" width="20" height="20" as="geometry" />
        </mxCell>
        <mxCell id="0Ep_V3U1J2-gXRXQqFik-942" value="" style="endArrow=none;html=1;strokeColor=#004C99;exitX=0.5;exitY=0;exitDx=0;exitDy=0;entryX=0.5;entryY=1;entryDx=0;entryDy=0;" edge="1" parent="1" source="0Ep_V3U1J2-gXRXQqFik-932" target="0Ep_V3U1J2-gXRXQqFik-936">
          <mxGeometry width="50" height="50" relative="1" as="geometry">
            <mxPoint x="600" y="340" as="sourcePoint" />
            <mxPoint x="650" y="290" as="targetPoint" />
          </mxGeometry>
        </mxCell>
        <mxCell id="0Ep_V3U1J2-gXRXQqFik-943" value="" style="endArrow=none;html=1;strokeColor=#004C99;exitX=0.5;exitY=0;exitDx=0;exitDy=0;entryX=0.5;entryY=1;entryDx=0;entryDy=0;" edge="1" parent="1" source="0Ep_V3U1J2-gXRXQqFik-932" target="0Ep_V3U1J2-gXRXQqFik-937">
          <mxGeometry width="50" height="50" relative="1" as="geometry">
            <mxPoint x="610" y="350" as="sourcePoint" />
            <mxPoint x="660" y="300" as="targetPoint" />
          </mxGeometry>
        </mxCell>
        <mxCell id="0Ep_V3U1J2-gXRXQqFik-944" value="" style="endArrow=none;html=1;strokeColor=#004C99;exitX=0.5;exitY=0;exitDx=0;exitDy=0;entryX=0.5;entryY=1;entryDx=0;entryDy=0;" edge="1" parent="1" source="0Ep_V3U1J2-gXRXQqFik-932" target="0Ep_V3U1J2-gXRXQqFik-938">
          <mxGeometry width="50" height="50" relative="1" as="geometry">
            <mxPoint x="230" y="290" as="sourcePoint" />
            <mxPoint x="670" y="310" as="targetPoint" />
          </mxGeometry>
        </mxCell>
        <mxCell id="0Ep_V3U1J2-gXRXQqFik-945" value="" style="endArrow=none;html=1;strokeColor=#004C99;exitX=0.5;exitY=0;exitDx=0;exitDy=0;entryX=0.5;entryY=1;entryDx=0;entryDy=0;" edge="1" parent="1" source="0Ep_V3U1J2-gXRXQqFik-932" target="0Ep_V3U1J2-gXRXQqFik-939">
          <mxGeometry width="50" height="50" relative="1" as="geometry">
            <mxPoint x="630" y="370" as="sourcePoint" />
            <mxPoint x="680" y="320" as="targetPoint" />
          </mxGeometry>
        </mxCell>
        <mxCell id="0Ep_V3U1J2-gXRXQqFik-947" value="" style="ellipse;whiteSpace=wrap;html=1;strokeWidth=1;flipH=0;flipV=1;strokeColor=#004C99;" vertex="1" parent="1">
          <mxGeometry x="240" y="300" width="20" height="20" as="geometry" />
        </mxCell>
        <mxCell id="0Ep_V3U1J2-gXRXQqFik-948" value="" style="endArrow=none;html=1;strokeColor=#004C99;entryX=0.5;entryY=1;entryDx=0;entryDy=0;exitX=0.5;exitY=0;exitDx=0;exitDy=0;" edge="1" parent="1" source="0Ep_V3U1J2-gXRXQqFik-947">
          <mxGeometry width="50" height="50" relative="1" as="geometry">
            <mxPoint x="590" y="330" as="sourcePoint" />
            <mxPoint x="250" y="250" as="targetPoint" />
          </mxGeometry>
        </mxCell>
        <mxCell id="0Ep_V3U1J2-gXRXQqFik-950" value="" style="endArrow=none;html=1;strokeColor=#004C99;exitX=0.5;exitY=0;exitDx=0;exitDy=0;entryX=0.5;entryY=1;entryDx=0;entryDy=0;" edge="1" parent="1" source="0Ep_V3U1J2-gXRXQqFik-947">
          <mxGeometry width="50" height="50" relative="1" as="geometry">
            <mxPoint x="600" y="340" as="sourcePoint" />
            <mxPoint x="300" y="250" as="targetPoint" />
          </mxGeometry>
        </mxCell>
        <mxCell id="0Ep_V3U1J2-gXRXQqFik-951" value="" style="endArrow=none;html=1;strokeColor=#004C99;exitX=0.5;exitY=0;exitDx=0;exitDy=0;entryX=0.5;entryY=1;entryDx=0;entryDy=0;" edge="1" parent="1" source="0Ep_V3U1J2-gXRXQqFik-947">
          <mxGeometry width="50" height="50" relative="1" as="geometry">
            <mxPoint x="610" y="350" as="sourcePoint" />
            <mxPoint x="325" y="250" as="targetPoint" />
          </mxGeometry>
        </mxCell>
        <mxCell id="0Ep_V3U1J2-gXRXQqFik-952" value="" style="endArrow=none;html=1;strokeColor=#004C99;exitX=0.5;exitY=0;exitDx=0;exitDy=0;entryX=0.5;entryY=1;entryDx=0;entryDy=0;" edge="1" parent="1" source="0Ep_V3U1J2-gXRXQqFik-947">
          <mxGeometry width="50" height="50" relative="1" as="geometry">
            <mxPoint x="230" y="290" as="sourcePoint" />
            <mxPoint x="350" y="250" as="targetPoint" />
          </mxGeometry>
        </mxCell>
        <mxCell id="0Ep_V3U1J2-gXRXQqFik-953" value="" style="endArrow=none;html=1;strokeColor=#004C99;exitX=0.5;exitY=0;exitDx=0;exitDy=0;entryX=0.5;entryY=1;entryDx=0;entryDy=0;" edge="1" parent="1" source="0Ep_V3U1J2-gXRXQqFik-947">
          <mxGeometry width="50" height="50" relative="1" as="geometry">
            <mxPoint x="630" y="370" as="sourcePoint" />
            <mxPoint x="375" y="250" as="targetPoint" />
          </mxGeometry>
        </mxCell>
        <mxCell id="0Ep_V3U1J2-gXRXQqFik-955" value="" style="ellipse;whiteSpace=wrap;html=1;strokeWidth=1;flipH=0;flipV=1;strokeColor=#004C99;" vertex="1" parent="1">
          <mxGeometry x="240" y="300" width="20" height="20" as="geometry" />
        </mxCell>
        <mxCell id="0Ep_V3U1J2-gXRXQqFik-956" value="" style="endArrow=none;html=1;strokeColor=#004C99;entryX=0.5;entryY=1;entryDx=0;entryDy=0;exitX=0.5;exitY=0;exitDx=0;exitDy=0;" edge="1" parent="1" source="0Ep_V3U1J2-gXRXQqFik-955">
          <mxGeometry width="50" height="50" relative="1" as="geometry">
            <mxPoint x="590" y="330" as="sourcePoint" />
            <mxPoint x="250" y="250" as="targetPoint" />
          </mxGeometry>
        </mxCell>
        <mxCell id="0Ep_V3U1J2-gXRXQqFik-958" value="" style="endArrow=none;html=1;strokeColor=#004C99;exitX=0.5;exitY=0;exitDx=0;exitDy=0;entryX=0.5;entryY=1;entryDx=0;entryDy=0;" edge="1" parent="1" source="0Ep_V3U1J2-gXRXQqFik-955">
          <mxGeometry width="50" height="50" relative="1" as="geometry">
            <mxPoint x="600" y="340" as="sourcePoint" />
            <mxPoint x="300" y="250" as="targetPoint" />
          </mxGeometry>
        </mxCell>
        <mxCell id="0Ep_V3U1J2-gXRXQqFik-959" value="" style="endArrow=none;html=1;strokeColor=#004C99;exitX=0.5;exitY=0;exitDx=0;exitDy=0;entryX=0.5;entryY=1;entryDx=0;entryDy=0;" edge="1" parent="1" source="0Ep_V3U1J2-gXRXQqFik-955">
          <mxGeometry width="50" height="50" relative="1" as="geometry">
            <mxPoint x="610" y="350" as="sourcePoint" />
            <mxPoint x="325" y="250" as="targetPoint" />
          </mxGeometry>
        </mxCell>
        <mxCell id="0Ep_V3U1J2-gXRXQqFik-960" value="" style="endArrow=none;html=1;strokeColor=#004C99;exitX=0.5;exitY=0;exitDx=0;exitDy=0;entryX=0.5;entryY=1;entryDx=0;entryDy=0;" edge="1" parent="1" source="0Ep_V3U1J2-gXRXQqFik-955">
          <mxGeometry width="50" height="50" relative="1" as="geometry">
            <mxPoint x="230" y="290" as="sourcePoint" />
            <mxPoint x="350" y="250" as="targetPoint" />
          </mxGeometry>
        </mxCell>
        <mxCell id="0Ep_V3U1J2-gXRXQqFik-961" value="" style="endArrow=none;html=1;strokeColor=#004C99;exitX=0.5;exitY=0;exitDx=0;exitDy=0;entryX=0.5;entryY=1;entryDx=0;entryDy=0;" edge="1" parent="1" source="0Ep_V3U1J2-gXRXQqFik-955">
          <mxGeometry width="50" height="50" relative="1" as="geometry">
            <mxPoint x="630" y="370" as="sourcePoint" />
            <mxPoint x="375" y="250" as="targetPoint" />
          </mxGeometry>
        </mxCell>
        <mxCell id="0Ep_V3U1J2-gXRXQqFik-963" value="" style="ellipse;whiteSpace=wrap;html=1;strokeWidth=1;flipH=0;flipV=1;strokeColor=#004C99;" vertex="1" parent="1">
          <mxGeometry x="240" y="300" width="20" height="20" as="geometry" />
        </mxCell>
        <mxCell id="0Ep_V3U1J2-gXRXQqFik-966" value="" style="endArrow=none;html=1;strokeColor=#004C99;exitX=0.5;exitY=0;exitDx=0;exitDy=0;entryX=0.5;entryY=1;entryDx=0;entryDy=0;" edge="1" parent="1" source="0Ep_V3U1J2-gXRXQqFik-963">
          <mxGeometry width="50" height="50" relative="1" as="geometry">
            <mxPoint x="600" y="340" as="sourcePoint" />
            <mxPoint x="300" y="250" as="targetPoint" />
          </mxGeometry>
        </mxCell>
        <mxCell id="0Ep_V3U1J2-gXRXQqFik-967" value="" style="endArrow=none;html=1;strokeColor=#004C99;exitX=0.5;exitY=0;exitDx=0;exitDy=0;entryX=0.5;entryY=1;entryDx=0;entryDy=0;" edge="1" parent="1" source="0Ep_V3U1J2-gXRXQqFik-963">
          <mxGeometry width="50" height="50" relative="1" as="geometry">
            <mxPoint x="610" y="350" as="sourcePoint" />
            <mxPoint x="325" y="250" as="targetPoint" />
          </mxGeometry>
        </mxCell>
        <mxCell id="0Ep_V3U1J2-gXRXQqFik-968" value="" style="endArrow=none;html=1;strokeColor=#004C99;exitX=0.5;exitY=0;exitDx=0;exitDy=0;entryX=0.5;entryY=1;entryDx=0;entryDy=0;" edge="1" parent="1" source="0Ep_V3U1J2-gXRXQqFik-963">
          <mxGeometry width="50" height="50" relative="1" as="geometry">
            <mxPoint x="230" y="290" as="sourcePoint" />
            <mxPoint x="350" y="250" as="targetPoint" />
          </mxGeometry>
        </mxCell>
        <mxCell id="0Ep_V3U1J2-gXRXQqFik-969" value="" style="endArrow=none;html=1;strokeColor=#004C99;exitX=0.5;exitY=0;exitDx=0;exitDy=0;entryX=0.5;entryY=1;entryDx=0;entryDy=0;" edge="1" parent="1" source="0Ep_V3U1J2-gXRXQqFik-963">
          <mxGeometry width="50" height="50" relative="1" as="geometry">
            <mxPoint x="630" y="370" as="sourcePoint" />
            <mxPoint x="375" y="250" as="targetPoint" />
          </mxGeometry>
        </mxCell>
        <mxCell id="0Ep_V3U1J2-gXRXQqFik-971" value="" style="ellipse;whiteSpace=wrap;html=1;strokeWidth=1;flipH=0;flipV=1;strokeColor=#004C99;" vertex="1" parent="1">
          <mxGeometry x="240" y="300" width="20" height="20" as="geometry" />
        </mxCell>
        <mxCell id="0Ep_V3U1J2-gXRXQqFik-974" value="" style="endArrow=none;html=1;strokeColor=#004C99;exitX=0.5;exitY=0;exitDx=0;exitDy=0;entryX=0.5;entryY=1;entryDx=0;entryDy=0;" edge="1" parent="1" source="0Ep_V3U1J2-gXRXQqFik-971">
          <mxGeometry width="50" height="50" relative="1" as="geometry">
            <mxPoint x="600" y="340" as="sourcePoint" />
            <mxPoint x="300" y="250" as="targetPoint" />
          </mxGeometry>
        </mxCell>
        <mxCell id="0Ep_V3U1J2-gXRXQqFik-975" value="" style="endArrow=none;html=1;strokeColor=#004C99;exitX=0.5;exitY=0;exitDx=0;exitDy=0;entryX=0.5;entryY=1;entryDx=0;entryDy=0;" edge="1" parent="1" source="0Ep_V3U1J2-gXRXQqFik-971">
          <mxGeometry width="50" height="50" relative="1" as="geometry">
            <mxPoint x="610" y="350" as="sourcePoint" />
            <mxPoint x="325" y="250" as="targetPoint" />
          </mxGeometry>
        </mxCell>
        <mxCell id="0Ep_V3U1J2-gXRXQqFik-976" value="" style="endArrow=none;html=1;strokeColor=#004C99;exitX=0.5;exitY=0;exitDx=0;exitDy=0;entryX=0.5;entryY=1;entryDx=0;entryDy=0;" edge="1" parent="1" source="0Ep_V3U1J2-gXRXQqFik-971">
          <mxGeometry width="50" height="50" relative="1" as="geometry">
            <mxPoint x="230" y="290" as="sourcePoint" />
            <mxPoint x="350" y="250" as="targetPoint" />
          </mxGeometry>
        </mxCell>
        <mxCell id="0Ep_V3U1J2-gXRXQqFik-977" value="" style="endArrow=none;html=1;strokeColor=#004C99;exitX=0.5;exitY=0;exitDx=0;exitDy=0;entryX=0.5;entryY=1;entryDx=0;entryDy=0;" edge="1" parent="1" source="0Ep_V3U1J2-gXRXQqFik-971">
          <mxGeometry width="50" height="50" relative="1" as="geometry">
            <mxPoint x="630" y="370" as="sourcePoint" />
            <mxPoint x="375" y="250" as="targetPoint" />
          </mxGeometry>
        </mxCell>
        <mxCell id="0Ep_V3U1J2-gXRXQqFik-979" value="" style="ellipse;whiteSpace=wrap;html=1;strokeWidth=1;flipH=0;flipV=1;strokeColor=#004C99;" vertex="1" parent="1">
          <mxGeometry x="240" y="300" width="20" height="20" as="geometry" />
        </mxCell>
        <mxCell id="0Ep_V3U1J2-gXRXQqFik-982" value="" style="endArrow=none;html=1;strokeColor=#004C99;exitX=0.5;exitY=0;exitDx=0;exitDy=0;entryX=0.5;entryY=1;entryDx=0;entryDy=0;" edge="1" parent="1" source="0Ep_V3U1J2-gXRXQqFik-979">
          <mxGeometry width="50" height="50" relative="1" as="geometry">
            <mxPoint x="600" y="340" as="sourcePoint" />
            <mxPoint x="300" y="250" as="targetPoint" />
          </mxGeometry>
        </mxCell>
        <mxCell id="0Ep_V3U1J2-gXRXQqFik-983" value="" style="endArrow=none;html=1;strokeColor=#004C99;exitX=0.5;exitY=0;exitDx=0;exitDy=0;entryX=0.5;entryY=1;entryDx=0;entryDy=0;" edge="1" parent="1" source="0Ep_V3U1J2-gXRXQqFik-979">
          <mxGeometry width="50" height="50" relative="1" as="geometry">
            <mxPoint x="610" y="350" as="sourcePoint" />
            <mxPoint x="325" y="250" as="targetPoint" />
          </mxGeometry>
        </mxCell>
        <mxCell id="0Ep_V3U1J2-gXRXQqFik-984" value="" style="endArrow=none;html=1;strokeColor=#004C99;exitX=0.5;exitY=0;exitDx=0;exitDy=0;entryX=0.5;entryY=1;entryDx=0;entryDy=0;" edge="1" parent="1" source="0Ep_V3U1J2-gXRXQqFik-979">
          <mxGeometry width="50" height="50" relative="1" as="geometry">
            <mxPoint x="230" y="290" as="sourcePoint" />
            <mxPoint x="350" y="250" as="targetPoint" />
          </mxGeometry>
        </mxCell>
        <mxCell id="0Ep_V3U1J2-gXRXQqFik-985" value="" style="endArrow=none;html=1;strokeColor=#004C99;exitX=0.5;exitY=0;exitDx=0;exitDy=0;entryX=0.5;entryY=1;entryDx=0;entryDy=0;" edge="1" parent="1" source="0Ep_V3U1J2-gXRXQqFik-979">
          <mxGeometry width="50" height="50" relative="1" as="geometry">
            <mxPoint x="630" y="370" as="sourcePoint" />
            <mxPoint x="375" y="250" as="targetPoint" />
          </mxGeometry>
        </mxCell>
        <mxCell id="0Ep_V3U1J2-gXRXQqFik-987" value="" style="ellipse;whiteSpace=wrap;html=1;strokeWidth=1;flipH=0;flipV=1;strokeColor=#004C99;" vertex="1" parent="1">
          <mxGeometry x="240" y="300" width="20" height="20" as="geometry" />
        </mxCell>
        <mxCell id="0Ep_V3U1J2-gXRXQqFik-991" value="" style="endArrow=none;html=1;strokeColor=#004C99;exitX=0.5;exitY=0;exitDx=0;exitDy=0;entryX=0.5;entryY=1;entryDx=0;entryDy=0;" edge="1" parent="1" source="0Ep_V3U1J2-gXRXQqFik-987">
          <mxGeometry width="50" height="50" relative="1" as="geometry">
            <mxPoint x="610" y="350" as="sourcePoint" />
            <mxPoint x="325" y="250" as="targetPoint" />
          </mxGeometry>
        </mxCell>
        <mxCell id="0Ep_V3U1J2-gXRXQqFik-992" value="" style="endArrow=none;html=1;strokeColor=#004C99;exitX=0.5;exitY=0;exitDx=0;exitDy=0;entryX=0.5;entryY=1;entryDx=0;entryDy=0;" edge="1" parent="1" source="0Ep_V3U1J2-gXRXQqFik-987">
          <mxGeometry width="50" height="50" relative="1" as="geometry">
            <mxPoint x="230" y="290" as="sourcePoint" />
            <mxPoint x="350" y="250" as="targetPoint" />
          </mxGeometry>
        </mxCell>
        <mxCell id="0Ep_V3U1J2-gXRXQqFik-993" value="" style="endArrow=none;html=1;strokeColor=#004C99;exitX=0.5;exitY=0;exitDx=0;exitDy=0;entryX=0.5;entryY=1;entryDx=0;entryDy=0;" edge="1" parent="1" source="0Ep_V3U1J2-gXRXQqFik-987">
          <mxGeometry width="50" height="50" relative="1" as="geometry">
            <mxPoint x="630" y="370" as="sourcePoint" />
            <mxPoint x="375" y="250" as="targetPoint" />
          </mxGeometry>
        </mxCell>
        <mxCell id="0Ep_V3U1J2-gXRXQqFik-995" value="" style="ellipse;whiteSpace=wrap;html=1;strokeWidth=1;flipH=0;flipV=1;strokeColor=#004C99;" vertex="1" parent="1">
          <mxGeometry x="240" y="300" width="20" height="20" as="geometry" />
        </mxCell>
        <mxCell id="0Ep_V3U1J2-gXRXQqFik-999" value="" style="endArrow=none;html=1;strokeColor=#004C99;exitX=0.5;exitY=0;exitDx=0;exitDy=0;entryX=0.5;entryY=1;entryDx=0;entryDy=0;" edge="1" parent="1" source="0Ep_V3U1J2-gXRXQqFik-995">
          <mxGeometry width="50" height="50" relative="1" as="geometry">
            <mxPoint x="610" y="350" as="sourcePoint" />
            <mxPoint x="325" y="250" as="targetPoint" />
          </mxGeometry>
        </mxCell>
        <mxCell id="0Ep_V3U1J2-gXRXQqFik-1000" value="" style="endArrow=none;html=1;strokeColor=#004C99;exitX=0.5;exitY=0;exitDx=0;exitDy=0;entryX=0.5;entryY=1;entryDx=0;entryDy=0;" edge="1" parent="1" source="0Ep_V3U1J2-gXRXQqFik-995">
          <mxGeometry width="50" height="50" relative="1" as="geometry">
            <mxPoint x="230" y="290" as="sourcePoint" />
            <mxPoint x="350" y="250" as="targetPoint" />
          </mxGeometry>
        </mxCell>
        <mxCell id="0Ep_V3U1J2-gXRXQqFik-1001" value="" style="endArrow=none;html=1;strokeColor=#004C99;exitX=0.5;exitY=0;exitDx=0;exitDy=0;entryX=0.5;entryY=1;entryDx=0;entryDy=0;" edge="1" parent="1" source="0Ep_V3U1J2-gXRXQqFik-995">
          <mxGeometry width="50" height="50" relative="1" as="geometry">
            <mxPoint x="630" y="370" as="sourcePoint" />
            <mxPoint x="375" y="250" as="targetPoint" />
          </mxGeometry>
        </mxCell>
        <mxCell id="0Ep_V3U1J2-gXRXQqFik-1003" value="" style="ellipse;whiteSpace=wrap;html=1;strokeWidth=1;flipH=0;flipV=1;dashed=1;dashPattern=1 1;strokeColor=#66B2FF;" vertex="1" parent="1">
          <mxGeometry x="415" y="300" width="20" height="20" as="geometry" />
        </mxCell>
        <mxCell id="0Ep_V3U1J2-gXRXQqFik-1011" value="" style="ellipse;whiteSpace=wrap;html=1;strokeWidth=1;flipH=0;flipV=1;dashed=1;dashPattern=1 1;strokeColor=#66B2FF;" vertex="1" parent="1">
          <mxGeometry x="390" y="300" width="20" height="20" as="geometry" />
        </mxCell>
        <mxCell id="0Ep_V3U1J2-gXRXQqFik-1019" value="" style="ellipse;whiteSpace=wrap;html=1;strokeWidth=1;flipH=0;flipV=1;strokeColor=#004C99;" vertex="1" parent="1">
          <mxGeometry x="365" y="300" width="20" height="20" as="geometry" />
        </mxCell>
        <mxCell id="0Ep_V3U1J2-gXRXQqFik-1020" value="" style="endArrow=none;html=1;strokeColor=#004C99;entryX=0.5;entryY=1;entryDx=0;entryDy=0;exitX=0.5;exitY=0;exitDx=0;exitDy=0;" edge="1" parent="1" source="0Ep_V3U1J2-gXRXQqFik-1019">
          <mxGeometry width="50" height="50" relative="1" as="geometry">
            <mxPoint x="590" y="330" as="sourcePoint" />
            <mxPoint x="250" y="250" as="targetPoint" />
          </mxGeometry>
        </mxCell>
        <mxCell id="0Ep_V3U1J2-gXRXQqFik-1021" value="" style="endArrow=none;html=1;strokeColor=#004C99;exitX=0.5;exitY=0;exitDx=0;exitDy=0;entryX=0.5;entryY=1;entryDx=0;entryDy=0;" edge="1" parent="1" source="0Ep_V3U1J2-gXRXQqFik-1019">
          <mxGeometry width="50" height="50" relative="1" as="geometry">
            <mxPoint x="590" y="330" as="sourcePoint" />
            <mxPoint x="275" y="250" as="targetPoint" />
          </mxGeometry>
        </mxCell>
        <mxCell id="0Ep_V3U1J2-gXRXQqFik-1022" value="" style="endArrow=none;html=1;strokeColor=#004C99;exitX=0.5;exitY=0;exitDx=0;exitDy=0;entryX=0.5;entryY=1;entryDx=0;entryDy=0;" edge="1" parent="1" source="0Ep_V3U1J2-gXRXQqFik-1019">
          <mxGeometry width="50" height="50" relative="1" as="geometry">
            <mxPoint x="600" y="340" as="sourcePoint" />
            <mxPoint x="300" y="250" as="targetPoint" />
          </mxGeometry>
        </mxCell>
        <mxCell id="0Ep_V3U1J2-gXRXQqFik-1023" value="" style="endArrow=none;html=1;strokeColor=#004C99;exitX=0.5;exitY=0;exitDx=0;exitDy=0;entryX=0.5;entryY=1;entryDx=0;entryDy=0;" edge="1" parent="1" source="0Ep_V3U1J2-gXRXQqFik-1019">
          <mxGeometry width="50" height="50" relative="1" as="geometry">
            <mxPoint x="610" y="350" as="sourcePoint" />
            <mxPoint x="325" y="250" as="targetPoint" />
          </mxGeometry>
        </mxCell>
        <mxCell id="0Ep_V3U1J2-gXRXQqFik-1024" value="" style="endArrow=none;html=1;strokeColor=#004C99;exitX=0.5;exitY=0;exitDx=0;exitDy=0;entryX=0.5;entryY=1;entryDx=0;entryDy=0;" edge="1" parent="1" source="0Ep_V3U1J2-gXRXQqFik-1019">
          <mxGeometry width="50" height="50" relative="1" as="geometry">
            <mxPoint x="230" y="290" as="sourcePoint" />
            <mxPoint x="350" y="250" as="targetPoint" />
          </mxGeometry>
        </mxCell>
        <mxCell id="0Ep_V3U1J2-gXRXQqFik-1025" value="" style="endArrow=none;html=1;strokeColor=#004C99;exitX=0.5;exitY=0;exitDx=0;exitDy=0;entryX=0.5;entryY=1;entryDx=0;entryDy=0;" edge="1" parent="1" source="0Ep_V3U1J2-gXRXQqFik-1019">
          <mxGeometry width="50" height="50" relative="1" as="geometry">
            <mxPoint x="630" y="370" as="sourcePoint" />
            <mxPoint x="375" y="250" as="targetPoint" />
          </mxGeometry>
        </mxCell>
        <mxCell id="0Ep_V3U1J2-gXRXQqFik-1027" value="" style="ellipse;whiteSpace=wrap;html=1;strokeWidth=1;flipH=0;flipV=1;strokeColor=#004C99;" vertex="1" parent="1">
          <mxGeometry x="340" y="300" width="20" height="20" as="geometry" />
        </mxCell>
        <mxCell id="0Ep_V3U1J2-gXRXQqFik-1028" value="" style="endArrow=none;html=1;strokeColor=#004C99;entryX=0.5;entryY=1;entryDx=0;entryDy=0;exitX=0.5;exitY=0;exitDx=0;exitDy=0;" edge="1" parent="1" source="0Ep_V3U1J2-gXRXQqFik-1027">
          <mxGeometry width="50" height="50" relative="1" as="geometry">
            <mxPoint x="590" y="330" as="sourcePoint" />
            <mxPoint x="250" y="250" as="targetPoint" />
          </mxGeometry>
        </mxCell>
        <mxCell id="0Ep_V3U1J2-gXRXQqFik-1029" value="" style="endArrow=none;html=1;strokeColor=#004C99;exitX=0.5;exitY=0;exitDx=0;exitDy=0;entryX=0.5;entryY=1;entryDx=0;entryDy=0;" edge="1" parent="1" source="0Ep_V3U1J2-gXRXQqFik-1027">
          <mxGeometry width="50" height="50" relative="1" as="geometry">
            <mxPoint x="590" y="330" as="sourcePoint" />
            <mxPoint x="275" y="250" as="targetPoint" />
          </mxGeometry>
        </mxCell>
        <mxCell id="0Ep_V3U1J2-gXRXQqFik-1030" value="" style="endArrow=none;html=1;strokeColor=#004C99;exitX=0.5;exitY=0;exitDx=0;exitDy=0;entryX=0.5;entryY=1;entryDx=0;entryDy=0;" edge="1" parent="1" source="0Ep_V3U1J2-gXRXQqFik-1027">
          <mxGeometry width="50" height="50" relative="1" as="geometry">
            <mxPoint x="600" y="340" as="sourcePoint" />
            <mxPoint x="300" y="250" as="targetPoint" />
          </mxGeometry>
        </mxCell>
        <mxCell id="0Ep_V3U1J2-gXRXQqFik-1031" value="" style="endArrow=none;html=1;strokeColor=#004C99;exitX=0.5;exitY=0;exitDx=0;exitDy=0;entryX=0.5;entryY=1;entryDx=0;entryDy=0;" edge="1" parent="1" source="0Ep_V3U1J2-gXRXQqFik-1027">
          <mxGeometry width="50" height="50" relative="1" as="geometry">
            <mxPoint x="610" y="350" as="sourcePoint" />
            <mxPoint x="325" y="250" as="targetPoint" />
          </mxGeometry>
        </mxCell>
        <mxCell id="0Ep_V3U1J2-gXRXQqFik-1032" value="" style="endArrow=none;html=1;strokeColor=#004C99;exitX=0.5;exitY=0;exitDx=0;exitDy=0;entryX=0.5;entryY=1;entryDx=0;entryDy=0;" edge="1" parent="1" source="0Ep_V3U1J2-gXRXQqFik-1027">
          <mxGeometry width="50" height="50" relative="1" as="geometry">
            <mxPoint x="230" y="290" as="sourcePoint" />
            <mxPoint x="350" y="250" as="targetPoint" />
          </mxGeometry>
        </mxCell>
        <mxCell id="0Ep_V3U1J2-gXRXQqFik-1033" value="" style="endArrow=none;html=1;strokeColor=#004C99;exitX=0.5;exitY=0;exitDx=0;exitDy=0;entryX=0.5;entryY=1;entryDx=0;entryDy=0;" edge="1" parent="1" source="0Ep_V3U1J2-gXRXQqFik-1027">
          <mxGeometry width="50" height="50" relative="1" as="geometry">
            <mxPoint x="630" y="370" as="sourcePoint" />
            <mxPoint x="375" y="250" as="targetPoint" />
          </mxGeometry>
        </mxCell>
        <mxCell id="0Ep_V3U1J2-gXRXQqFik-1035" value="" style="ellipse;whiteSpace=wrap;html=1;strokeWidth=1;flipH=0;flipV=1;strokeColor=#004C99;" vertex="1" parent="1">
          <mxGeometry x="315" y="300" width="20" height="20" as="geometry" />
        </mxCell>
        <mxCell id="0Ep_V3U1J2-gXRXQqFik-1036" value="" style="endArrow=none;html=1;strokeColor=#004C99;entryX=0.5;entryY=1;entryDx=0;entryDy=0;exitX=0.5;exitY=0;exitDx=0;exitDy=0;" edge="1" parent="1" source="0Ep_V3U1J2-gXRXQqFik-1035">
          <mxGeometry width="50" height="50" relative="1" as="geometry">
            <mxPoint x="590" y="330" as="sourcePoint" />
            <mxPoint x="250" y="250" as="targetPoint" />
          </mxGeometry>
        </mxCell>
        <mxCell id="0Ep_V3U1J2-gXRXQqFik-1037" value="" style="endArrow=none;html=1;strokeColor=#004C99;exitX=0.5;exitY=0;exitDx=0;exitDy=0;entryX=0.5;entryY=1;entryDx=0;entryDy=0;" edge="1" parent="1" source="0Ep_V3U1J2-gXRXQqFik-1035">
          <mxGeometry width="50" height="50" relative="1" as="geometry">
            <mxPoint x="590" y="330" as="sourcePoint" />
            <mxPoint x="275" y="250" as="targetPoint" />
          </mxGeometry>
        </mxCell>
        <mxCell id="0Ep_V3U1J2-gXRXQqFik-1038" value="" style="endArrow=none;html=1;strokeColor=#004C99;exitX=0.5;exitY=0;exitDx=0;exitDy=0;entryX=0.5;entryY=1;entryDx=0;entryDy=0;" edge="1" parent="1" source="0Ep_V3U1J2-gXRXQqFik-1035">
          <mxGeometry width="50" height="50" relative="1" as="geometry">
            <mxPoint x="600" y="340" as="sourcePoint" />
            <mxPoint x="300" y="250" as="targetPoint" />
          </mxGeometry>
        </mxCell>
        <mxCell id="0Ep_V3U1J2-gXRXQqFik-1039" value="" style="endArrow=none;html=1;strokeColor=#004C99;exitX=0.5;exitY=0;exitDx=0;exitDy=0;entryX=0.5;entryY=1;entryDx=0;entryDy=0;" edge="1" parent="1" source="0Ep_V3U1J2-gXRXQqFik-1035">
          <mxGeometry width="50" height="50" relative="1" as="geometry">
            <mxPoint x="610" y="350" as="sourcePoint" />
            <mxPoint x="325" y="250" as="targetPoint" />
          </mxGeometry>
        </mxCell>
        <mxCell id="0Ep_V3U1J2-gXRXQqFik-1040" value="" style="endArrow=none;html=1;strokeColor=#004C99;exitX=0.5;exitY=0;exitDx=0;exitDy=0;entryX=0.5;entryY=1;entryDx=0;entryDy=0;" edge="1" parent="1" source="0Ep_V3U1J2-gXRXQqFik-1035">
          <mxGeometry width="50" height="50" relative="1" as="geometry">
            <mxPoint x="230" y="290" as="sourcePoint" />
            <mxPoint x="350" y="250" as="targetPoint" />
          </mxGeometry>
        </mxCell>
        <mxCell id="0Ep_V3U1J2-gXRXQqFik-1041" value="" style="endArrow=none;html=1;strokeColor=#004C99;exitX=0.5;exitY=0;exitDx=0;exitDy=0;entryX=0.5;entryY=1;entryDx=0;entryDy=0;" edge="1" parent="1" source="0Ep_V3U1J2-gXRXQqFik-1035">
          <mxGeometry width="50" height="50" relative="1" as="geometry">
            <mxPoint x="630" y="370" as="sourcePoint" />
            <mxPoint x="375" y="250" as="targetPoint" />
          </mxGeometry>
        </mxCell>
        <mxCell id="0Ep_V3U1J2-gXRXQqFik-1043" value="" style="ellipse;whiteSpace=wrap;html=1;strokeWidth=1;flipH=0;flipV=1;strokeColor=#004C99;" vertex="1" parent="1">
          <mxGeometry x="290" y="300" width="20" height="20" as="geometry" />
        </mxCell>
        <mxCell id="0Ep_V3U1J2-gXRXQqFik-1044" value="" style="endArrow=none;html=1;strokeColor=#004C99;entryX=0.5;entryY=1;entryDx=0;entryDy=0;exitX=0.5;exitY=0;exitDx=0;exitDy=0;" edge="1" parent="1" source="0Ep_V3U1J2-gXRXQqFik-1043">
          <mxGeometry width="50" height="50" relative="1" as="geometry">
            <mxPoint x="590" y="330" as="sourcePoint" />
            <mxPoint x="250" y="250" as="targetPoint" />
          </mxGeometry>
        </mxCell>
        <mxCell id="0Ep_V3U1J2-gXRXQqFik-1045" value="" style="endArrow=none;html=1;strokeColor=#004C99;exitX=0.5;exitY=0;exitDx=0;exitDy=0;entryX=0.5;entryY=1;entryDx=0;entryDy=0;" edge="1" parent="1" source="0Ep_V3U1J2-gXRXQqFik-1043">
          <mxGeometry width="50" height="50" relative="1" as="geometry">
            <mxPoint x="590" y="330" as="sourcePoint" />
            <mxPoint x="275" y="250" as="targetPoint" />
          </mxGeometry>
        </mxCell>
        <mxCell id="0Ep_V3U1J2-gXRXQqFik-1046" value="" style="endArrow=none;html=1;strokeColor=#004C99;exitX=0.5;exitY=0;exitDx=0;exitDy=0;entryX=0.5;entryY=1;entryDx=0;entryDy=0;" edge="1" parent="1" source="0Ep_V3U1J2-gXRXQqFik-1043">
          <mxGeometry width="50" height="50" relative="1" as="geometry">
            <mxPoint x="600" y="340" as="sourcePoint" />
            <mxPoint x="300" y="250" as="targetPoint" />
          </mxGeometry>
        </mxCell>
        <mxCell id="0Ep_V3U1J2-gXRXQqFik-1047" value="" style="endArrow=none;html=1;strokeColor=#004C99;exitX=0.5;exitY=0;exitDx=0;exitDy=0;entryX=0.5;entryY=1;entryDx=0;entryDy=0;" edge="1" parent="1" source="0Ep_V3U1J2-gXRXQqFik-1043">
          <mxGeometry width="50" height="50" relative="1" as="geometry">
            <mxPoint x="610" y="350" as="sourcePoint" />
            <mxPoint x="325" y="250" as="targetPoint" />
          </mxGeometry>
        </mxCell>
        <mxCell id="0Ep_V3U1J2-gXRXQqFik-1048" value="" style="endArrow=none;html=1;strokeColor=#004C99;exitX=0.5;exitY=0;exitDx=0;exitDy=0;entryX=0.5;entryY=1;entryDx=0;entryDy=0;" edge="1" parent="1" source="0Ep_V3U1J2-gXRXQqFik-1043">
          <mxGeometry width="50" height="50" relative="1" as="geometry">
            <mxPoint x="230" y="290" as="sourcePoint" />
            <mxPoint x="350" y="250" as="targetPoint" />
          </mxGeometry>
        </mxCell>
        <mxCell id="0Ep_V3U1J2-gXRXQqFik-1049" value="" style="endArrow=none;html=1;strokeColor=#004C99;exitX=0.5;exitY=0;exitDx=0;exitDy=0;entryX=0.5;entryY=1;entryDx=0;entryDy=0;" edge="1" parent="1" source="0Ep_V3U1J2-gXRXQqFik-1043">
          <mxGeometry width="50" height="50" relative="1" as="geometry">
            <mxPoint x="630" y="370" as="sourcePoint" />
            <mxPoint x="375" y="250" as="targetPoint" />
          </mxGeometry>
        </mxCell>
        <mxCell id="0Ep_V3U1J2-gXRXQqFik-1051" value="" style="ellipse;whiteSpace=wrap;html=1;strokeWidth=1;flipH=0;flipV=1;strokeColor=#004C99;" vertex="1" parent="1">
          <mxGeometry x="265" y="300" width="20" height="20" as="geometry" />
        </mxCell>
        <mxCell id="0Ep_V3U1J2-gXRXQqFik-1052" value="" style="endArrow=none;html=1;strokeColor=#004C99;entryX=0.5;entryY=1;entryDx=0;entryDy=0;exitX=0.5;exitY=0;exitDx=0;exitDy=0;" edge="1" parent="1" source="0Ep_V3U1J2-gXRXQqFik-1051">
          <mxGeometry width="50" height="50" relative="1" as="geometry">
            <mxPoint x="590" y="330" as="sourcePoint" />
            <mxPoint x="250" y="250" as="targetPoint" />
          </mxGeometry>
        </mxCell>
        <mxCell id="0Ep_V3U1J2-gXRXQqFik-1053" value="" style="endArrow=none;html=1;strokeColor=#004C99;exitX=0.5;exitY=0;exitDx=0;exitDy=0;entryX=0.5;entryY=1;entryDx=0;entryDy=0;" edge="1" parent="1" source="0Ep_V3U1J2-gXRXQqFik-1051">
          <mxGeometry width="50" height="50" relative="1" as="geometry">
            <mxPoint x="590" y="330" as="sourcePoint" />
            <mxPoint x="275" y="250" as="targetPoint" />
          </mxGeometry>
        </mxCell>
        <mxCell id="0Ep_V3U1J2-gXRXQqFik-1054" value="" style="endArrow=none;html=1;strokeColor=#004C99;exitX=0.5;exitY=0;exitDx=0;exitDy=0;entryX=0.5;entryY=1;entryDx=0;entryDy=0;" edge="1" parent="1" source="0Ep_V3U1J2-gXRXQqFik-1051">
          <mxGeometry width="50" height="50" relative="1" as="geometry">
            <mxPoint x="600" y="340" as="sourcePoint" />
            <mxPoint x="300" y="250" as="targetPoint" />
          </mxGeometry>
        </mxCell>
        <mxCell id="0Ep_V3U1J2-gXRXQqFik-1055" value="" style="endArrow=none;html=1;strokeColor=#004C99;exitX=0.5;exitY=0;exitDx=0;exitDy=0;entryX=0.5;entryY=1;entryDx=0;entryDy=0;" edge="1" parent="1" source="0Ep_V3U1J2-gXRXQqFik-1051">
          <mxGeometry width="50" height="50" relative="1" as="geometry">
            <mxPoint x="610" y="350" as="sourcePoint" />
            <mxPoint x="325" y="250" as="targetPoint" />
          </mxGeometry>
        </mxCell>
        <mxCell id="0Ep_V3U1J2-gXRXQqFik-1056" value="" style="endArrow=none;html=1;strokeColor=#004C99;exitX=0.5;exitY=0;exitDx=0;exitDy=0;entryX=0.5;entryY=1;entryDx=0;entryDy=0;" edge="1" parent="1" source="0Ep_V3U1J2-gXRXQqFik-1051">
          <mxGeometry width="50" height="50" relative="1" as="geometry">
            <mxPoint x="230" y="290" as="sourcePoint" />
            <mxPoint x="350" y="250" as="targetPoint" />
          </mxGeometry>
        </mxCell>
        <mxCell id="0Ep_V3U1J2-gXRXQqFik-1057" value="" style="endArrow=none;html=1;strokeColor=#004C99;exitX=0.5;exitY=0;exitDx=0;exitDy=0;entryX=0.5;entryY=1;entryDx=0;entryDy=0;" edge="1" parent="1" source="0Ep_V3U1J2-gXRXQqFik-1051">
          <mxGeometry width="50" height="50" relative="1" as="geometry">
            <mxPoint x="630" y="370" as="sourcePoint" />
            <mxPoint x="375" y="250" as="targetPoint" />
          </mxGeometry>
        </mxCell>
        <mxCell id="0Ep_V3U1J2-gXRXQqFik-1065" value="" style="endArrow=none;html=1;strokeColor=#004C99;exitX=0.5;exitY=0;exitDx=0;exitDy=0;entryX=0.5;entryY=1;entryDx=0;entryDy=0;" edge="1" parent="1" source="0Ep_V3U1J2-gXRXQqFik-668" target="0Ep_V3U1J2-gXRXQqFik-344">
          <mxGeometry width="50" height="50" relative="1" as="geometry">
            <mxPoint x="215" y="310" as="sourcePoint" />
            <mxPoint x="215" y="260" as="targetPoint" />
          </mxGeometry>
        </mxCell>
        <mxCell id="0Ep_V3U1J2-gXRXQqFik-1196" value="" style="ellipse;whiteSpace=wrap;html=1;strokeWidth=1;flipH=0;flipV=1;strokeColor=#004C99;" vertex="1" parent="1">
          <mxGeometry x="460" y="300" width="20" height="20" as="geometry" />
        </mxCell>
        <mxCell id="0Ep_V3U1J2-gXRXQqFik-1197" value="cat" style="ellipse;whiteSpace=wrap;html=1;strokeWidth=1;flipH=0;flipV=1;strokeColor=#004C99;" vertex="1" parent="1">
          <mxGeometry x="535" y="370" width="20" height="20" as="geometry" />
        </mxCell>
        <mxCell id="0Ep_V3U1J2-gXRXQqFik-1198" value="dog" style="ellipse;whiteSpace=wrap;html=1;strokeWidth=1;flipH=0;flipV=1;strokeColor=#004C99;" vertex="1" parent="1">
          <mxGeometry x="560" y="370" width="20" height="20" as="geometry" />
        </mxCell>
        <mxCell id="0Ep_V3U1J2-gXRXQqFik-1199" value="" style="endArrow=none;html=1;entryX=0.5;entryY=1;entryDx=0;entryDy=0;exitX=0.5;exitY=0;exitDx=0;exitDy=0;strokeColor=#004C99;" edge="1" parent="1" source="0Ep_V3U1J2-gXRXQqFik-1197" target="0Ep_V3U1J2-gXRXQqFik-1196">
          <mxGeometry width="50" height="50" relative="1" as="geometry">
            <mxPoint x="810" y="600" as="sourcePoint" />
            <mxPoint x="860" y="550" as="targetPoint" />
          </mxGeometry>
        </mxCell>
        <mxCell id="0Ep_V3U1J2-gXRXQqFik-1200" value="" style="endArrow=none;html=1;strokeColor=#004C99;exitX=0.5;exitY=1;exitDx=0;exitDy=0;entryX=0.5;entryY=0;entryDx=0;entryDy=0;" edge="1" parent="1" target="0Ep_V3U1J2-gXRXQqFik-1197">
          <mxGeometry width="50" height="50" relative="1" as="geometry">
            <mxPoint x="495" y="320" as="sourcePoint" />
            <mxPoint x="720" y="460" as="targetPoint" />
          </mxGeometry>
        </mxCell>
        <mxCell id="0Ep_V3U1J2-gXRXQqFik-1201" value="" style="endArrow=none;html=1;strokeColor=#004C99;exitX=0.5;exitY=0;exitDx=0;exitDy=0;entryX=0.5;entryY=1;entryDx=0;entryDy=0;" edge="1" parent="1" source="0Ep_V3U1J2-gXRXQqFik-1197">
          <mxGeometry width="50" height="50" relative="1" as="geometry">
            <mxPoint x="570" y="410" as="sourcePoint" />
            <mxPoint x="570" y="320" as="targetPoint" />
          </mxGeometry>
        </mxCell>
        <mxCell id="0Ep_V3U1J2-gXRXQqFik-1202" value="" style="endArrow=none;html=1;strokeColor=#004C99;exitX=0.5;exitY=0;exitDx=0;exitDy=0;entryX=0.5;entryY=1;entryDx=0;entryDy=0;" edge="1" parent="1" source="0Ep_V3U1J2-gXRXQqFik-1197">
          <mxGeometry width="50" height="50" relative="1" as="geometry">
            <mxPoint x="605" y="390" as="sourcePoint" />
            <mxPoint x="545" y="320" as="targetPoint" />
          </mxGeometry>
        </mxCell>
        <mxCell id="0Ep_V3U1J2-gXRXQqFik-1203" value="" style="endArrow=none;html=1;strokeColor=#004C99;exitX=0.5;exitY=0;exitDx=0;exitDy=0;entryX=0.5;entryY=1;entryDx=0;entryDy=0;" edge="1" parent="1" source="0Ep_V3U1J2-gXRXQqFik-1197">
          <mxGeometry width="50" height="50" relative="1" as="geometry">
            <mxPoint x="595" y="405" as="sourcePoint" />
            <mxPoint x="595" y="320" as="targetPoint" />
          </mxGeometry>
        </mxCell>
        <mxCell id="0Ep_V3U1J2-gXRXQqFik-1204" value="" style="endArrow=none;html=1;strokeColor=#004C99;exitX=0.5;exitY=0;exitDx=0;exitDy=0;entryX=0.5;entryY=1;entryDx=0;entryDy=0;" edge="1" parent="1" source="0Ep_V3U1J2-gXRXQqFik-1197">
          <mxGeometry width="50" height="50" relative="1" as="geometry">
            <mxPoint x="520" y="510" as="sourcePoint" />
            <mxPoint x="520" y="320" as="targetPoint" />
          </mxGeometry>
        </mxCell>
        <mxCell id="0Ep_V3U1J2-gXRXQqFik-1205" value="" style="endArrow=none;html=1;entryX=0.5;entryY=1;entryDx=0;entryDy=0;exitX=0.5;exitY=0;exitDx=0;exitDy=0;strokeColor=#004C99;startFill=1;fixDash=0;" edge="1" parent="1" source="0Ep_V3U1J2-gXRXQqFik-1198" target="0Ep_V3U1J2-gXRXQqFik-1196">
          <mxGeometry width="50" height="50" relative="1" as="geometry">
            <mxPoint x="595" y="460" as="sourcePoint" />
            <mxPoint x="520" y="410" as="targetPoint" />
          </mxGeometry>
        </mxCell>
        <mxCell id="0Ep_V3U1J2-gXRXQqFik-1206" value="" style="endArrow=none;html=1;strokeColor=#004C99;exitX=0.5;exitY=1;exitDx=0;exitDy=0;startFill=1;fixDash=0;" edge="1" parent="1">
          <mxGeometry width="50" height="50" relative="1" as="geometry">
            <mxPoint x="495" y="320" as="sourcePoint" />
            <mxPoint x="570" y="370" as="targetPoint" />
          </mxGeometry>
        </mxCell>
        <mxCell id="0Ep_V3U1J2-gXRXQqFik-1207" value="" style="endArrow=none;html=1;strokeColor=#004C99;exitX=0.5;exitY=0;exitDx=0;exitDy=0;entryX=0.5;entryY=1;entryDx=0;entryDy=0;startFill=1;fixDash=0;" edge="1" parent="1" source="0Ep_V3U1J2-gXRXQqFik-1198">
          <mxGeometry width="50" height="50" relative="1" as="geometry">
            <mxPoint x="595" y="460" as="sourcePoint" />
            <mxPoint x="570" y="320" as="targetPoint" />
          </mxGeometry>
        </mxCell>
        <mxCell id="0Ep_V3U1J2-gXRXQqFik-1208" value="" style="endArrow=none;html=1;strokeColor=#004C99;exitX=0.5;exitY=0;exitDx=0;exitDy=0;entryX=0.5;entryY=1;entryDx=0;entryDy=0;startFill=1;fixDash=0;" edge="1" parent="1" source="0Ep_V3U1J2-gXRXQqFik-1198">
          <mxGeometry width="50" height="50" relative="1" as="geometry">
            <mxPoint x="595" y="460" as="sourcePoint" />
            <mxPoint x="545" y="320" as="targetPoint" />
          </mxGeometry>
        </mxCell>
        <mxCell id="0Ep_V3U1J2-gXRXQqFik-1209" value="" style="endArrow=none;html=1;strokeColor=#004C99;exitX=0.5;exitY=0;exitDx=0;exitDy=0;entryX=0.5;entryY=1;entryDx=0;entryDy=0;startFill=1;fixDash=0;" edge="1" parent="1" source="0Ep_V3U1J2-gXRXQqFik-1198">
          <mxGeometry width="50" height="50" relative="1" as="geometry">
            <mxPoint x="595" y="460" as="sourcePoint" />
            <mxPoint x="595" y="320" as="targetPoint" />
          </mxGeometry>
        </mxCell>
        <mxCell id="0Ep_V3U1J2-gXRXQqFik-1210" value="" style="endArrow=none;html=1;strokeColor=#004C99;exitX=0.5;exitY=0;exitDx=0;exitDy=0;entryX=0.5;entryY=1;entryDx=0;entryDy=0;startFill=1;fixDash=0;" edge="1" parent="1" source="0Ep_V3U1J2-gXRXQqFik-1198">
          <mxGeometry width="50" height="50" relative="1" as="geometry">
            <mxPoint x="595" y="460" as="sourcePoint" />
            <mxPoint x="520" y="320" as="targetPoint" />
          </mxGeometry>
        </mxCell>
        <mxCell id="0Ep_V3U1J2-gXRXQqFik-1211" value="" style="ellipse;whiteSpace=wrap;html=1;strokeWidth=1;flipH=0;flipV=0;strokeColor=#004C99;" vertex="1" parent="1">
          <mxGeometry x="460" y="230" width="20" height="20" as="geometry" />
        </mxCell>
        <mxCell id="0Ep_V3U1J2-gXRXQqFik-1212" value="" style="endArrow=none;html=1;strokeColor=#004C99;entryX=0.5;entryY=1;entryDx=0;entryDy=0;exitX=0.5;exitY=0;exitDx=0;exitDy=0;" edge="1" parent="1" source="0Ep_V3U1J2-gXRXQqFik-1196" target="0Ep_V3U1J2-gXRXQqFik-1211">
          <mxGeometry width="50" height="50" relative="1" as="geometry">
            <mxPoint x="810" y="330" as="sourcePoint" />
            <mxPoint x="860" y="280" as="targetPoint" />
          </mxGeometry>
        </mxCell>
        <mxCell id="0Ep_V3U1J2-gXRXQqFik-1213" value="" style="ellipse;whiteSpace=wrap;html=1;strokeWidth=1;flipH=0;flipV=0;strokeColor=#004C99;" vertex="1" parent="1">
          <mxGeometry x="485" y="230" width="20" height="20" as="geometry" />
        </mxCell>
        <mxCell id="0Ep_V3U1J2-gXRXQqFik-1214" value="" style="ellipse;whiteSpace=wrap;html=1;strokeWidth=1;flipH=0;flipV=0;strokeColor=#004C99;" vertex="1" parent="1">
          <mxGeometry x="510" y="230" width="20" height="20" as="geometry" />
        </mxCell>
        <mxCell id="0Ep_V3U1J2-gXRXQqFik-1215" value="" style="ellipse;whiteSpace=wrap;html=1;strokeWidth=1;flipH=0;flipV=0;strokeColor=#004C99;" vertex="1" parent="1">
          <mxGeometry x="535" y="230" width="20" height="20" as="geometry" />
        </mxCell>
        <mxCell id="0Ep_V3U1J2-gXRXQqFik-1216" value="" style="ellipse;whiteSpace=wrap;html=1;strokeWidth=1;flipH=0;flipV=0;dashed=1;dashPattern=1 1;strokeColor=#66B2FF;" vertex="1" parent="1">
          <mxGeometry x="560" y="230" width="20" height="20" as="geometry" />
        </mxCell>
        <mxCell id="0Ep_V3U1J2-gXRXQqFik-1217" value="" style="ellipse;whiteSpace=wrap;html=1;strokeWidth=1;flipH=0;flipV=0;dashed=1;dashPattern=1 1;strokeColor=#66B2FF;" vertex="1" parent="1">
          <mxGeometry x="585" y="230" width="20" height="20" as="geometry" />
        </mxCell>
        <mxCell id="0Ep_V3U1J2-gXRXQqFik-1218" value="" style="ellipse;whiteSpace=wrap;html=1;strokeWidth=1;flipH=0;flipV=0;dashed=1;dashPattern=1 1;strokeColor=#66B2FF;" vertex="1" parent="1">
          <mxGeometry x="610" y="230" width="20" height="20" as="geometry" />
        </mxCell>
        <mxCell id="0Ep_V3U1J2-gXRXQqFik-1219" value="" style="endArrow=none;html=1;strokeColor=#004C99;exitX=0.5;exitY=0;exitDx=0;exitDy=0;entryX=0.5;entryY=1;entryDx=0;entryDy=0;" edge="1" parent="1" source="0Ep_V3U1J2-gXRXQqFik-1196" target="0Ep_V3U1J2-gXRXQqFik-1213">
          <mxGeometry width="50" height="50" relative="1" as="geometry">
            <mxPoint x="810" y="330" as="sourcePoint" />
            <mxPoint x="860" y="280" as="targetPoint" />
          </mxGeometry>
        </mxCell>
        <mxCell id="0Ep_V3U1J2-gXRXQqFik-1220" value="" style="endArrow=none;html=1;strokeColor=#004C99;exitX=0.5;exitY=0;exitDx=0;exitDy=0;entryX=0.5;entryY=1;entryDx=0;entryDy=0;" edge="1" parent="1" source="0Ep_V3U1J2-gXRXQqFik-1196" target="0Ep_V3U1J2-gXRXQqFik-1214">
          <mxGeometry width="50" height="50" relative="1" as="geometry">
            <mxPoint x="820" y="340" as="sourcePoint" />
            <mxPoint x="870" y="290" as="targetPoint" />
          </mxGeometry>
        </mxCell>
        <mxCell id="0Ep_V3U1J2-gXRXQqFik-1221" value="" style="endArrow=none;html=1;strokeColor=#004C99;exitX=0.5;exitY=0;exitDx=0;exitDy=0;entryX=0.5;entryY=1;entryDx=0;entryDy=0;" edge="1" parent="1" source="0Ep_V3U1J2-gXRXQqFik-1196" target="0Ep_V3U1J2-gXRXQqFik-1215">
          <mxGeometry width="50" height="50" relative="1" as="geometry">
            <mxPoint x="830" y="350" as="sourcePoint" />
            <mxPoint x="880" y="300" as="targetPoint" />
          </mxGeometry>
        </mxCell>
        <mxCell id="0Ep_V3U1J2-gXRXQqFik-1224" value="" style="ellipse;whiteSpace=wrap;html=1;strokeWidth=1;flipH=0;flipV=1;strokeColor=#004C99;" vertex="1" parent="1">
          <mxGeometry x="460" y="300" width="20" height="20" as="geometry" />
        </mxCell>
        <mxCell id="0Ep_V3U1J2-gXRXQqFik-1225" value="" style="ellipse;whiteSpace=wrap;html=1;strokeWidth=1;flipH=0;flipV=0;strokeColor=#004C99;" vertex="1" parent="1">
          <mxGeometry x="460" y="230" width="20" height="20" as="geometry" />
        </mxCell>
        <mxCell id="0Ep_V3U1J2-gXRXQqFik-1226" value="" style="endArrow=none;html=1;strokeColor=#004C99;entryX=0.5;entryY=1;entryDx=0;entryDy=0;exitX=0.5;exitY=0;exitDx=0;exitDy=0;" edge="1" parent="1" source="0Ep_V3U1J2-gXRXQqFik-1224" target="0Ep_V3U1J2-gXRXQqFik-1225">
          <mxGeometry width="50" height="50" relative="1" as="geometry">
            <mxPoint x="810" y="330" as="sourcePoint" />
            <mxPoint x="860" y="280" as="targetPoint" />
          </mxGeometry>
        </mxCell>
        <mxCell id="0Ep_V3U1J2-gXRXQqFik-1227" value="" style="ellipse;whiteSpace=wrap;html=1;strokeWidth=1;flipH=0;flipV=0;strokeColor=#004C99;" vertex="1" parent="1">
          <mxGeometry x="485" y="230" width="20" height="20" as="geometry" />
        </mxCell>
        <mxCell id="0Ep_V3U1J2-gXRXQqFik-1228" value="" style="ellipse;whiteSpace=wrap;html=1;strokeWidth=1;flipH=0;flipV=0;strokeColor=#004C99;" vertex="1" parent="1">
          <mxGeometry x="510" y="230" width="20" height="20" as="geometry" />
        </mxCell>
        <mxCell id="0Ep_V3U1J2-gXRXQqFik-1229" value="" style="ellipse;whiteSpace=wrap;html=1;strokeWidth=1;flipH=0;flipV=0;strokeColor=#004C99;" vertex="1" parent="1">
          <mxGeometry x="535" y="230" width="20" height="20" as="geometry" />
        </mxCell>
        <mxCell id="0Ep_V3U1J2-gXRXQqFik-1230" value="" style="ellipse;whiteSpace=wrap;html=1;strokeWidth=1;flipH=0;flipV=0;dashed=1;dashPattern=1 1;strokeColor=#66B2FF;" vertex="1" parent="1">
          <mxGeometry x="560" y="230" width="20" height="20" as="geometry" />
        </mxCell>
        <mxCell id="0Ep_V3U1J2-gXRXQqFik-1231" value="" style="ellipse;whiteSpace=wrap;html=1;strokeWidth=1;flipH=0;flipV=0;dashed=1;dashPattern=1 1;strokeColor=#66B2FF;" vertex="1" parent="1">
          <mxGeometry x="585" y="230" width="20" height="20" as="geometry" />
        </mxCell>
        <mxCell id="0Ep_V3U1J2-gXRXQqFik-1232" value="" style="ellipse;whiteSpace=wrap;html=1;strokeWidth=1;flipH=0;flipV=0;dashed=1;dashPattern=1 1;strokeColor=#66B2FF;" vertex="1" parent="1">
          <mxGeometry x="635" y="230" width="20" height="20" as="geometry" />
        </mxCell>
        <mxCell id="0Ep_V3U1J2-gXRXQqFik-1235" value="" style="endArrow=none;html=1;strokeColor=#004C99;exitX=0.5;exitY=0;exitDx=0;exitDy=0;entryX=0.5;entryY=1;entryDx=0;entryDy=0;" edge="1" parent="1" source="0Ep_V3U1J2-gXRXQqFik-1224" target="0Ep_V3U1J2-gXRXQqFik-1229">
          <mxGeometry width="50" height="50" relative="1" as="geometry">
            <mxPoint x="830" y="350" as="sourcePoint" />
            <mxPoint x="880" y="300" as="targetPoint" />
          </mxGeometry>
        </mxCell>
        <mxCell id="0Ep_V3U1J2-gXRXQqFik-1238" value="" style="ellipse;whiteSpace=wrap;html=1;strokeWidth=1;flipH=0;flipV=1;strokeColor=#004C99;" vertex="1" parent="1">
          <mxGeometry x="460" y="300" width="20" height="20" as="geometry" />
        </mxCell>
        <mxCell id="0Ep_V3U1J2-gXRXQqFik-1239" value="" style="endArrow=none;html=1;strokeColor=#004C99;entryX=0.5;entryY=1;entryDx=0;entryDy=0;exitX=0.5;exitY=0;exitDx=0;exitDy=0;" edge="1" parent="1" source="0Ep_V3U1J2-gXRXQqFik-1238">
          <mxGeometry width="50" height="50" relative="1" as="geometry">
            <mxPoint x="810" y="330" as="sourcePoint" />
            <mxPoint x="470" y="250" as="targetPoint" />
          </mxGeometry>
        </mxCell>
        <mxCell id="0Ep_V3U1J2-gXRXQqFik-1242" value="" style="endArrow=none;html=1;strokeColor=#004C99;exitX=0.5;exitY=0;exitDx=0;exitDy=0;entryX=0.5;entryY=1;entryDx=0;entryDy=0;" edge="1" parent="1" source="0Ep_V3U1J2-gXRXQqFik-1238">
          <mxGeometry width="50" height="50" relative="1" as="geometry">
            <mxPoint x="830" y="350" as="sourcePoint" />
            <mxPoint x="545" y="250" as="targetPoint" />
          </mxGeometry>
        </mxCell>
        <mxCell id="0Ep_V3U1J2-gXRXQqFik-1245" value="" style="ellipse;whiteSpace=wrap;html=1;strokeWidth=1;flipH=0;flipV=1;strokeColor=#004C99;" vertex="1" parent="1">
          <mxGeometry x="460" y="300" width="20" height="20" as="geometry" />
        </mxCell>
        <mxCell id="0Ep_V3U1J2-gXRXQqFik-1246" value="" style="endArrow=none;html=1;strokeColor=#004C99;entryX=0.5;entryY=1;entryDx=0;entryDy=0;exitX=0.5;exitY=0;exitDx=0;exitDy=0;" edge="1" parent="1" source="0Ep_V3U1J2-gXRXQqFik-1245">
          <mxGeometry width="50" height="50" relative="1" as="geometry">
            <mxPoint x="810" y="330" as="sourcePoint" />
            <mxPoint x="470" y="250" as="targetPoint" />
          </mxGeometry>
        </mxCell>
        <mxCell id="0Ep_V3U1J2-gXRXQqFik-1249" value="" style="endArrow=none;html=1;strokeColor=#004C99;exitX=0.5;exitY=0;exitDx=0;exitDy=0;entryX=0.5;entryY=1;entryDx=0;entryDy=0;" edge="1" parent="1" source="0Ep_V3U1J2-gXRXQqFik-1245">
          <mxGeometry width="50" height="50" relative="1" as="geometry">
            <mxPoint x="830" y="350" as="sourcePoint" />
            <mxPoint x="545" y="250" as="targetPoint" />
          </mxGeometry>
        </mxCell>
        <mxCell id="0Ep_V3U1J2-gXRXQqFik-1252" value="" style="ellipse;whiteSpace=wrap;html=1;strokeWidth=1;flipH=0;flipV=1;strokeColor=#004C99;" vertex="1" parent="1">
          <mxGeometry x="460" y="300" width="20" height="20" as="geometry" />
        </mxCell>
        <mxCell id="0Ep_V3U1J2-gXRXQqFik-1253" value="" style="endArrow=none;html=1;strokeColor=#004C99;entryX=0.5;entryY=1;entryDx=0;entryDy=0;exitX=0.5;exitY=0;exitDx=0;exitDy=0;" edge="1" parent="1" source="0Ep_V3U1J2-gXRXQqFik-1252">
          <mxGeometry width="50" height="50" relative="1" as="geometry">
            <mxPoint x="810" y="330" as="sourcePoint" />
            <mxPoint x="470" y="250" as="targetPoint" />
          </mxGeometry>
        </mxCell>
        <mxCell id="0Ep_V3U1J2-gXRXQqFik-1256" value="" style="endArrow=none;html=1;strokeColor=#004C99;exitX=0.5;exitY=0;exitDx=0;exitDy=0;entryX=0.5;entryY=1;entryDx=0;entryDy=0;" edge="1" parent="1" source="0Ep_V3U1J2-gXRXQqFik-1252">
          <mxGeometry width="50" height="50" relative="1" as="geometry">
            <mxPoint x="830" y="350" as="sourcePoint" />
            <mxPoint x="545" y="250" as="targetPoint" />
          </mxGeometry>
        </mxCell>
        <mxCell id="0Ep_V3U1J2-gXRXQqFik-1259" value="" style="ellipse;whiteSpace=wrap;html=1;strokeWidth=1;flipH=0;flipV=1;strokeColor=#004C99;" vertex="1" parent="1">
          <mxGeometry x="460" y="300" width="20" height="20" as="geometry" />
        </mxCell>
        <mxCell id="0Ep_V3U1J2-gXRXQqFik-1260" value="" style="endArrow=none;html=1;strokeColor=#004C99;entryX=0.5;entryY=1;entryDx=0;entryDy=0;exitX=0.5;exitY=0;exitDx=0;exitDy=0;" edge="1" parent="1" source="0Ep_V3U1J2-gXRXQqFik-1259">
          <mxGeometry width="50" height="50" relative="1" as="geometry">
            <mxPoint x="810" y="330" as="sourcePoint" />
            <mxPoint x="470" y="250" as="targetPoint" />
          </mxGeometry>
        </mxCell>
        <mxCell id="0Ep_V3U1J2-gXRXQqFik-1263" value="" style="endArrow=none;html=1;strokeColor=#004C99;exitX=0.5;exitY=0;exitDx=0;exitDy=0;entryX=0.5;entryY=1;entryDx=0;entryDy=0;" edge="1" parent="1" source="0Ep_V3U1J2-gXRXQqFik-1259">
          <mxGeometry width="50" height="50" relative="1" as="geometry">
            <mxPoint x="830" y="350" as="sourcePoint" />
            <mxPoint x="545" y="250" as="targetPoint" />
          </mxGeometry>
        </mxCell>
        <mxCell id="0Ep_V3U1J2-gXRXQqFik-1266" value="" style="ellipse;whiteSpace=wrap;html=1;strokeWidth=1;flipH=0;flipV=1;strokeColor=#004C99;" vertex="1" parent="1">
          <mxGeometry x="460" y="300" width="20" height="20" as="geometry" />
        </mxCell>
        <mxCell id="0Ep_V3U1J2-gXRXQqFik-1267" value="" style="endArrow=none;html=1;strokeColor=#004C99;entryX=0.5;entryY=1;entryDx=0;entryDy=0;exitX=0.5;exitY=0;exitDx=0;exitDy=0;" edge="1" parent="1" source="0Ep_V3U1J2-gXRXQqFik-1266">
          <mxGeometry width="50" height="50" relative="1" as="geometry">
            <mxPoint x="810" y="330" as="sourcePoint" />
            <mxPoint x="470" y="250" as="targetPoint" />
          </mxGeometry>
        </mxCell>
        <mxCell id="0Ep_V3U1J2-gXRXQqFik-1273" value="" style="ellipse;whiteSpace=wrap;html=1;strokeWidth=1;flipH=0;flipV=1;strokeColor=#004C99;" vertex="1" parent="1">
          <mxGeometry x="460" y="300" width="20" height="20" as="geometry" />
        </mxCell>
        <mxCell id="0Ep_V3U1J2-gXRXQqFik-1274" value="" style="endArrow=none;html=1;strokeColor=#004C99;entryX=0.5;entryY=1;entryDx=0;entryDy=0;exitX=0.5;exitY=0;exitDx=0;exitDy=0;" edge="1" parent="1" source="0Ep_V3U1J2-gXRXQqFik-1273">
          <mxGeometry width="50" height="50" relative="1" as="geometry">
            <mxPoint x="810" y="330" as="sourcePoint" />
            <mxPoint x="470" y="250" as="targetPoint" />
          </mxGeometry>
        </mxCell>
        <mxCell id="0Ep_V3U1J2-gXRXQqFik-1280" value="" style="ellipse;whiteSpace=wrap;html=1;strokeWidth=1;flipH=0;flipV=1;strokeColor=#004C99;" vertex="1" parent="1">
          <mxGeometry x="460" y="300" width="20" height="20" as="geometry" />
        </mxCell>
        <mxCell id="0Ep_V3U1J2-gXRXQqFik-1281" value="" style="endArrow=none;html=1;strokeColor=#004C99;entryX=0.5;entryY=1;entryDx=0;entryDy=0;exitX=0.5;exitY=0;exitDx=0;exitDy=0;" edge="1" parent="1" source="0Ep_V3U1J2-gXRXQqFik-1280">
          <mxGeometry width="50" height="50" relative="1" as="geometry">
            <mxPoint x="810" y="330" as="sourcePoint" />
            <mxPoint x="470" y="250" as="targetPoint" />
          </mxGeometry>
        </mxCell>
        <mxCell id="0Ep_V3U1J2-gXRXQqFik-1287" value="" style="ellipse;whiteSpace=wrap;html=1;strokeWidth=1;flipH=0;flipV=1;dashed=1;dashPattern=1 1;strokeColor=#66B2FF;" vertex="1" parent="1">
          <mxGeometry x="635" y="300" width="20" height="20" as="geometry" />
        </mxCell>
        <mxCell id="0Ep_V3U1J2-gXRXQqFik-1288" value="" style="ellipse;whiteSpace=wrap;html=1;strokeWidth=1;flipH=0;flipV=1;dashed=1;dashPattern=1 1;strokeColor=#66B2FF;" vertex="1" parent="1">
          <mxGeometry x="610" y="300" width="20" height="20" as="geometry" />
        </mxCell>
        <mxCell id="0Ep_V3U1J2-gXRXQqFik-1289" value="" style="ellipse;whiteSpace=wrap;html=1;strokeWidth=1;flipH=0;flipV=1;strokeColor=#004C99;" vertex="1" parent="1">
          <mxGeometry x="585" y="300" width="20" height="20" as="geometry" />
        </mxCell>
        <mxCell id="0Ep_V3U1J2-gXRXQqFik-1290" value="" style="endArrow=none;html=1;strokeColor=#004C99;entryX=0.5;entryY=1;entryDx=0;entryDy=0;exitX=0.5;exitY=0;exitDx=0;exitDy=0;" edge="1" parent="1" source="0Ep_V3U1J2-gXRXQqFik-1289">
          <mxGeometry width="50" height="50" relative="1" as="geometry">
            <mxPoint x="810" y="330" as="sourcePoint" />
            <mxPoint x="470" y="250" as="targetPoint" />
          </mxGeometry>
        </mxCell>
        <mxCell id="0Ep_V3U1J2-gXRXQqFik-1291" value="" style="endArrow=none;html=1;strokeColor=#004C99;exitX=0.5;exitY=0;exitDx=0;exitDy=0;entryX=0.5;entryY=1;entryDx=0;entryDy=0;" edge="1" parent="1" source="0Ep_V3U1J2-gXRXQqFik-1289">
          <mxGeometry width="50" height="50" relative="1" as="geometry">
            <mxPoint x="810" y="330" as="sourcePoint" />
            <mxPoint x="495" y="250" as="targetPoint" />
          </mxGeometry>
        </mxCell>
        <mxCell id="0Ep_V3U1J2-gXRXQqFik-1292" value="" style="endArrow=none;html=1;strokeColor=#004C99;exitX=0.5;exitY=0;exitDx=0;exitDy=0;entryX=0.5;entryY=1;entryDx=0;entryDy=0;" edge="1" parent="1" source="0Ep_V3U1J2-gXRXQqFik-1289">
          <mxGeometry width="50" height="50" relative="1" as="geometry">
            <mxPoint x="820" y="340" as="sourcePoint" />
            <mxPoint x="520" y="250" as="targetPoint" />
          </mxGeometry>
        </mxCell>
        <mxCell id="0Ep_V3U1J2-gXRXQqFik-1293" value="" style="endArrow=none;html=1;strokeColor=#004C99;exitX=0.5;exitY=0;exitDx=0;exitDy=0;entryX=0.5;entryY=1;entryDx=0;entryDy=0;" edge="1" parent="1" source="0Ep_V3U1J2-gXRXQqFik-1289">
          <mxGeometry width="50" height="50" relative="1" as="geometry">
            <mxPoint x="830" y="350" as="sourcePoint" />
            <mxPoint x="545" y="250" as="targetPoint" />
          </mxGeometry>
        </mxCell>
        <mxCell id="0Ep_V3U1J2-gXRXQqFik-1296" value="" style="ellipse;whiteSpace=wrap;html=1;strokeWidth=1;flipH=0;flipV=1;strokeColor=#004C99;" vertex="1" parent="1">
          <mxGeometry x="560" y="300" width="20" height="20" as="geometry" />
        </mxCell>
        <mxCell id="0Ep_V3U1J2-gXRXQqFik-1297" value="" style="endArrow=none;html=1;strokeColor=#004C99;entryX=0.5;entryY=1;entryDx=0;entryDy=0;exitX=0.5;exitY=0;exitDx=0;exitDy=0;" edge="1" parent="1" source="0Ep_V3U1J2-gXRXQqFik-1296">
          <mxGeometry width="50" height="50" relative="1" as="geometry">
            <mxPoint x="810" y="330" as="sourcePoint" />
            <mxPoint x="470" y="250" as="targetPoint" />
          </mxGeometry>
        </mxCell>
        <mxCell id="0Ep_V3U1J2-gXRXQqFik-1298" value="" style="endArrow=none;html=1;strokeColor=#004C99;exitX=0.5;exitY=0;exitDx=0;exitDy=0;entryX=0.5;entryY=1;entryDx=0;entryDy=0;" edge="1" parent="1" source="0Ep_V3U1J2-gXRXQqFik-1296">
          <mxGeometry width="50" height="50" relative="1" as="geometry">
            <mxPoint x="810" y="330" as="sourcePoint" />
            <mxPoint x="495" y="250" as="targetPoint" />
          </mxGeometry>
        </mxCell>
        <mxCell id="0Ep_V3U1J2-gXRXQqFik-1299" value="" style="endArrow=none;html=1;strokeColor=#004C99;exitX=0.5;exitY=0;exitDx=0;exitDy=0;entryX=0.5;entryY=1;entryDx=0;entryDy=0;" edge="1" parent="1" source="0Ep_V3U1J2-gXRXQqFik-1296">
          <mxGeometry width="50" height="50" relative="1" as="geometry">
            <mxPoint x="820" y="340" as="sourcePoint" />
            <mxPoint x="520" y="250" as="targetPoint" />
          </mxGeometry>
        </mxCell>
        <mxCell id="0Ep_V3U1J2-gXRXQqFik-1300" value="" style="endArrow=none;html=1;strokeColor=#004C99;exitX=0.5;exitY=0;exitDx=0;exitDy=0;entryX=0.5;entryY=1;entryDx=0;entryDy=0;" edge="1" parent="1" source="0Ep_V3U1J2-gXRXQqFik-1296">
          <mxGeometry width="50" height="50" relative="1" as="geometry">
            <mxPoint x="830" y="350" as="sourcePoint" />
            <mxPoint x="545" y="250" as="targetPoint" />
          </mxGeometry>
        </mxCell>
        <mxCell id="0Ep_V3U1J2-gXRXQqFik-1303" value="" style="ellipse;whiteSpace=wrap;html=1;strokeWidth=1;flipH=0;flipV=1;strokeColor=#004C99;" vertex="1" parent="1">
          <mxGeometry x="535" y="300" width="20" height="20" as="geometry" />
        </mxCell>
        <mxCell id="0Ep_V3U1J2-gXRXQqFik-1304" value="" style="endArrow=none;html=1;strokeColor=#004C99;entryX=0.5;entryY=1;entryDx=0;entryDy=0;exitX=0.5;exitY=0;exitDx=0;exitDy=0;" edge="1" parent="1" source="0Ep_V3U1J2-gXRXQqFik-1303">
          <mxGeometry width="50" height="50" relative="1" as="geometry">
            <mxPoint x="810" y="330" as="sourcePoint" />
            <mxPoint x="470" y="250" as="targetPoint" />
          </mxGeometry>
        </mxCell>
        <mxCell id="0Ep_V3U1J2-gXRXQqFik-1305" value="" style="endArrow=none;html=1;strokeColor=#004C99;exitX=0.5;exitY=0;exitDx=0;exitDy=0;entryX=0.5;entryY=1;entryDx=0;entryDy=0;" edge="1" parent="1" source="0Ep_V3U1J2-gXRXQqFik-1303">
          <mxGeometry width="50" height="50" relative="1" as="geometry">
            <mxPoint x="810" y="330" as="sourcePoint" />
            <mxPoint x="495" y="250" as="targetPoint" />
          </mxGeometry>
        </mxCell>
        <mxCell id="0Ep_V3U1J2-gXRXQqFik-1306" value="" style="endArrow=none;html=1;strokeColor=#004C99;exitX=0.5;exitY=0;exitDx=0;exitDy=0;entryX=0.5;entryY=1;entryDx=0;entryDy=0;" edge="1" parent="1" source="0Ep_V3U1J2-gXRXQqFik-1303">
          <mxGeometry width="50" height="50" relative="1" as="geometry">
            <mxPoint x="820" y="340" as="sourcePoint" />
            <mxPoint x="520" y="250" as="targetPoint" />
          </mxGeometry>
        </mxCell>
        <mxCell id="0Ep_V3U1J2-gXRXQqFik-1307" value="" style="endArrow=none;html=1;strokeColor=#004C99;exitX=0.5;exitY=0;exitDx=0;exitDy=0;entryX=0.5;entryY=1;entryDx=0;entryDy=0;" edge="1" parent="1" source="0Ep_V3U1J2-gXRXQqFik-1303">
          <mxGeometry width="50" height="50" relative="1" as="geometry">
            <mxPoint x="830" y="350" as="sourcePoint" />
            <mxPoint x="545" y="250" as="targetPoint" />
          </mxGeometry>
        </mxCell>
        <mxCell id="0Ep_V3U1J2-gXRXQqFik-1310" value="" style="ellipse;whiteSpace=wrap;html=1;strokeWidth=1;flipH=0;flipV=1;strokeColor=#004C99;" vertex="1" parent="1">
          <mxGeometry x="510" y="300" width="20" height="20" as="geometry" />
        </mxCell>
        <mxCell id="0Ep_V3U1J2-gXRXQqFik-1311" value="" style="endArrow=none;html=1;strokeColor=#004C99;entryX=0.5;entryY=1;entryDx=0;entryDy=0;exitX=0.5;exitY=0;exitDx=0;exitDy=0;" edge="1" parent="1" source="0Ep_V3U1J2-gXRXQqFik-1310">
          <mxGeometry width="50" height="50" relative="1" as="geometry">
            <mxPoint x="810" y="330" as="sourcePoint" />
            <mxPoint x="470" y="250" as="targetPoint" />
          </mxGeometry>
        </mxCell>
        <mxCell id="0Ep_V3U1J2-gXRXQqFik-1312" value="" style="endArrow=none;html=1;strokeColor=#004C99;exitX=0.5;exitY=0;exitDx=0;exitDy=0;entryX=0.5;entryY=1;entryDx=0;entryDy=0;" edge="1" parent="1" source="0Ep_V3U1J2-gXRXQqFik-1310">
          <mxGeometry width="50" height="50" relative="1" as="geometry">
            <mxPoint x="810" y="330" as="sourcePoint" />
            <mxPoint x="495" y="250" as="targetPoint" />
          </mxGeometry>
        </mxCell>
        <mxCell id="0Ep_V3U1J2-gXRXQqFik-1313" value="" style="endArrow=none;html=1;strokeColor=#004C99;exitX=0.5;exitY=0;exitDx=0;exitDy=0;entryX=0.5;entryY=1;entryDx=0;entryDy=0;" edge="1" parent="1" source="0Ep_V3U1J2-gXRXQqFik-1310">
          <mxGeometry width="50" height="50" relative="1" as="geometry">
            <mxPoint x="820" y="340" as="sourcePoint" />
            <mxPoint x="520" y="250" as="targetPoint" />
          </mxGeometry>
        </mxCell>
        <mxCell id="0Ep_V3U1J2-gXRXQqFik-1314" value="" style="endArrow=none;html=1;strokeColor=#004C99;exitX=0.5;exitY=0;exitDx=0;exitDy=0;entryX=0.5;entryY=1;entryDx=0;entryDy=0;" edge="1" parent="1" source="0Ep_V3U1J2-gXRXQqFik-1310">
          <mxGeometry width="50" height="50" relative="1" as="geometry">
            <mxPoint x="830" y="350" as="sourcePoint" />
            <mxPoint x="545" y="250" as="targetPoint" />
          </mxGeometry>
        </mxCell>
        <mxCell id="0Ep_V3U1J2-gXRXQqFik-1317" value="" style="ellipse;whiteSpace=wrap;html=1;strokeWidth=1;flipH=0;flipV=1;strokeColor=#004C99;" vertex="1" parent="1">
          <mxGeometry x="485" y="300" width="20" height="20" as="geometry" />
        </mxCell>
        <mxCell id="0Ep_V3U1J2-gXRXQqFik-1318" value="" style="endArrow=none;html=1;strokeColor=#004C99;entryX=0.5;entryY=1;entryDx=0;entryDy=0;exitX=0.5;exitY=0;exitDx=0;exitDy=0;" edge="1" parent="1" source="0Ep_V3U1J2-gXRXQqFik-1317">
          <mxGeometry width="50" height="50" relative="1" as="geometry">
            <mxPoint x="810" y="330" as="sourcePoint" />
            <mxPoint x="470" y="250" as="targetPoint" />
          </mxGeometry>
        </mxCell>
        <mxCell id="0Ep_V3U1J2-gXRXQqFik-1319" value="" style="endArrow=none;html=1;strokeColor=#004C99;exitX=0.5;exitY=0;exitDx=0;exitDy=0;entryX=0.5;entryY=1;entryDx=0;entryDy=0;" edge="1" parent="1" source="0Ep_V3U1J2-gXRXQqFik-1317">
          <mxGeometry width="50" height="50" relative="1" as="geometry">
            <mxPoint x="810" y="330" as="sourcePoint" />
            <mxPoint x="495" y="250" as="targetPoint" />
          </mxGeometry>
        </mxCell>
        <mxCell id="0Ep_V3U1J2-gXRXQqFik-1320" value="" style="endArrow=none;html=1;strokeColor=#004C99;exitX=0.5;exitY=0;exitDx=0;exitDy=0;entryX=0.5;entryY=1;entryDx=0;entryDy=0;" edge="1" parent="1" source="0Ep_V3U1J2-gXRXQqFik-1317">
          <mxGeometry width="50" height="50" relative="1" as="geometry">
            <mxPoint x="820" y="340" as="sourcePoint" />
            <mxPoint x="520" y="250" as="targetPoint" />
          </mxGeometry>
        </mxCell>
        <mxCell id="0Ep_V3U1J2-gXRXQqFik-1321" value="" style="endArrow=none;html=1;strokeColor=#004C99;exitX=0.5;exitY=0;exitDx=0;exitDy=0;entryX=0.5;entryY=1;entryDx=0;entryDy=0;" edge="1" parent="1" source="0Ep_V3U1J2-gXRXQqFik-1317">
          <mxGeometry width="50" height="50" relative="1" as="geometry">
            <mxPoint x="830" y="350" as="sourcePoint" />
            <mxPoint x="545" y="250" as="targetPoint" />
          </mxGeometry>
        </mxCell>
        <mxCell id="0Ep_V3U1J2-gXRXQqFik-1325" value="" style="ellipse;whiteSpace=wrap;html=1;strokeWidth=1;flipH=0;flipV=1;strokeColor=#004C99;" vertex="1" parent="1">
          <mxGeometry x="680" y="300" width="20" height="20" as="geometry" />
        </mxCell>
        <mxCell id="0Ep_V3U1J2-gXRXQqFik-1326" value="cat" style="ellipse;whiteSpace=wrap;html=1;strokeWidth=1;flipH=0;flipV=1;strokeColor=#004C99;" vertex="1" parent="1">
          <mxGeometry x="755" y="370" width="20" height="20" as="geometry" />
        </mxCell>
        <mxCell id="0Ep_V3U1J2-gXRXQqFik-1327" value="dog" style="ellipse;whiteSpace=wrap;html=1;strokeWidth=1;flipH=0;flipV=1;strokeColor=#004C99;" vertex="1" parent="1">
          <mxGeometry x="780" y="370" width="20" height="20" as="geometry" />
        </mxCell>
        <mxCell id="0Ep_V3U1J2-gXRXQqFik-1328" value="" style="endArrow=none;html=1;entryX=0.5;entryY=1;entryDx=0;entryDy=0;exitX=0.5;exitY=0;exitDx=0;exitDy=0;strokeColor=#004C99;" edge="1" parent="1" source="0Ep_V3U1J2-gXRXQqFik-1326" target="0Ep_V3U1J2-gXRXQqFik-1325">
          <mxGeometry width="50" height="50" relative="1" as="geometry">
            <mxPoint x="1030" y="600" as="sourcePoint" />
            <mxPoint x="1080" y="550" as="targetPoint" />
          </mxGeometry>
        </mxCell>
        <mxCell id="0Ep_V3U1J2-gXRXQqFik-1329" value="" style="endArrow=none;html=1;strokeColor=#004C99;exitX=0.5;exitY=1;exitDx=0;exitDy=0;entryX=0.5;entryY=0;entryDx=0;entryDy=0;" edge="1" parent="1" target="0Ep_V3U1J2-gXRXQqFik-1326">
          <mxGeometry width="50" height="50" relative="1" as="geometry">
            <mxPoint x="715" y="320" as="sourcePoint" />
            <mxPoint x="940" y="460" as="targetPoint" />
          </mxGeometry>
        </mxCell>
        <mxCell id="0Ep_V3U1J2-gXRXQqFik-1330" value="" style="endArrow=none;html=1;strokeColor=#004C99;exitX=0.5;exitY=0;exitDx=0;exitDy=0;entryX=0.5;entryY=1;entryDx=0;entryDy=0;" edge="1" parent="1" source="0Ep_V3U1J2-gXRXQqFik-1326">
          <mxGeometry width="50" height="50" relative="1" as="geometry">
            <mxPoint x="790" y="410" as="sourcePoint" />
            <mxPoint x="790" y="320" as="targetPoint" />
          </mxGeometry>
        </mxCell>
        <mxCell id="0Ep_V3U1J2-gXRXQqFik-1331" value="" style="endArrow=none;html=1;strokeColor=#004C99;exitX=0.5;exitY=0;exitDx=0;exitDy=0;entryX=0.5;entryY=1;entryDx=0;entryDy=0;" edge="1" parent="1" source="0Ep_V3U1J2-gXRXQqFik-1326">
          <mxGeometry width="50" height="50" relative="1" as="geometry">
            <mxPoint x="825" y="390" as="sourcePoint" />
            <mxPoint x="765" y="320" as="targetPoint" />
          </mxGeometry>
        </mxCell>
        <mxCell id="0Ep_V3U1J2-gXRXQqFik-1332" value="" style="endArrow=none;html=1;strokeColor=#004C99;exitX=0.5;exitY=0;exitDx=0;exitDy=0;entryX=0.5;entryY=1;entryDx=0;entryDy=0;" edge="1" parent="1" source="0Ep_V3U1J2-gXRXQqFik-1326">
          <mxGeometry width="50" height="50" relative="1" as="geometry">
            <mxPoint x="815" y="405" as="sourcePoint" />
            <mxPoint x="815" y="320" as="targetPoint" />
          </mxGeometry>
        </mxCell>
        <mxCell id="0Ep_V3U1J2-gXRXQqFik-1333" value="" style="endArrow=none;html=1;strokeColor=#004C99;exitX=0.5;exitY=0;exitDx=0;exitDy=0;entryX=0.5;entryY=1;entryDx=0;entryDy=0;" edge="1" parent="1" source="0Ep_V3U1J2-gXRXQqFik-1326">
          <mxGeometry width="50" height="50" relative="1" as="geometry">
            <mxPoint x="815" y="370" as="sourcePoint" />
            <mxPoint x="840" y="320" as="targetPoint" />
          </mxGeometry>
        </mxCell>
        <mxCell id="0Ep_V3U1J2-gXRXQqFik-1334" value="" style="endArrow=none;html=1;strokeColor=#004C99;exitX=0.5;exitY=0;exitDx=0;exitDy=0;entryX=0.5;entryY=1;entryDx=0;entryDy=0;" edge="1" parent="1" source="0Ep_V3U1J2-gXRXQqFik-1326">
          <mxGeometry width="50" height="50" relative="1" as="geometry">
            <mxPoint x="830" y="450" as="sourcePoint" />
            <mxPoint x="865" y="320" as="targetPoint" />
          </mxGeometry>
        </mxCell>
        <mxCell id="0Ep_V3U1J2-gXRXQqFik-1335" value="" style="endArrow=none;html=1;strokeColor=#004C99;exitX=0.5;exitY=0;exitDx=0;exitDy=0;entryX=0.5;entryY=1;entryDx=0;entryDy=0;" edge="1" parent="1" source="0Ep_V3U1J2-gXRXQqFik-1326">
          <mxGeometry width="50" height="50" relative="1" as="geometry">
            <mxPoint x="740" y="510" as="sourcePoint" />
            <mxPoint x="740" y="320" as="targetPoint" />
          </mxGeometry>
        </mxCell>
        <mxCell id="0Ep_V3U1J2-gXRXQqFik-1336" value="" style="endArrow=none;html=1;entryX=0.5;entryY=1;entryDx=0;entryDy=0;exitX=0.5;exitY=0;exitDx=0;exitDy=0;strokeColor=#004C99;startFill=1;fixDash=0;" edge="1" parent="1" source="0Ep_V3U1J2-gXRXQqFik-1327" target="0Ep_V3U1J2-gXRXQqFik-1325">
          <mxGeometry width="50" height="50" relative="1" as="geometry">
            <mxPoint x="815" y="460" as="sourcePoint" />
            <mxPoint x="740" y="410" as="targetPoint" />
          </mxGeometry>
        </mxCell>
        <mxCell id="0Ep_V3U1J2-gXRXQqFik-1337" value="" style="endArrow=none;html=1;strokeColor=#004C99;exitX=0.5;exitY=1;exitDx=0;exitDy=0;startFill=1;fixDash=0;" edge="1" parent="1">
          <mxGeometry width="50" height="50" relative="1" as="geometry">
            <mxPoint x="715" y="320" as="sourcePoint" />
            <mxPoint x="790" y="370" as="targetPoint" />
          </mxGeometry>
        </mxCell>
        <mxCell id="0Ep_V3U1J2-gXRXQqFik-1338" value="" style="endArrow=none;html=1;strokeColor=#004C99;exitX=0.5;exitY=0;exitDx=0;exitDy=0;entryX=0.5;entryY=1;entryDx=0;entryDy=0;startFill=1;fixDash=0;" edge="1" parent="1" source="0Ep_V3U1J2-gXRXQqFik-1327">
          <mxGeometry width="50" height="50" relative="1" as="geometry">
            <mxPoint x="815" y="460" as="sourcePoint" />
            <mxPoint x="790" y="320" as="targetPoint" />
          </mxGeometry>
        </mxCell>
        <mxCell id="0Ep_V3U1J2-gXRXQqFik-1339" value="" style="endArrow=none;html=1;strokeColor=#004C99;exitX=0.5;exitY=0;exitDx=0;exitDy=0;entryX=0.5;entryY=1;entryDx=0;entryDy=0;startFill=1;fixDash=0;" edge="1" parent="1" source="0Ep_V3U1J2-gXRXQqFik-1327">
          <mxGeometry width="50" height="50" relative="1" as="geometry">
            <mxPoint x="815" y="460" as="sourcePoint" />
            <mxPoint x="765" y="320" as="targetPoint" />
          </mxGeometry>
        </mxCell>
        <mxCell id="0Ep_V3U1J2-gXRXQqFik-1340" value="" style="endArrow=none;html=1;strokeColor=#004C99;exitX=0.5;exitY=0;exitDx=0;exitDy=0;entryX=0.5;entryY=1;entryDx=0;entryDy=0;startFill=1;fixDash=0;" edge="1" parent="1" source="0Ep_V3U1J2-gXRXQqFik-1327">
          <mxGeometry width="50" height="50" relative="1" as="geometry">
            <mxPoint x="815" y="460" as="sourcePoint" />
            <mxPoint x="815" y="320" as="targetPoint" />
          </mxGeometry>
        </mxCell>
        <mxCell id="0Ep_V3U1J2-gXRXQqFik-1341" value="" style="endArrow=none;html=1;strokeColor=#004C99;exitX=0.5;exitY=0;exitDx=0;exitDy=0;entryX=0.5;entryY=1;entryDx=0;entryDy=0;startFill=1;fixDash=0;" edge="1" parent="1" source="0Ep_V3U1J2-gXRXQqFik-1327">
          <mxGeometry width="50" height="50" relative="1" as="geometry">
            <mxPoint x="815" y="460" as="sourcePoint" />
            <mxPoint x="840" y="320" as="targetPoint" />
          </mxGeometry>
        </mxCell>
        <mxCell id="0Ep_V3U1J2-gXRXQqFik-1342" value="" style="endArrow=none;html=1;strokeColor=#004C99;exitX=0.5;exitY=0;exitDx=0;exitDy=0;entryX=0.5;entryY=1;entryDx=0;entryDy=0;startFill=1;fixDash=0;" edge="1" parent="1" source="0Ep_V3U1J2-gXRXQqFik-1327">
          <mxGeometry width="50" height="50" relative="1" as="geometry">
            <mxPoint x="815" y="460" as="sourcePoint" />
            <mxPoint x="865" y="320" as="targetPoint" />
          </mxGeometry>
        </mxCell>
        <mxCell id="0Ep_V3U1J2-gXRXQqFik-1343" value="" style="endArrow=none;html=1;strokeColor=#004C99;exitX=0.5;exitY=0;exitDx=0;exitDy=0;entryX=0.5;entryY=1;entryDx=0;entryDy=0;startFill=1;fixDash=0;" edge="1" parent="1" source="0Ep_V3U1J2-gXRXQqFik-1327">
          <mxGeometry width="50" height="50" relative="1" as="geometry">
            <mxPoint x="815" y="460" as="sourcePoint" />
            <mxPoint x="740" y="320" as="targetPoint" />
          </mxGeometry>
        </mxCell>
        <mxCell id="0Ep_V3U1J2-gXRXQqFik-1344" value="" style="ellipse;whiteSpace=wrap;html=1;strokeWidth=1;flipH=0;flipV=0;strokeColor=#004C99;" vertex="1" parent="1">
          <mxGeometry x="680" y="230" width="20" height="20" as="geometry" />
        </mxCell>
        <mxCell id="0Ep_V3U1J2-gXRXQqFik-1345" value="" style="endArrow=none;html=1;strokeColor=#004C99;entryX=0.5;entryY=1;entryDx=0;entryDy=0;exitX=0.5;exitY=0;exitDx=0;exitDy=0;" edge="1" parent="1" source="0Ep_V3U1J2-gXRXQqFik-1325" target="0Ep_V3U1J2-gXRXQqFik-1344">
          <mxGeometry width="50" height="50" relative="1" as="geometry">
            <mxPoint x="1030" y="330" as="sourcePoint" />
            <mxPoint x="1080" y="280" as="targetPoint" />
          </mxGeometry>
        </mxCell>
        <mxCell id="0Ep_V3U1J2-gXRXQqFik-1346" value="" style="ellipse;whiteSpace=wrap;html=1;strokeWidth=1;flipH=0;flipV=0;strokeColor=#004C99;" vertex="1" parent="1">
          <mxGeometry x="705" y="230" width="20" height="20" as="geometry" />
        </mxCell>
        <mxCell id="0Ep_V3U1J2-gXRXQqFik-1347" value="" style="ellipse;whiteSpace=wrap;html=1;strokeWidth=1;flipH=0;flipV=0;strokeColor=#66B2FF;dashed=1;dashPattern=1 1;" vertex="1" parent="1">
          <mxGeometry x="730" y="230" width="20" height="20" as="geometry" />
        </mxCell>
        <mxCell id="0Ep_V3U1J2-gXRXQqFik-1348" value="" style="ellipse;whiteSpace=wrap;html=1;strokeWidth=1;flipH=0;flipV=0;strokeColor=#66B2FF;dashed=1;dashPattern=1 1;" vertex="1" parent="1">
          <mxGeometry x="755" y="230" width="20" height="20" as="geometry" />
        </mxCell>
        <mxCell id="0Ep_V3U1J2-gXRXQqFik-1349" value="" style="ellipse;whiteSpace=wrap;html=1;strokeWidth=1;flipH=0;flipV=0;strokeColor=#66B2FF;dashed=1;dashPattern=1 1;" vertex="1" parent="1">
          <mxGeometry x="780" y="230" width="20" height="20" as="geometry" />
        </mxCell>
        <mxCell id="0Ep_V3U1J2-gXRXQqFik-1350" value="" style="ellipse;whiteSpace=wrap;html=1;strokeWidth=1;flipH=0;flipV=0;strokeColor=#66B2FF;dashed=1;dashPattern=1 1;" vertex="1" parent="1">
          <mxGeometry x="805" y="230" width="20" height="20" as="geometry" />
        </mxCell>
        <mxCell id="0Ep_V3U1J2-gXRXQqFik-1351" value="" style="ellipse;whiteSpace=wrap;html=1;strokeWidth=1;flipH=0;flipV=0;strokeColor=#66B2FF;dashed=1;dashPattern=1 1;" vertex="1" parent="1">
          <mxGeometry x="830" y="230" width="20" height="20" as="geometry" />
        </mxCell>
        <mxCell id="0Ep_V3U1J2-gXRXQqFik-1352" value="" style="endArrow=none;html=1;strokeColor=#004C99;exitX=0.5;exitY=0;exitDx=0;exitDy=0;entryX=0.5;entryY=1;entryDx=0;entryDy=0;" edge="1" parent="1" source="0Ep_V3U1J2-gXRXQqFik-1325" target="0Ep_V3U1J2-gXRXQqFik-1346">
          <mxGeometry width="50" height="50" relative="1" as="geometry">
            <mxPoint x="1030" y="330" as="sourcePoint" />
            <mxPoint x="1080" y="280" as="targetPoint" />
          </mxGeometry>
        </mxCell>
        <mxCell id="0Ep_V3U1J2-gXRXQqFik-1358" value="" style="ellipse;whiteSpace=wrap;html=1;strokeWidth=1;flipH=0;flipV=1;strokeColor=#004C99;" vertex="1" parent="1">
          <mxGeometry x="680" y="300" width="20" height="20" as="geometry" />
        </mxCell>
        <mxCell id="0Ep_V3U1J2-gXRXQqFik-1359" value="" style="ellipse;whiteSpace=wrap;html=1;strokeWidth=1;flipH=0;flipV=0;strokeColor=#004C99;" vertex="1" parent="1">
          <mxGeometry x="680" y="230" width="20" height="20" as="geometry" />
        </mxCell>
        <mxCell id="0Ep_V3U1J2-gXRXQqFik-1360" value="" style="endArrow=none;html=1;strokeColor=#004C99;entryX=0.5;entryY=1;entryDx=0;entryDy=0;exitX=0.5;exitY=0;exitDx=0;exitDy=0;" edge="1" parent="1" source="0Ep_V3U1J2-gXRXQqFik-1358" target="0Ep_V3U1J2-gXRXQqFik-1359">
          <mxGeometry width="50" height="50" relative="1" as="geometry">
            <mxPoint x="1030" y="330" as="sourcePoint" />
            <mxPoint x="1080" y="280" as="targetPoint" />
          </mxGeometry>
        </mxCell>
        <mxCell id="0Ep_V3U1J2-gXRXQqFik-1361" value="" style="ellipse;whiteSpace=wrap;html=1;strokeWidth=1;flipH=0;flipV=0;strokeColor=#004C99;" vertex="1" parent="1">
          <mxGeometry x="705" y="230" width="20" height="20" as="geometry" />
        </mxCell>
        <mxCell id="0Ep_V3U1J2-gXRXQqFik-1362" value="" style="ellipse;whiteSpace=wrap;html=1;strokeWidth=1;flipH=0;flipV=0;strokeColor=#66B2FF;dashed=1;dashPattern=1 1;" vertex="1" parent="1">
          <mxGeometry x="730" y="230" width="20" height="20" as="geometry" />
        </mxCell>
        <mxCell id="0Ep_V3U1J2-gXRXQqFik-1363" value="" style="ellipse;whiteSpace=wrap;html=1;strokeWidth=1;flipH=0;flipV=0;strokeColor=#66B2FF;dashed=1;dashPattern=1 1;" vertex="1" parent="1">
          <mxGeometry x="755" y="230" width="20" height="20" as="geometry" />
        </mxCell>
        <mxCell id="0Ep_V3U1J2-gXRXQqFik-1364" value="" style="ellipse;whiteSpace=wrap;html=1;strokeWidth=1;flipH=0;flipV=0;strokeColor=#66B2FF;dashed=1;dashPattern=1 1;" vertex="1" parent="1">
          <mxGeometry x="780" y="230" width="20" height="20" as="geometry" />
        </mxCell>
        <mxCell id="0Ep_V3U1J2-gXRXQqFik-1365" value="" style="ellipse;whiteSpace=wrap;html=1;strokeWidth=1;flipH=0;flipV=0;strokeColor=#66B2FF;dashed=1;dashPattern=1 1;" vertex="1" parent="1">
          <mxGeometry x="805" y="230" width="20" height="20" as="geometry" />
        </mxCell>
        <mxCell id="0Ep_V3U1J2-gXRXQqFik-1366" value="" style="ellipse;whiteSpace=wrap;html=1;strokeWidth=1;flipH=0;flipV=0;strokeColor=#66B2FF;dashed=1;dashPattern=1 1;" vertex="1" parent="1">
          <mxGeometry x="855" y="230" width="20" height="20" as="geometry" />
        </mxCell>
        <mxCell id="0Ep_V3U1J2-gXRXQqFik-1373" value="" style="ellipse;whiteSpace=wrap;html=1;strokeWidth=1;flipH=0;flipV=1;strokeColor=#004C99;" vertex="1" parent="1">
          <mxGeometry x="680" y="300" width="20" height="20" as="geometry" />
        </mxCell>
        <mxCell id="0Ep_V3U1J2-gXRXQqFik-1374" value="" style="endArrow=none;html=1;strokeColor=#004C99;entryX=0.5;entryY=1;entryDx=0;entryDy=0;exitX=0.5;exitY=0;exitDx=0;exitDy=0;" edge="1" parent="1" source="0Ep_V3U1J2-gXRXQqFik-1373">
          <mxGeometry width="50" height="50" relative="1" as="geometry">
            <mxPoint x="1030" y="330" as="sourcePoint" />
            <mxPoint x="690" y="250" as="targetPoint" />
          </mxGeometry>
        </mxCell>
        <mxCell id="0Ep_V3U1J2-gXRXQqFik-1381" value="" style="ellipse;whiteSpace=wrap;html=1;strokeWidth=1;flipH=0;flipV=1;strokeColor=#004C99;" vertex="1" parent="1">
          <mxGeometry x="680" y="300" width="20" height="20" as="geometry" />
        </mxCell>
        <mxCell id="0Ep_V3U1J2-gXRXQqFik-1382" value="" style="endArrow=none;html=1;strokeColor=#004C99;entryX=0.5;entryY=1;entryDx=0;entryDy=0;exitX=0.5;exitY=0;exitDx=0;exitDy=0;" edge="1" parent="1" source="0Ep_V3U1J2-gXRXQqFik-1381">
          <mxGeometry width="50" height="50" relative="1" as="geometry">
            <mxPoint x="1030" y="330" as="sourcePoint" />
            <mxPoint x="690" y="250" as="targetPoint" />
          </mxGeometry>
        </mxCell>
        <mxCell id="0Ep_V3U1J2-gXRXQqFik-1389" value="" style="ellipse;whiteSpace=wrap;html=1;strokeWidth=1;flipH=0;flipV=1;strokeColor=#004C99;" vertex="1" parent="1">
          <mxGeometry x="680" y="300" width="20" height="20" as="geometry" />
        </mxCell>
        <mxCell id="0Ep_V3U1J2-gXRXQqFik-1390" value="" style="endArrow=none;html=1;strokeColor=#004C99;entryX=0.5;entryY=1;entryDx=0;entryDy=0;exitX=0.5;exitY=0;exitDx=0;exitDy=0;" edge="1" parent="1" source="0Ep_V3U1J2-gXRXQqFik-1389">
          <mxGeometry width="50" height="50" relative="1" as="geometry">
            <mxPoint x="1030" y="330" as="sourcePoint" />
            <mxPoint x="690" y="250" as="targetPoint" />
          </mxGeometry>
        </mxCell>
        <mxCell id="0Ep_V3U1J2-gXRXQqFik-1397" value="" style="ellipse;whiteSpace=wrap;html=1;strokeWidth=1;flipH=0;flipV=1;strokeColor=#004C99;" vertex="1" parent="1">
          <mxGeometry x="680" y="300" width="20" height="20" as="geometry" />
        </mxCell>
        <mxCell id="0Ep_V3U1J2-gXRXQqFik-1398" value="" style="endArrow=none;html=1;strokeColor=#004C99;entryX=0.5;entryY=1;entryDx=0;entryDy=0;exitX=0.5;exitY=0;exitDx=0;exitDy=0;" edge="1" parent="1" source="0Ep_V3U1J2-gXRXQqFik-1397">
          <mxGeometry width="50" height="50" relative="1" as="geometry">
            <mxPoint x="1030" y="330" as="sourcePoint" />
            <mxPoint x="690" y="250" as="targetPoint" />
          </mxGeometry>
        </mxCell>
        <mxCell id="0Ep_V3U1J2-gXRXQqFik-1405" value="" style="ellipse;whiteSpace=wrap;html=1;strokeWidth=1;flipH=0;flipV=1;strokeColor=#004C99;" vertex="1" parent="1">
          <mxGeometry x="680" y="300" width="20" height="20" as="geometry" />
        </mxCell>
        <mxCell id="0Ep_V3U1J2-gXRXQqFik-1406" value="" style="endArrow=none;html=1;strokeColor=#004C99;entryX=0.5;entryY=1;entryDx=0;entryDy=0;exitX=0.5;exitY=0;exitDx=0;exitDy=0;" edge="1" parent="1" source="0Ep_V3U1J2-gXRXQqFik-1405">
          <mxGeometry width="50" height="50" relative="1" as="geometry">
            <mxPoint x="1030" y="330" as="sourcePoint" />
            <mxPoint x="690" y="250" as="targetPoint" />
          </mxGeometry>
        </mxCell>
        <mxCell id="0Ep_V3U1J2-gXRXQqFik-1413" value="" style="ellipse;whiteSpace=wrap;html=1;strokeWidth=1;flipH=0;flipV=1;strokeColor=#004C99;" vertex="1" parent="1">
          <mxGeometry x="680" y="300" width="20" height="20" as="geometry" />
        </mxCell>
        <mxCell id="0Ep_V3U1J2-gXRXQqFik-1414" value="" style="endArrow=none;html=1;strokeColor=#004C99;entryX=0.5;entryY=1;entryDx=0;entryDy=0;exitX=0.5;exitY=0;exitDx=0;exitDy=0;" edge="1" parent="1" source="0Ep_V3U1J2-gXRXQqFik-1413">
          <mxGeometry width="50" height="50" relative="1" as="geometry">
            <mxPoint x="1030" y="330" as="sourcePoint" />
            <mxPoint x="690" y="250" as="targetPoint" />
          </mxGeometry>
        </mxCell>
        <mxCell id="0Ep_V3U1J2-gXRXQqFik-1421" value="" style="ellipse;whiteSpace=wrap;html=1;strokeWidth=1;flipH=0;flipV=1;strokeColor=#004C99;" vertex="1" parent="1">
          <mxGeometry x="680" y="300" width="20" height="20" as="geometry" />
        </mxCell>
        <mxCell id="0Ep_V3U1J2-gXRXQqFik-1422" value="" style="endArrow=none;html=1;strokeColor=#004C99;entryX=0.5;entryY=1;entryDx=0;entryDy=0;exitX=0.5;exitY=0;exitDx=0;exitDy=0;" edge="1" parent="1" source="0Ep_V3U1J2-gXRXQqFik-1421">
          <mxGeometry width="50" height="50" relative="1" as="geometry">
            <mxPoint x="1030" y="330" as="sourcePoint" />
            <mxPoint x="690" y="250" as="targetPoint" />
          </mxGeometry>
        </mxCell>
        <mxCell id="0Ep_V3U1J2-gXRXQqFik-1429" value="" style="ellipse;whiteSpace=wrap;html=1;strokeWidth=1;flipH=0;flipV=1;strokeColor=#004C99;" vertex="1" parent="1">
          <mxGeometry x="855" y="300" width="20" height="20" as="geometry" />
        </mxCell>
        <mxCell id="0Ep_V3U1J2-gXRXQqFik-1430" value="" style="endArrow=none;html=1;strokeColor=#004C99;entryX=0.5;entryY=1;entryDx=0;entryDy=0;exitX=0.5;exitY=0;exitDx=0;exitDy=0;" edge="1" parent="1" source="0Ep_V3U1J2-gXRXQqFik-1429">
          <mxGeometry width="50" height="50" relative="1" as="geometry">
            <mxPoint x="1030" y="330" as="sourcePoint" />
            <mxPoint x="690" y="250" as="targetPoint" />
          </mxGeometry>
        </mxCell>
        <mxCell id="0Ep_V3U1J2-gXRXQqFik-1431" value="" style="endArrow=none;html=1;strokeColor=#004C99;exitX=0.5;exitY=0;exitDx=0;exitDy=0;entryX=0.5;entryY=1;entryDx=0;entryDy=0;" edge="1" parent="1" source="0Ep_V3U1J2-gXRXQqFik-1429">
          <mxGeometry width="50" height="50" relative="1" as="geometry">
            <mxPoint x="1030" y="330" as="sourcePoint" />
            <mxPoint x="715" y="250" as="targetPoint" />
          </mxGeometry>
        </mxCell>
        <mxCell id="0Ep_V3U1J2-gXRXQqFik-1437" value="" style="ellipse;whiteSpace=wrap;html=1;strokeWidth=1;flipH=0;flipV=1;strokeColor=#004C99;" vertex="1" parent="1">
          <mxGeometry x="830" y="300" width="20" height="20" as="geometry" />
        </mxCell>
        <mxCell id="0Ep_V3U1J2-gXRXQqFik-1438" value="" style="endArrow=none;html=1;strokeColor=#004C99;entryX=0.5;entryY=1;entryDx=0;entryDy=0;exitX=0.5;exitY=0;exitDx=0;exitDy=0;" edge="1" parent="1" source="0Ep_V3U1J2-gXRXQqFik-1437">
          <mxGeometry width="50" height="50" relative="1" as="geometry">
            <mxPoint x="1030" y="330" as="sourcePoint" />
            <mxPoint x="690" y="250" as="targetPoint" />
          </mxGeometry>
        </mxCell>
        <mxCell id="0Ep_V3U1J2-gXRXQqFik-1439" value="" style="endArrow=none;html=1;strokeColor=#004C99;exitX=0.5;exitY=0;exitDx=0;exitDy=0;entryX=0.5;entryY=1;entryDx=0;entryDy=0;" edge="1" parent="1" source="0Ep_V3U1J2-gXRXQqFik-1437">
          <mxGeometry width="50" height="50" relative="1" as="geometry">
            <mxPoint x="1030" y="330" as="sourcePoint" />
            <mxPoint x="715" y="250" as="targetPoint" />
          </mxGeometry>
        </mxCell>
        <mxCell id="0Ep_V3U1J2-gXRXQqFik-1445" value="" style="ellipse;whiteSpace=wrap;html=1;strokeWidth=1;flipH=0;flipV=1;strokeColor=#004C99;" vertex="1" parent="1">
          <mxGeometry x="805" y="300" width="20" height="20" as="geometry" />
        </mxCell>
        <mxCell id="0Ep_V3U1J2-gXRXQqFik-1446" value="" style="endArrow=none;html=1;strokeColor=#004C99;entryX=0.5;entryY=1;entryDx=0;entryDy=0;exitX=0.5;exitY=0;exitDx=0;exitDy=0;" edge="1" parent="1" source="0Ep_V3U1J2-gXRXQqFik-1445">
          <mxGeometry width="50" height="50" relative="1" as="geometry">
            <mxPoint x="1030" y="330" as="sourcePoint" />
            <mxPoint x="690" y="250" as="targetPoint" />
          </mxGeometry>
        </mxCell>
        <mxCell id="0Ep_V3U1J2-gXRXQqFik-1447" value="" style="endArrow=none;html=1;strokeColor=#004C99;exitX=0.5;exitY=0;exitDx=0;exitDy=0;entryX=0.5;entryY=1;entryDx=0;entryDy=0;" edge="1" parent="1" source="0Ep_V3U1J2-gXRXQqFik-1445">
          <mxGeometry width="50" height="50" relative="1" as="geometry">
            <mxPoint x="1030" y="330" as="sourcePoint" />
            <mxPoint x="715" y="250" as="targetPoint" />
          </mxGeometry>
        </mxCell>
        <mxCell id="0Ep_V3U1J2-gXRXQqFik-1453" value="" style="ellipse;whiteSpace=wrap;html=1;strokeWidth=1;flipH=0;flipV=1;strokeColor=#004C99;" vertex="1" parent="1">
          <mxGeometry x="780" y="300" width="20" height="20" as="geometry" />
        </mxCell>
        <mxCell id="0Ep_V3U1J2-gXRXQqFik-1454" value="" style="endArrow=none;html=1;strokeColor=#004C99;entryX=0.5;entryY=1;entryDx=0;entryDy=0;exitX=0.5;exitY=0;exitDx=0;exitDy=0;" edge="1" parent="1" source="0Ep_V3U1J2-gXRXQqFik-1453">
          <mxGeometry width="50" height="50" relative="1" as="geometry">
            <mxPoint x="1030" y="330" as="sourcePoint" />
            <mxPoint x="690" y="250" as="targetPoint" />
          </mxGeometry>
        </mxCell>
        <mxCell id="0Ep_V3U1J2-gXRXQqFik-1455" value="" style="endArrow=none;html=1;strokeColor=#004C99;exitX=0.5;exitY=0;exitDx=0;exitDy=0;entryX=0.5;entryY=1;entryDx=0;entryDy=0;" edge="1" parent="1" source="0Ep_V3U1J2-gXRXQqFik-1453">
          <mxGeometry width="50" height="50" relative="1" as="geometry">
            <mxPoint x="1030" y="330" as="sourcePoint" />
            <mxPoint x="715" y="250" as="targetPoint" />
          </mxGeometry>
        </mxCell>
        <mxCell id="0Ep_V3U1J2-gXRXQqFik-1461" value="" style="ellipse;whiteSpace=wrap;html=1;strokeWidth=1;flipH=0;flipV=1;strokeColor=#004C99;" vertex="1" parent="1">
          <mxGeometry x="755" y="300" width="20" height="20" as="geometry" />
        </mxCell>
        <mxCell id="0Ep_V3U1J2-gXRXQqFik-1462" value="" style="endArrow=none;html=1;strokeColor=#004C99;entryX=0.5;entryY=1;entryDx=0;entryDy=0;exitX=0.5;exitY=0;exitDx=0;exitDy=0;" edge="1" parent="1" source="0Ep_V3U1J2-gXRXQqFik-1461">
          <mxGeometry width="50" height="50" relative="1" as="geometry">
            <mxPoint x="1030" y="330" as="sourcePoint" />
            <mxPoint x="690" y="250" as="targetPoint" />
          </mxGeometry>
        </mxCell>
        <mxCell id="0Ep_V3U1J2-gXRXQqFik-1463" value="" style="endArrow=none;html=1;strokeColor=#004C99;exitX=0.5;exitY=0;exitDx=0;exitDy=0;entryX=0.5;entryY=1;entryDx=0;entryDy=0;" edge="1" parent="1" source="0Ep_V3U1J2-gXRXQqFik-1461">
          <mxGeometry width="50" height="50" relative="1" as="geometry">
            <mxPoint x="1030" y="330" as="sourcePoint" />
            <mxPoint x="715" y="250" as="targetPoint" />
          </mxGeometry>
        </mxCell>
        <mxCell id="0Ep_V3U1J2-gXRXQqFik-1469" value="" style="ellipse;whiteSpace=wrap;html=1;strokeWidth=1;flipH=0;flipV=1;strokeColor=#004C99;" vertex="1" parent="1">
          <mxGeometry x="730" y="300" width="20" height="20" as="geometry" />
        </mxCell>
        <mxCell id="0Ep_V3U1J2-gXRXQqFik-1470" value="" style="endArrow=none;html=1;strokeColor=#004C99;entryX=0.5;entryY=1;entryDx=0;entryDy=0;exitX=0.5;exitY=0;exitDx=0;exitDy=0;" edge="1" parent="1" source="0Ep_V3U1J2-gXRXQqFik-1469">
          <mxGeometry width="50" height="50" relative="1" as="geometry">
            <mxPoint x="1030" y="330" as="sourcePoint" />
            <mxPoint x="690" y="250" as="targetPoint" />
          </mxGeometry>
        </mxCell>
        <mxCell id="0Ep_V3U1J2-gXRXQqFik-1471" value="" style="endArrow=none;html=1;strokeColor=#004C99;exitX=0.5;exitY=0;exitDx=0;exitDy=0;entryX=0.5;entryY=1;entryDx=0;entryDy=0;" edge="1" parent="1" source="0Ep_V3U1J2-gXRXQqFik-1469">
          <mxGeometry width="50" height="50" relative="1" as="geometry">
            <mxPoint x="1030" y="330" as="sourcePoint" />
            <mxPoint x="715" y="250" as="targetPoint" />
          </mxGeometry>
        </mxCell>
        <mxCell id="0Ep_V3U1J2-gXRXQqFik-1477" value="" style="ellipse;whiteSpace=wrap;html=1;strokeWidth=1;flipH=0;flipV=1;strokeColor=#004C99;" vertex="1" parent="1">
          <mxGeometry x="705" y="300" width="20" height="20" as="geometry" />
        </mxCell>
        <mxCell id="0Ep_V3U1J2-gXRXQqFik-1478" value="" style="endArrow=none;html=1;strokeColor=#004C99;entryX=0.5;entryY=1;entryDx=0;entryDy=0;exitX=0.5;exitY=0;exitDx=0;exitDy=0;" edge="1" parent="1" source="0Ep_V3U1J2-gXRXQqFik-1477">
          <mxGeometry width="50" height="50" relative="1" as="geometry">
            <mxPoint x="1030" y="330" as="sourcePoint" />
            <mxPoint x="690" y="250" as="targetPoint" />
          </mxGeometry>
        </mxCell>
        <mxCell id="0Ep_V3U1J2-gXRXQqFik-1479" value="" style="endArrow=none;html=1;strokeColor=#004C99;exitX=0.5;exitY=0;exitDx=0;exitDy=0;entryX=0.5;entryY=1;entryDx=0;entryDy=0;" edge="1" parent="1" source="0Ep_V3U1J2-gXRXQqFik-1477">
          <mxGeometry width="50" height="50" relative="1" as="geometry">
            <mxPoint x="1030" y="330" as="sourcePoint" />
            <mxPoint x="715" y="250" as="targetPoint" />
          </mxGeometry>
        </mxCell>
        <mxCell id="0Ep_V3U1J2-gXRXQqFik-1496" value="Uniform 4X" style="text;html=1;strokeColor=none;fillColor=none;align=center;verticalAlign=middle;whiteSpace=wrap;rounded=0;dashed=1;dashPattern=1 1;" vertex="1" parent="1">
          <mxGeometry x="80" y="395" width="75" height="20" as="geometry" />
        </mxCell>
        <mxCell id="0Ep_V3U1J2-gXRXQqFik-1497" value="Uniform 3X" style="text;html=1;strokeColor=none;fillColor=none;align=center;verticalAlign=middle;whiteSpace=wrap;rounded=0;dashed=1;dashPattern=1 1;" vertex="1" parent="1">
          <mxGeometry x="300" y="395" width="75" height="20" as="geometry" />
        </mxCell>
        <mxCell id="0Ep_V3U1J2-gXRXQqFik-1498" value="Non-Uniform 1" style="text;html=1;strokeColor=none;fillColor=none;align=center;verticalAlign=middle;whiteSpace=wrap;rounded=0;dashed=1;dashPattern=1 1;" vertex="1" parent="1">
          <mxGeometry x="510" y="395" width="90" height="20" as="geometry" />
        </mxCell>
        <mxCell id="0Ep_V3U1J2-gXRXQqFik-1499" value="Non-Uniform 2" style="text;html=1;strokeColor=none;fillColor=none;align=center;verticalAlign=middle;whiteSpace=wrap;rounded=0;dashed=1;dashPattern=1 1;" vertex="1" parent="1">
          <mxGeometry x="730" y="395" width="90" height="20" as="geometry" />
        </mxCell>
        <mxCell id="0Ep_V3U1J2-gXRXQqFik-1566" value="" style="group" vertex="1" connectable="0" parent="1">
          <mxGeometry x="95" y="215" width="45" height="5" as="geometry" />
        </mxCell>
        <mxCell id="0Ep_V3U1J2-gXRXQqFik-1534" value="" style="ellipse;whiteSpace=wrap;html=1;strokeColor=#0066CC;fillColor=#0066CC;flipV=1;" vertex="1" parent="0Ep_V3U1J2-gXRXQqFik-1566">
          <mxGeometry width="5" height="5" as="geometry" />
        </mxCell>
        <mxCell id="0Ep_V3U1J2-gXRXQqFik-1557" value="" style="ellipse;whiteSpace=wrap;html=1;strokeColor=#0066CC;fillColor=#0066CC;flipV=1;" vertex="1" parent="0Ep_V3U1J2-gXRXQqFik-1566">
          <mxGeometry x="8" width="5" height="5" as="geometry" />
        </mxCell>
        <mxCell id="0Ep_V3U1J2-gXRXQqFik-1558" value="" style="ellipse;whiteSpace=wrap;html=1;strokeColor=#0066CC;fillColor=#0066CC;flipV=1;" vertex="1" parent="0Ep_V3U1J2-gXRXQqFik-1566">
          <mxGeometry x="16" width="5" height="5" as="geometry" />
        </mxCell>
        <mxCell id="0Ep_V3U1J2-gXRXQqFik-1559" value="" style="ellipse;whiteSpace=wrap;html=1;strokeColor=#0066CC;fillColor=#0066CC;flipV=1;" vertex="1" parent="0Ep_V3U1J2-gXRXQqFik-1566">
          <mxGeometry x="24" width="5" height="5" as="geometry" />
        </mxCell>
        <mxCell id="0Ep_V3U1J2-gXRXQqFik-1562" value="" style="ellipse;whiteSpace=wrap;html=1;strokeColor=#0066CC;fillColor=#0066CC;flipV=1;" vertex="1" parent="0Ep_V3U1J2-gXRXQqFik-1566">
          <mxGeometry x="32" width="5" height="5" as="geometry" />
        </mxCell>
        <mxCell id="0Ep_V3U1J2-gXRXQqFik-1563" value="" style="ellipse;whiteSpace=wrap;html=1;strokeColor=#0066CC;fillColor=#0066CC;flipV=1;" vertex="1" parent="0Ep_V3U1J2-gXRXQqFik-1566">
          <mxGeometry x="40" width="5" height="5" as="geometry" />
        </mxCell>
        <mxCell id="0Ep_V3U1J2-gXRXQqFik-1607" value="" style="group" vertex="1" connectable="0" parent="1">
          <mxGeometry x="315" y="215" width="45" height="5" as="geometry" />
        </mxCell>
        <mxCell id="0Ep_V3U1J2-gXRXQqFik-1599" value="" style="ellipse;whiteSpace=wrap;html=1;strokeColor=#0066CC;fillColor=#0066CC;flipV=0;direction=south;" vertex="1" parent="0Ep_V3U1J2-gXRXQqFik-1607">
          <mxGeometry width="5" height="5" as="geometry" />
        </mxCell>
        <mxCell id="0Ep_V3U1J2-gXRXQqFik-1602" value="" style="ellipse;whiteSpace=wrap;html=1;strokeColor=#0066CC;fillColor=#0066CC;flipV=0;direction=south;" vertex="1" parent="0Ep_V3U1J2-gXRXQqFik-1607">
          <mxGeometry x="8.5" width="5" height="5" as="geometry" />
        </mxCell>
        <mxCell id="0Ep_V3U1J2-gXRXQqFik-1603" value="" style="ellipse;whiteSpace=wrap;html=1;strokeColor=#0066CC;fillColor=#0066CC;flipV=0;direction=south;" vertex="1" parent="0Ep_V3U1J2-gXRXQqFik-1607">
          <mxGeometry x="16.5" width="5" height="5" as="geometry" />
        </mxCell>
        <mxCell id="0Ep_V3U1J2-gXRXQqFik-1604" value="" style="ellipse;whiteSpace=wrap;html=1;strokeColor=#0066CC;fillColor=#0066CC;flipV=0;direction=south;" vertex="1" parent="0Ep_V3U1J2-gXRXQqFik-1607">
          <mxGeometry x="24.5" width="5" height="5" as="geometry" />
        </mxCell>
        <mxCell id="0Ep_V3U1J2-gXRXQqFik-1605" value="" style="ellipse;whiteSpace=wrap;html=1;strokeColor=#0066CC;fillColor=#0066CC;flipV=0;direction=south;" vertex="1" parent="0Ep_V3U1J2-gXRXQqFik-1607">
          <mxGeometry x="32.5" width="5" height="5" as="geometry" />
        </mxCell>
        <mxCell id="0Ep_V3U1J2-gXRXQqFik-1606" value="" style="ellipse;whiteSpace=wrap;html=1;strokeColor=#0066CC;fillColor=#0066CC;flipV=0;direction=south;" vertex="1" parent="0Ep_V3U1J2-gXRXQqFik-1607">
          <mxGeometry x="40" width="5" height="5" as="geometry" />
        </mxCell>
        <mxCell id="0Ep_V3U1J2-gXRXQqFik-1629" value="" style="group" vertex="1" connectable="0" parent="1">
          <mxGeometry x="530" y="215" width="45" height="5" as="geometry" />
        </mxCell>
        <mxCell id="0Ep_V3U1J2-gXRXQqFik-1618" value="" style="ellipse;whiteSpace=wrap;html=1;strokeColor=#0066CC;fillColor=#0066CC;flipV=1;direction=south;" vertex="1" parent="0Ep_V3U1J2-gXRXQqFik-1629">
          <mxGeometry width="5" height="5" as="geometry" />
        </mxCell>
        <mxCell id="0Ep_V3U1J2-gXRXQqFik-1623" value="" style="ellipse;whiteSpace=wrap;html=1;strokeColor=#0066CC;fillColor=#0066CC;flipV=1;direction=south;" vertex="1" parent="0Ep_V3U1J2-gXRXQqFik-1629">
          <mxGeometry x="8" width="5" height="5" as="geometry" />
        </mxCell>
        <mxCell id="0Ep_V3U1J2-gXRXQqFik-1624" value="" style="ellipse;whiteSpace=wrap;html=1;strokeColor=#0066CC;fillColor=#0066CC;flipV=1;direction=south;" vertex="1" parent="0Ep_V3U1J2-gXRXQqFik-1629">
          <mxGeometry x="16" width="5" height="5" as="geometry" />
        </mxCell>
        <mxCell id="0Ep_V3U1J2-gXRXQqFik-1625" value="" style="ellipse;whiteSpace=wrap;html=1;strokeColor=#0066CC;fillColor=#0066CC;flipV=1;direction=south;" vertex="1" parent="0Ep_V3U1J2-gXRXQqFik-1629">
          <mxGeometry x="24" width="5" height="5" as="geometry" />
        </mxCell>
        <mxCell id="0Ep_V3U1J2-gXRXQqFik-1626" value="" style="ellipse;whiteSpace=wrap;html=1;strokeColor=#0066CC;fillColor=#0066CC;flipV=1;direction=south;" vertex="1" parent="0Ep_V3U1J2-gXRXQqFik-1629">
          <mxGeometry x="32" width="5" height="5" as="geometry" />
        </mxCell>
        <mxCell id="0Ep_V3U1J2-gXRXQqFik-1627" value="" style="ellipse;whiteSpace=wrap;html=1;strokeColor=#0066CC;fillColor=#0066CC;flipV=1;direction=south;flipH=1;" vertex="1" parent="0Ep_V3U1J2-gXRXQqFik-1629">
          <mxGeometry x="40" width="5" height="5" as="geometry" />
        </mxCell>
        <mxCell id="0Ep_V3U1J2-gXRXQqFik-1636" value="" style="group" vertex="1" connectable="0" parent="1">
          <mxGeometry x="750" y="215" width="45.5" height="5" as="geometry" />
        </mxCell>
        <mxCell id="0Ep_V3U1J2-gXRXQqFik-1630" value="" style="ellipse;whiteSpace=wrap;html=1;strokeColor=#0066CC;fillColor=#0066CC;flipV=0;direction=south;" vertex="1" parent="0Ep_V3U1J2-gXRXQqFik-1636">
          <mxGeometry width="5" height="5" as="geometry" />
        </mxCell>
        <mxCell id="0Ep_V3U1J2-gXRXQqFik-1631" value="" style="ellipse;whiteSpace=wrap;html=1;strokeColor=#0066CC;fillColor=#0066CC;flipV=0;direction=south;" vertex="1" parent="0Ep_V3U1J2-gXRXQqFik-1636">
          <mxGeometry x="8.5" width="5" height="5" as="geometry" />
        </mxCell>
        <mxCell id="0Ep_V3U1J2-gXRXQqFik-1632" value="" style="ellipse;whiteSpace=wrap;html=1;strokeColor=#0066CC;fillColor=#0066CC;flipV=0;direction=south;" vertex="1" parent="0Ep_V3U1J2-gXRXQqFik-1636">
          <mxGeometry x="16.5" width="5" height="5" as="geometry" />
        </mxCell>
        <mxCell id="0Ep_V3U1J2-gXRXQqFik-1633" value="" style="ellipse;whiteSpace=wrap;html=1;strokeColor=#0066CC;fillColor=#0066CC;flipV=0;direction=south;" vertex="1" parent="0Ep_V3U1J2-gXRXQqFik-1636">
          <mxGeometry x="24.5" width="5" height="5" as="geometry" />
        </mxCell>
        <mxCell id="0Ep_V3U1J2-gXRXQqFik-1634" value="" style="ellipse;whiteSpace=wrap;html=1;strokeColor=#0066CC;fillColor=#0066CC;flipV=0;direction=south;" vertex="1" parent="0Ep_V3U1J2-gXRXQqFik-1636">
          <mxGeometry x="40.5" width="5" height="5" as="geometry" />
        </mxCell>
        <mxCell id="0Ep_V3U1J2-gXRXQqFik-1635" value="" style="ellipse;whiteSpace=wrap;html=1;strokeColor=#0066CC;fillColor=#0066CC;flipV=0;direction=south;" vertex="1" parent="0Ep_V3U1J2-gXRXQqFik-1636">
          <mxGeometry x="32.5" width="5" height="5" as="geometry" />
        </mxCell>
        <mxCell id="0Ep_V3U1J2-gXRXQqFik-1640" value="" style="endArrow=classic;html=1;" edge="1" parent="1">
          <mxGeometry width="50" height="50" relative="1" as="geometry">
            <mxPoint x="875" y="310" as="sourcePoint" />
            <mxPoint x="900" y="310" as="targetPoint" />
          </mxGeometry>
        </mxCell>
        <mxCell id="0Ep_V3U1J2-gXRXQqFik-1641" value="" style="endArrow=classic;html=1;" edge="1" parent="1">
          <mxGeometry width="50" height="50" relative="1" as="geometry">
            <mxPoint x="778" y="270" as="sourcePoint" />
            <mxPoint x="855" y="270" as="targetPoint" />
          </mxGeometry>
        </mxCell>
        <mxCell id="0Ep_V3U1J2-gXRXQqFik-1642" value="Binarized Activation&lt;br&gt;" style="text;html=1;strokeColor=none;fillColor=none;align=center;verticalAlign=middle;whiteSpace=wrap;rounded=0;dashed=1;dashPattern=1 1;" vertex="1" parent="1">
          <mxGeometry x="900" y="285" width="60" height="50" as="geometry" />
        </mxCell>
        <mxCell id="0Ep_V3U1J2-gXRXQqFik-1643" value="Binarized Weight" style="text;html=1;strokeColor=none;fillColor=none;align=center;verticalAlign=middle;whiteSpace=wrap;rounded=0;dashed=1;dashPattern=1 1;" vertex="1" parent="1">
          <mxGeometry x="850" y="243" width="60" height="50" as="geometry" />
        </mxCell>
      </root>
    </mxGraphModel>
  </diagram>
</mxfile>
